SplineFontDB: 3.0
FontName: ChangaOne-Italic
FullName: Changa One Italic
FamilyName: Changa One
Weight: Regular
Copyright: Copyright (c) 2011, Eduardo Tunni (http://www.tipo.net.ar), with Reserved Font Name "Changa"
Version: 001.003
ItalicAngle: -12
UnderlinePosition: -50
UnderlineWidth: 50
Ascent: 800
Descent: 200
sfntRevision: 0x000100c5
LayerCount: 2
Layer: 0 1 "Back"  1
Layer: 1 1 "Fore"  0
NeedsXUIDChange: 1
XUID: [1021 288 713564382 1430629]
FSType: 0
OS2Version: 2
OS2_WeightWidthSlopeOnly: 0
OS2_UseTypoMetrics: 1
CreationTime: 1322412884
ModificationTime: 1322441766
PfmFamily: 17
TTFWeight: 400
TTFWidth: 5
LineGap: 0
VLineGap: 0
Panose: 2 0 0 0 0 0 0 0 0 0
OS2TypoAscent: 82
OS2TypoAOffset: 1
OS2TypoDescent: 20
OS2TypoDOffset: 1
OS2TypoLinegap: 0
OS2WinAscent: 0
OS2WinAOffset: 1
OS2WinDescent: 0
OS2WinDOffset: 1
HheadAscent: 0
HheadAOffset: 1
HheadDescent: 0
HheadDOffset: 1
OS2SubXSize: 700
OS2SubYSize: 650
OS2SubXOff: 0
OS2SubYOff: 140
OS2SupXSize: 700
OS2SupYSize: 650
OS2SupXOff: 0
OS2SupYOff: 477
OS2StrikeYSize: 50
OS2StrikeYPos: 250
OS2Vendor: 'pyrs'
OS2CodePages: 20000001.00000000
OS2UnicodeRanges: 800000af.4000204a.00000000.00000000
Lookup: 258 0 0 "'kern' Horizontal Kerning in Latin lookup 0"  {"'kern' Horizontal Kerning in Latin lookup 0 subtable"  } ['kern' ('DFLT' <'dflt' > 'latn' <'dflt' > ) ]
MarkAttachClasses: 1
DEI: 91125
TtTable: prep
PUSHW_1
 511
SCANCTRL
PUSHB_1
 4
SCANTYPE
EndTTInstrs
LangName: 1033 "" "" "" "EduardoRodriguezTunni: Changa One Italic: 2011" "ChangaOne-Italic" "Version 1.003" "" "Changa is a trademark of Eduardo Rodriguez Tunni." "Eduardo Rodriguez Tunni" "Eduardo Rodriguez Tunni" "" "http://www.tipo.net.ar" "http://www.tipo.net.ar" "This Font Software is licensed under the SIL Open Font License, Version 1.1. This license is available with a FAQ at: http://scripts.sil.org/OFL" "http://scripts.sil.org/OFL" 
GaspTable: 1 65535 15
Encoding: UnicodeBmp
UnicodeInterp: none
NameList: Adobe Glyph List
DisplaySize: -36
AntiAlias: 1

StartChar: AE
Encoding: 198 198 1
Width: 748
Flags: HMW
HStem: 0 160<519 692> 99 159<231 311 231 326 169 311> 236 145<514 647 514 514> 465 160<497 701 497 497>
LayerCount: 2
Fore
SplineSet
130 0 m 1,0,-1
 -70 0 l 1,1,-1
 193 625 l 1,2,-1
 754 625 l 1,3,-1
 701 465 l 1,4,-1
 497 465 l 1,5,-1
 504 381 l 1,6,-1
 673 381 l 1,7,-1
 647 236 l 1,8,-1
 514 236 l 1,9,-1
 519 160 l 1,10,-1
 720 160 l 1,11,-1
 692 0 l 1,12,-1
 330 0 l 1,13,-1
 326 99 l 1,14,-1
 169 99 l 1,15,-1
 130 0 l 1,0,-1
301 433 m 1,16,-1
 231 258 l 1,17,-1
 311 258 l 1,18,-1
 311 433 l 1,19,-1
 301 433 l 1,16,-1
EndSplineSet
EndChar

StartChar: Aacute
Encoding: 193 193 2
Width: 609
Flags: HMW
HStem: 0 21G<-50 150 -50 -50 350 350 350 551> 99 159<251 331 251 346 189 331> 605 20G<213 507 507 507> 829 20G<434 439.5>
VStem: 331 198
LayerCount: 2
Fore
SplineSet
150 0 m 1,0,-1
 -50 0 l 1,1,-1
 213 625 l 1,2,-1
 507 625 l 1,3,-1
 551 0 l 1,4,-1
 350 0 l 1,5,-1
 346 99 l 1,6,-1
 189 99 l 1,7,-1
 150 0 l 1,0,-1
321 433 m 1,8,-1
 251 258 l 1,9,-1
 331 258 l 1,10,-1
 331 433 l 1,11,-1
 321 433 l 1,8,-1
451 684 m 2,12,-1
 277 649 l 1,13,-1
 236 706 l 1,14,-1
 425 845 l 2,15,16
 431 849 431 849 438 849 c 0,17,18
 445 849 445 849 454 838 c 2,19,-1
 517 764 l 2,20,21
 526 753.5 526 753.5 526 747.25 c 0,22,23
 526 741 526 741 523.5 737.5 c 0,24,25
 521 734 521 734 477 696 c 0,26,27
 467 687 467 687 451 684 c 2,12,-1
EndSplineSet
EndChar

StartChar: Acircumflex
Encoding: 194 194 3
Width: 609
Flags: HMW
HStem: 0 21G<-50 150 -50 -50 350 350 350 551> 99 159<251 331 251 346 189 331> 605 20G<213 507 507 507> 844 20G<389 434 434 437.5>
VStem: 331 198
LayerCount: 2
Fore
SplineSet
150 0 m 1,0,-1
 -50 0 l 1,1,-1
 213 625 l 1,2,-1
 507 625 l 1,3,-1
 551 0 l 1,4,-1
 350 0 l 1,5,-1
 346 99 l 1,6,-1
 189 99 l 1,7,-1
 150 0 l 1,0,-1
321 433 m 1,8,-1
 251 258 l 1,9,-1
 331 258 l 1,10,-1
 331 433 l 1,11,-1
 321 433 l 1,8,-1
389 864 m 2,12,-1
 434 864 l 2,13,14
 442 864 442 864 447 855 c 2,15,-1
 530 710 l 1,16,-1
 464 661 l 1,17,-1
 386 724 l 1,18,-1
 287 661 l 1,19,-1
 239 710 l 1,20,-1
 371 855 l 2,21,22
 378.5 864 378.5 864 389 864 c 2,12,-1
EndSplineSet
EndChar

StartChar: Adieresis
Encoding: 196 196 4
Width: 609
Flags: HMW
HStem: 0 21G<-50 150 -50 -50 350 350 350 551> 99 159<251 331 251 346 189 331> 605 20G<213 507 507 507> 676 156<259 297.5 467 506>
VStem: 201 155<744.5 763.5> 331 198 409 155<744.5 763.5>
LayerCount: 2
Fore
SplineSet
150 0 m 1,0,-1
 -50 0 l 1,1,-1
 213 625 l 1,2,-1
 507 625 l 1,3,-1
 551 0 l 1,4,-1
 350 0 l 1,5,-1
 346 99 l 1,6,-1
 189 99 l 1,7,-1
 150 0 l 1,0,-1
321 433 m 1,8,-1
 251 258 l 1,9,-1
 331 258 l 1,10,-1
 331 433 l 1,11,-1
 321 433 l 1,8,-1
429.5 807.5 m 128,-1,13
 450 832 450 832 492.5 832 c 128,-1,14
 535 832 535 832 549.5 821 c 128,-1,15
 564 810 564 810 564 784 c 0,16,17
 564 725 564 725 543.5 700.5 c 128,-1,18
 523 676 523 676 480.5 676 c 128,-1,19
 438 676 438 676 423.5 687 c 128,-1,20
 409 698 409 698 409 724 c 0,21,12
 409 783 409 783 429.5 807.5 c 128,-1,13
221.5 807.5 m 128,-1,23
 242 832 242 832 284.5 832 c 128,-1,24
 327 832 327 832 341.5 821 c 128,-1,25
 356 810 356 810 356 784 c 0,26,27
 356 725 356 725 335 700.5 c 128,-1,28
 314 676 314 676 272 676 c 128,-1,29
 230 676 230 676 215.5 687 c 128,-1,30
 201 698 201 698 201 724 c 0,31,22
 201 783 201 783 221.5 807.5 c 128,-1,23
EndSplineSet
EndChar

StartChar: Agrave
Encoding: 192 192 5
Width: 609
Flags: HMW
HStem: 0 21G<-50 150 -50 -50 350 350 350 551> 99 159<251 331 251 346 189 331> 605 20G<213 507 507 507> 844 20G<324.5 330>
VStem: 331 198
LayerCount: 2
Fore
SplineSet
150 0 m 1,0,-1
 -50 0 l 1,1,-1
 213 625 l 1,2,-1
 507 625 l 1,3,-1
 551 0 l 1,4,-1
 350 0 l 1,5,-1
 346 99 l 1,6,-1
 189 99 l 1,7,-1
 150 0 l 1,0,-1
321 433 m 1,8,-1
 251 258 l 1,9,-1
 331 258 l 1,10,-1
 331 433 l 1,11,-1
 321 433 l 1,8,-1
487 664 m 1,12,-1
 313 699 l 2,13,14
 297 702 297 702 287 711 c 2,15,-1
 242 750 l 1,16,17
 238 756 238 756 238 762.25 c 0,18,19
 238 768.5 238 768.5 247 779 c 2,20,-1
 310 853 l 2,21,22
 319 864 319 864 326 864 c 0,23,24
 333 864 333 864 339 860 c 2,25,-1
 528 721 l 1,26,-1
 487 664 l 1,12,-1
EndSplineSet
EndChar

StartChar: Aring
Encoding: 197 197 6
Width: 609
Flags: HMW
HStem: 0 21G<-50 150 -50 -50 350 350 350 551> 99 159<251 331 251 346 189 331> 605 20G<213 507 507 507> 862 20G<361.5 437>
VStem: 270 227<752 781> 331 198
LayerCount: 2
Fore
SplineSet
150 0 m 1,0,-1
 -50 0 l 1,1,-1
 213 625 l 1,2,-1
 507 625 l 1,3,-1
 551 0 l 1,4,-1
 350 0 l 1,5,-1
 346 99 l 1,6,-1
 189 99 l 1,7,-1
 150 0 l 1,0,-1
321 433 m 1,8,-1
 251 258 l 1,9,-1
 331 258 l 1,10,-1
 331 433 l 1,11,-1
 321 433 l 1,8,-1
347 788 m 2,12,-1
 335 720 l 1,13,-1
 375 720 l 2,14,15
 401.833333333 720 401.833333333 720 409.416666667 727 c 128,-1,16
 417 734 417 734 419 746 c 2,17,-1
 431 813 l 1,18,-1
 394 813 l 2,19,20
 365.333333333 813 365.333333333 813 357.166666667 806 c 128,-1,21
 349 799 349 799 347 788 c 2,12,-1
404 882 m 0,22,23
 497 882 497 882 497 802 c 0,24,25
 497 728 497 728 462 689.5 c 128,-1,26
 427 651 427 651 363 651 c 0,27,28
 270 651 270 651 270 731 c 0,29,30
 270 805 270 805 305 843.5 c 128,-1,31
 340 882 340 882 404 882 c 0,22,23
EndSplineSet
EndChar

StartChar: Atilde
Encoding: 195 195 7
Width: 609
Flags: HMW
HStem: 0 21G<-50 150 -50 -50 350 350 350 551> 99 159<251 331 251 346 189 331> 605 20G<213 507 507 507> 825 20G<356 388>
VStem: 331 198
LayerCount: 2
Fore
SplineSet
150 0 m 1,0,-1
 -50 0 l 1,1,-1
 213 625 l 1,2,-1
 507 625 l 1,3,-1
 551 0 l 1,4,-1
 350 0 l 1,5,-1
 346 99 l 1,6,-1
 189 99 l 1,7,-1
 150 0 l 1,0,-1
321 433 m 1,8,-1
 251 258 l 1,9,-1
 331 258 l 1,10,-1
 331 433 l 1,11,-1
 321 433 l 1,8,-1
447 800 m 1,12,-1
 533 840 l 1,13,-1
 566 759 l 1,14,15
 436.715959653 678.197474783 436.715959653 678.197474783 422.273558858 672.641380179 c 128,-1,16
 407.831158063 667.085285575 407.831158063 667.085285575 395.415579031 667.042642788 c 128,-1,17
 383 667 383 667 375 669 c 128,-1,18
 367 671 367 671 359 676.5 c 128,-1,19
 351 682 351 682 346 685.5 c 0,20,21
 337.666666667 691.333333333 337.666666667 691.333333333 317 712 c 1,22,-1
 232 672 l 1,23,-1
 198 753 l 1,24,25
 327.284040347 833.802525217 327.284040347 833.802525217 341.726441142 839.358619821 c 128,-1,26
 356.168841937 844.914714425 356.168841937 844.914714425 368.584420969 844.957357212 c 128,-1,27
 381 845 381 845 389 843 c 128,-1,28
 397 841 397 841 405 835.5 c 128,-1,29
 413 830 413 830 418 826.5 c 0,30,31
 426.333333333 820.666666667 426.333333333 820.666666667 447 800 c 1,12,-1
EndSplineSet
EndChar

StartChar: B
Encoding: 66 66 8
Width: 578
Flags: HMW
HStem: 0 147<223 297 297 315 223 350> 249 146<267 316 241 326> 488 137<284 344 284 284>
LayerCount: 2
Fore
SplineSet
8 0 m 1,0,-1
 118 625 l 1,1,-1
 426 625 l 2,2,3
 498 625 498 625 530.5 600 c 128,-1,4
 563 575 563 575 563 523 c 0,5,6
 563 447 563 447 529.5 398 c 128,-1,7
 496 349 496 349 448 337 c 1,8,-1
 447 331 l 1,9,10
 537 314 537 314 537 212 c 0,11,12
 537 122 537 122 488 61 c 128,-1,13
 439 0 439 0 350 0 c 2,14,-1
 8 0 l 1,0,-1
316 249 m 2,15,-1
 241 249 l 1,16,-1
 223 147 l 1,17,-1
 297 147 l 2,18,19
 322 147 322 147 335 167 c 128,-1,20
 348 187 348 187 348 218 c 0,21,22
 348 249 348 249 316 249 c 2,15,-1
344 488 m 2,23,-1
 284 488 l 1,24,-1
 267 395 l 1,25,-1
 326 395 l 2,26,27
 372 395 372 395 372 460 c 0,28,29
 372 488 372 488 344 488 c 2,23,-1
EndSplineSet
EndChar

StartChar: C
Encoding: 67 67 9
Width: 500
Flags: HMW
HStem: -15 170<278.5 293.5> 475 165<330 374>
LayerCount: 2
Fore
SplineSet
438 179 m 1,0,-1
 422 11 l 1,1,2
 358 -15 358 -15 260 -15 c 0,3,4
 134 -15 134 -15 79.5 34 c 128,-1,5
 25 83 25 83 25 185 c 0,6,7
 25 228 25 228 39 312 c 0,8,9
 69 484 69 484 142.5 562 c 128,-1,10
 216 640 216 640 375 640 c 0,11,12
 412 640 412 640 459.5 632.5 c 128,-1,13
 507 625 507 625 529 614 c 1,14,-1
 473 461 l 1,15,16
 414 475 414 475 362.5 475 c 0,17,18
 311 475 311 475 289 465 c 128,-1,19
 267 455 267 455 262 425 c 2,20,-1
 216 163 l 1,21,22
 252 155 252 155 290 155 c 0,23,24
 371 155 371 155 438 179 c 1,0,-1
EndSplineSet
EndChar

StartChar: Ccedilla
Encoding: 199 199 10
Width: 500
Flags: HMW
HStem: -165 21G<185 243.5> 475 165<330 374>
LayerCount: 2
Fore
SplineSet
201 -26 m 2,0,-1
 203 -12 l 1,1,2
 108 -3 108 -3 66.5 46 c 128,-1,3
 25 95 25 95 25 185 c 0,4,5
 25 228 25 228 39 312 c 0,6,7
 69 484 69 484 142.5 562 c 128,-1,8
 216 640 216 640 375 640 c 0,9,10
 412 640 412 640 459.5 632.5 c 128,-1,11
 507 625 507 625 529 614 c 1,12,-1
 473 461 l 1,13,14
 414 475 414 475 362.5 475 c 0,15,16
 311 475 311 475 289 465 c 128,-1,17
 267 455 267 455 262 425 c 2,18,-1
 216 163 l 1,19,20
 252 155 252 155 290 155 c 0,21,22
 371 155 371 155 438 179 c 1,23,-1
 422 11 l 1,24,25
 373 -9 373 -9 309 -13 c 1,26,27
 324 -36 324 -36 324 -70.5 c 0,28,29
 324 -105 324 -105 292 -135 c 128,-1,30
 260 -165 260 -165 206.5 -165 c 0,31,32
 153 -165 153 -165 107 -146 c 1,33,-1
 133 -58 l 1,34,-1
 164 -58 l 2,35,36
 184 -58 184 -58 190.5 -52.5 c 128,-1,37
 197 -47 197 -47 201 -26 c 2,0,-1
EndSplineSet
EndChar

StartChar: D
Encoding: 68 68 11
Width: 645
Flags: HMW
HStem: 0 160<226 274> 465 160<279 358 279 279>
LayerCount: 2
Fore
SplineSet
8 0 m 1,0,-1
 118 625 l 1,1,-1
 384 625 l 2,2,3
 513 625 513 625 567.5 579.5 c 128,-1,4
 622 534 622 534 622 432 c 0,5,6
 622 379.5 622 379.5 610 312 c 0,7,8
 580 144 580 144 507.5 72 c 128,-1,9
 435 0 435 0 274 0 c 2,10,-1
 8 0 l 1,0,-1
358 465 m 2,11,-1
 279 465 l 1,12,-1
 226 160 l 1,13,-1
 305 160 l 2,14,15
 344 160 344 160 363 169.5 c 128,-1,16
 382 179 382 179 388 213 c 2,17,-1
 423 412 l 2,18,19
 424 418 424 418 424 428 c 0,20,21
 424 451 424 451 408 458 c 128,-1,22
 392 465 392 465 358 465 c 2,11,-1
EndSplineSet
EndChar

StartChar: E
Encoding: 69 69 12
Width: 530
Flags: HMW
HStem: 0 160<226 431> 236 145<265 429 239 455> 465 160<279 484 279 279>
LayerCount: 2
Fore
SplineSet
429 236 m 1,0,-1
 239 236 l 1,1,-1
 226 160 l 1,2,-1
 459 160 l 1,3,-1
 431 0 l 1,4,-1
 8 0 l 1,5,-1
 118 625 l 1,6,-1
 536 625 l 1,7,-1
 484 465 l 1,8,-1
 279 465 l 1,9,-1
 265 381 l 1,10,-1
 455 381 l 1,11,-1
 429 236 l 1,0,-1
EndSplineSet
EndChar

StartChar: Eacute
Encoding: 201 201 13
Width: 530
Flags: HMW
HStem: 0 160<226 431> 236 145<265 429 239 455> 465 160<279 484 279 279> 829 20G<390 395.5>
LayerCount: 2
Fore
SplineSet
429 236 m 1,0,-1
 239 236 l 1,1,-1
 226 160 l 1,2,-1
 459 160 l 1,3,-1
 431 0 l 1,4,-1
 8 0 l 1,5,-1
 118 625 l 1,6,-1
 536 625 l 1,7,-1
 484 465 l 1,8,-1
 279 465 l 1,9,-1
 265 381 l 1,10,-1
 455 381 l 1,11,-1
 429 236 l 1,0,-1
407 684 m 2,12,-1
 233 649 l 1,13,-1
 192 706 l 1,14,-1
 381 845 l 2,15,16
 387 849 387 849 394 849 c 0,17,18
 401 849 401 849 410 838 c 2,19,-1
 473 764 l 2,20,21
 482 753.5 482 753.5 482 747.25 c 0,22,23
 482 741 482 741 479.5 737.5 c 0,24,25
 477 734 477 734 433 696 c 0,26,27
 423 687 423 687 407 684 c 2,12,-1
EndSplineSet
EndChar

StartChar: Ecircumflex
Encoding: 202 202 14
Width: 530
Flags: HMW
HStem: 0 160<226 431> 236 145<265 429 239 455> 465 160<279 484 279 279> 844 20G<388 433 433 436.5>
LayerCount: 2
Fore
SplineSet
429 236 m 1,0,-1
 239 236 l 1,1,-1
 226 160 l 1,2,-1
 459 160 l 1,3,-1
 431 0 l 1,4,-1
 8 0 l 1,5,-1
 118 625 l 1,6,-1
 536 625 l 1,7,-1
 484 465 l 1,8,-1
 279 465 l 1,9,-1
 265 381 l 1,10,-1
 455 381 l 1,11,-1
 429 236 l 1,0,-1
388 864 m 2,12,-1
 433 864 l 2,13,14
 441 864 441 864 446 855 c 2,15,-1
 529 710 l 1,16,-1
 463 661 l 1,17,-1
 385 724 l 1,18,-1
 286 661 l 1,19,-1
 238 710 l 1,20,-1
 370 855 l 2,21,22
 377.5 864 377.5 864 388 864 c 2,12,-1
EndSplineSet
EndChar

StartChar: Edieresis
Encoding: 203 203 15
Width: 530
Flags: HMW
HStem: 0 160<226 431> 236 145<265 429 239 455> 465 160<279 484 279 279> 676 156<217 255.5 425 464>
VStem: 159 155<744.5 763.5> 367 155<744.5 763.5>
LayerCount: 2
Fore
SplineSet
429 236 m 1,0,-1
 239 236 l 1,1,-1
 226 160 l 1,2,-1
 459 160 l 1,3,-1
 431 0 l 1,4,-1
 8 0 l 1,5,-1
 118 625 l 1,6,-1
 536 625 l 1,7,-1
 484 465 l 1,8,-1
 279 465 l 1,9,-1
 265 381 l 1,10,-1
 455 381 l 1,11,-1
 429 236 l 1,0,-1
387.5 807.5 m 128,-1,13
 408 832 408 832 450.5 832 c 128,-1,14
 493 832 493 832 507.5 821 c 128,-1,15
 522 810 522 810 522 784 c 0,16,17
 522 725 522 725 501.5 700.5 c 128,-1,18
 481 676 481 676 438.5 676 c 128,-1,19
 396 676 396 676 381.5 687 c 128,-1,20
 367 698 367 698 367 724 c 0,21,12
 367 783 367 783 387.5 807.5 c 128,-1,13
179.5 807.5 m 128,-1,23
 200 832 200 832 242.5 832 c 128,-1,24
 285 832 285 832 299.5 821 c 128,-1,25
 314 810 314 810 314 784 c 0,26,27
 314 725 314 725 293 700.5 c 128,-1,28
 272 676 272 676 230 676 c 128,-1,29
 188 676 188 676 173.5 687 c 128,-1,30
 159 698 159 698 159 724 c 0,31,22
 159 783 159 783 179.5 807.5 c 128,-1,23
EndSplineSet
EndChar

StartChar: Egrave
Encoding: 200 200 16
Width: 530
Flags: HMW
HStem: 0 160<226 431> 236 145<265 429 239 455> 465 160<279 484 279 279> 844 20G<281.5 287>
LayerCount: 2
Fore
SplineSet
429 236 m 1,0,-1
 239 236 l 1,1,-1
 226 160 l 1,2,-1
 459 160 l 1,3,-1
 431 0 l 1,4,-1
 8 0 l 1,5,-1
 118 625 l 1,6,-1
 536 625 l 1,7,-1
 484 465 l 1,8,-1
 279 465 l 1,9,-1
 265 381 l 1,10,-1
 455 381 l 1,11,-1
 429 236 l 1,0,-1
444 664 m 1,12,-1
 270 699 l 2,13,14
 254 702 254 702 244 711 c 2,15,-1
 199 750 l 1,16,17
 195 756 195 756 195 762.25 c 0,18,19
 195 768.5 195 768.5 204 779 c 2,20,-1
 267 853 l 2,21,22
 276 864 276 864 283 864 c 0,23,24
 290 864 290 864 296 860 c 2,25,-1
 485 721 l 1,26,-1
 444 664 l 1,12,-1
EndSplineSet
EndChar

StartChar: Eth
Encoding: 208 208 17
Width: 645
Flags: HMW
HStem: 0 160<226 274> 243 135<-15 74 -15 74> 465 160<279 358 279 279>
LayerCount: 2
Fore
SplineSet
8 0 m 1,0,-1
 51 243 l 1,1,-1
 -15 243 l 1,2,-1
 3 341 l 2,3,4
 7 363 7 363 19.5 370 c 128,-1,5
 32 377 32 377 56 378 c 1,6,-1
 74 378 l 1,7,-1
 118 625 l 1,8,-1
 384 625 l 2,9,10
 513 625 513 625 567.5 579.5 c 128,-1,11
 622 534 622 534 622 432 c 0,12,13
 622 379.5 622 379.5 610 312 c 0,14,15
 580 144 580 144 507.5 72 c 128,-1,16
 435 0 435 0 274 0 c 2,17,-1
 8 0 l 1,0,-1
358 465 m 2,18,-1
 279 465 l 1,19,-1
 264 378 l 1,20,-1
 342 378 l 1,21,-1
 325 281 l 2,22,23
 321 257 321 257 305.5 250 c 128,-1,24
 290 243 290 243 260 243 c 2,25,-1
 240 243 l 1,26,-1
 226 160 l 1,27,-1
 305 160 l 2,28,29
 344 160 344 160 363 169.5 c 128,-1,30
 382 179 382 179 388 213 c 2,31,-1
 423 412 l 2,32,33
 424 418 424 418 424 428 c 0,34,35
 424 451 424 451 408 458 c 128,-1,36
 392 465 392 465 358 465 c 2,18,-1
EndSplineSet
EndChar

StartChar: Euro
Encoding: 8364 8364 18
Width: 563
Flags: HMW
HStem: -15 160<309.5 316> 206 82<29 55 8 432 259 411 259 259> 338 82<66 106 310 447 45 106> 475 165<367.5 383 383 443 335 511>
LayerCount: 2
Fore
SplineSet
411 206 m 1,0,-1
 259 206 l 1,1,-1
 247 153 l 1,2,3
 283 145 283 145 321 145 c 0,4,5
 398 145 398 145 465 169 c 1,6,-1
 445 11 l 1,7,8
 381 -15 381 -15 269 -15 c 128,-1,9
 157 -15 157 -15 105 26 c 128,-1,10
 53 67 53 67 53 165 c 0,11,12
 53 176 53 176 55 206 c 1,13,-1
 8 206 l 1,14,-1
 29 288 l 1,15,-1
 432 288 l 1,16,-1
 411 206 l 1,0,-1
447 338 m 1,17,-1
 45 338 l 1,18,-1
 66 420 l 1,19,-1
 106 420 l 1,20,21
 144 539 144 539 217 589.5 c 128,-1,22
 290 640 290 640 426 640 c 0,23,24
 494 640 494 640 564 621 c 1,25,-1
 511 475 l 1,26,-1
 383 475 l 2,27,28
 364 475 364 475 352 472.5 c 128,-1,29
 340 470 340 470 328 458.5 c 0,30,31
 314.214876033 445.289256198 314.214876033 445.289256198 310 420 c 1,32,-1
 469 420 l 1,33,-1
 447 338 l 1,17,-1
EndSplineSet
EndChar

StartChar: F
Encoding: 70 70 19
Width: 470
Flags: HMW
HStem: 0 21G<8 198 8 8> 232 149<265 400 238 427> 465 160<279 455 279 279>
LayerCount: 2
Fore
SplineSet
400 232 m 1,0,-1
 238 232 l 1,1,-1
 198 0 l 1,2,-1
 8 0 l 1,3,-1
 118 625 l 1,4,-1
 508 625 l 1,5,-1
 455 465 l 1,6,-1
 279 465 l 1,7,-1
 265 381 l 1,8,-1
 427 381 l 1,9,-1
 400 232 l 1,0,-1
EndSplineSet
EndChar

StartChar: G
Encoding: 71 71 20
Width: 586
Flags: HMW
HStem: -15 157<213 276 276 293.5> 475 165<343.5 398>
LayerCount: 2
Fore
SplineSet
348 184 m 2,0,-1
 353 211 l 1,1,-1
 305 211 l 1,2,-1
 332 364 l 1,3,-1
 561 364 l 1,4,-1
 502 30 l 1,5,6
 380 -15 380 -15 257 -15 c 0,7,8
 134 -15 134 -15 79.5 34 c 128,-1,9
 25 83 25 83 25 185 c 0,10,11
 25 228 25 228 39 312 c 0,12,13
 69 486 69 486 145 563 c 128,-1,14
 221 640 221 640 397 640 c 0,15,16
 434 640 434 640 491.5 632 c 128,-1,17
 549 624 549 624 576 614 c 1,18,-1
 521 461 l 1,19,20
 446 475 446 475 383.5 475 c 0,21,22
 321 475 321 475 294 465 c 128,-1,23
 267 455 267 455 262 425 c 2,24,-1
 213 142 l 1,25,-1
 276 142 l 2,26,27
 310 142 310 142 326.5 149.5 c 128,-1,28
 343 157 343 157 348 184 c 2,0,-1
EndSplineSet
EndChar

StartChar: H
Encoding: 72 72 21
Width: 650
Flags: HMW
HStem: 0 21G<8 198 8 8 341 531 341 341> 605 20G<118 308 308 308 451 641 641 641>
LayerCount: 2
Fore
SplineSet
341 0 m 1,0,-1
 379 221 l 1,1,-1
 236 221 l 1,2,-1
 198 0 l 1,3,-1
 8 0 l 1,4,-1
 118 625 l 1,5,-1
 308 625 l 1,6,-1
 269 404 l 1,7,-1
 412 404 l 1,8,-1
 451 625 l 1,9,-1
 641 625 l 1,10,-1
 531 0 l 1,11,-1
 341 0 l 1,0,-1
EndSplineSet
EndChar

StartChar: I
Encoding: 73 73 22
Width: 300
Flags: HMW
HStem: 0 21G<0 0 0 190> 605 20G<110 300 300 300>
LayerCount: 2
Fore
SplineSet
0 0 m 1,0,-1
 110 625 l 1,1,-1
 300 625 l 1,2,-1
 190 0 l 1,3,-1
 0 0 l 1,0,-1
EndSplineSet
EndChar

StartChar: Iacute
Encoding: 205 205 23
Width: 300
Flags: HMW
HStem: 0 21G<0 0 0 190> 605 20G<110 300 300 300> 829 20G<279 284.5>
LayerCount: 2
Fore
SplineSet
0 0 m 1,0,-1
 110 625 l 1,1,-1
 300 625 l 1,2,-1
 190 0 l 1,3,-1
 0 0 l 1,0,-1
296 684 m 2,4,-1
 122 649 l 1,5,-1
 81 706 l 1,6,-1
 270 845 l 2,7,8
 276 849 276 849 283 849 c 0,9,10
 290 849 290 849 299 838 c 2,11,-1
 362 764 l 2,12,13
 371 753.5 371 753.5 371 747.25 c 0,14,15
 371 741 371 741 368.5 737.5 c 0,16,17
 366 734 366 734 322 696 c 0,18,19
 312 687 312 687 296 684 c 2,4,-1
EndSplineSet
EndChar

StartChar: Icircumflex
Encoding: 206 206 24
Width: 300
Flags: HMW
HStem: 0 21G<0 0 0 190> 605 20G<110 300 300 300> 844 20G<234 279 279 282.5>
LayerCount: 2
Fore
SplineSet
0 0 m 1,0,-1
 110 625 l 1,1,-1
 300 625 l 1,2,-1
 190 0 l 1,3,-1
 0 0 l 1,0,-1
234 864 m 2,4,-1
 279 864 l 2,5,6
 287 864 287 864 292 855 c 2,7,-1
 375 710 l 1,8,-1
 309 661 l 1,9,-1
 231 724 l 1,10,-1
 132 661 l 1,11,-1
 84 710 l 1,12,-1
 216 855 l 2,13,14
 223.5 864 223.5 864 234 864 c 2,4,-1
EndSplineSet
EndChar

StartChar: Idieresis
Encoding: 207 207 25
Width: 300
Flags: HMW
HStem: 0 21G<0 0 0 190> 605 20G<110 300 300 300> 676 156<104 142.5 312 351>
VStem: 46 155<744.5 763.5> 254 155<744.5 763.5>
LayerCount: 2
Fore
SplineSet
0 0 m 1,0,-1
 110 625 l 1,1,-1
 300 625 l 1,2,-1
 190 0 l 1,3,-1
 0 0 l 1,0,-1
274.5 807.5 m 128,-1,5
 295 832 295 832 337.5 832 c 128,-1,6
 380 832 380 832 394.5 821 c 128,-1,7
 409 810 409 810 409 784 c 0,8,9
 409 725 409 725 388.5 700.5 c 128,-1,10
 368 676 368 676 325.5 676 c 128,-1,11
 283 676 283 676 268.5 687 c 128,-1,12
 254 698 254 698 254 724 c 0,13,4
 254 783 254 783 274.5 807.5 c 128,-1,5
66.5 807.5 m 128,-1,15
 87 832 87 832 129.5 832 c 128,-1,16
 172 832 172 832 186.5 821 c 128,-1,17
 201 810 201 810 201 784 c 0,18,19
 201 725 201 725 180 700.5 c 128,-1,20
 159 676 159 676 117 676 c 128,-1,21
 75 676 75 676 60.5 687 c 128,-1,22
 46 698 46 698 46 724 c 0,23,14
 46 783 46 783 66.5 807.5 c 128,-1,15
EndSplineSet
EndChar

StartChar: Igrave
Encoding: 204 204 26
Width: 300
Flags: HMW
HStem: 0 21G<0 0 0 190> 605 20G<110 300 300 300> 844 20G<170.5 176>
LayerCount: 2
Fore
SplineSet
0 0 m 1,0,-1
 110 625 l 1,1,-1
 300 625 l 1,2,-1
 190 0 l 1,3,-1
 0 0 l 1,0,-1
333 664 m 1,4,-1
 159 699 l 2,5,6
 143 702 143 702 133 711 c 2,7,-1
 88 750 l 1,8,9
 84 756 84 756 84 762.25 c 0,10,11
 84 768.5 84 768.5 93 779 c 2,12,-1
 156 853 l 2,13,14
 165 864 165 864 172 864 c 0,15,16
 179 864 179 864 185 860 c 2,17,-1
 374 721 l 1,18,-1
 333 664 l 1,4,-1
EndSplineSet
EndChar

StartChar: J
Encoding: 74 74 27
Width: 366
Flags: HMW
HStem: 0 160<-23 65 -14 65 65 77.5 -14 125> 605 20G<114 382 382 382>
LayerCount: 2
Fore
SplineSet
-23 0 m 1,0,-1
 -14 160 l 1,1,-1
 65 160 l 2,2,3
 93.5714285714 160 93.5714285714 160 103.285714286 168.5 c 128,-1,4
 113 177 113 177 115 190 c 2,5,-1
 163 465 l 1,6,-1
 85 465 l 1,7,-1
 114 625 l 1,8,-1
 382 625 l 1,9,-1
 301 165 l 2,10,11
 287 84 287 84 241.5 42 c 128,-1,12
 196 0 196 0 125 0 c 2,13,-1
 -23 0 l 1,0,-1
EndSplineSet
EndChar

StartChar: K
Encoding: 75 75 28
Width: 575
Flags: HMW
HStem: 0 21G<8 198 8 8 310 310 310 515> 605 20G<118 308 308 308 415 620 620 620>
LayerCount: 2
Fore
SplineSet
252 253 m 2,0,-1
 253 272 l 1,1,-1
 245 272 l 1,2,-1
 198 0 l 1,3,-1
 8 0 l 1,4,-1
 118 625 l 1,5,-1
 308 625 l 1,6,-1
 263 370 l 1,7,-1
 271 370 l 1,8,9
 279 402 279 402 289 418 c 2,10,-1
 415 625 l 1,11,-1
 620 625 l 1,12,-1
 424 318 l 1,13,-1
 515 0 l 1,14,-1
 310 0 l 1,15,-1
 255 224 l 2,16,17
 252 234 252 234 252 253 c 2,0,-1
EndSplineSet
EndChar

StartChar: L
Encoding: 76 76 29
Width: 426
Flags: HMW
HStem: 0 160<226 388> 605 20G<118 308 308 308>
LayerCount: 2
Fore
SplineSet
388 0 m 1,0,-1
 8 0 l 1,1,-1
 118 625 l 1,2,-1
 308 625 l 1,3,-1
 226 160 l 1,4,-1
 416 160 l 1,5,-1
 388 0 l 1,0,-1
EndSplineSet
EndChar

StartChar: Lslash
Encoding: 321 321 30
Width: 426
Flags: HMW
HStem: 0 160<226 388> 605 20G<118 308 308 308>
LayerCount: 2
Fore
SplineSet
5 220 m 1,0,1
 -28 321 -28 321 -28 328 c 0,2,3
 -28 351 -28 351 22 367 c 2,4,-1
 76 384 l 1,5,-1
 118 625 l 1,6,-1
 308 625 l 1,7,-1
 277 450 l 1,8,-1
 324 466 l 1,9,10
 356 365 356 365 356 354 c 0,11,12
 356 334 356 334 306 318 c 2,13,-1
 250 300 l 1,14,-1
 226 160 l 1,15,-1
 416 160 l 1,16,-1
 388 0 l 1,17,-1
 8 0 l 1,18,-1
 49 234 l 1,19,-1
 5 220 l 1,0,1
EndSplineSet
EndChar

StartChar: M
Encoding: 77 77 31
Width: 811
Flags: HMW
HStem: 0 21G<-10 188 -10 -10 279 279 279 424 514 514 514 713> 605 20G<136 384 384 384 539 787 787 787>
LayerCount: 2
Fore
SplineSet
188 0 m 1,0,-1
 -10 0 l 1,1,-1
 136 625 l 1,2,-1
 384 625 l 1,3,-1
 402 307 l 1,4,-1
 409 307 l 1,5,-1
 539 625 l 1,6,-1
 787 625 l 1,7,-1
 713 0 l 1,8,-1
 514 0 l 1,9,-1
 556 303 l 1,10,-1
 549 303 l 1,11,-1
 424 0 l 1,12,-1
 279 0 l 1,13,-1
 258 303 l 1,14,-1
 253 303 l 1,15,-1
 188 0 l 1,0,-1
EndSplineSet
EndChar

StartChar: N
Encoding: 78 78 32
Width: 655
Flags: HMW
HStem: 0 21G<8 198 8 8 357 536 357 357> 605 20G<118 297 297 297 456 646 646 646>
LayerCount: 2
Fore
SplineSet
357 0 m 1,0,-1
 255 222 l 2,1,2
 251 229 251 229 251 241.5 c 0,3,4
 251 254 251 254 253 270 c 1,5,-1
 245 270 l 1,6,-1
 198 0 l 1,7,-1
 8 0 l 1,8,-1
 118 625 l 1,9,-1
 297 625 l 1,10,-1
 399 403 l 2,11,12
 402 396 402 396 402 383.5 c 0,13,14
 402 371 402 371 400 355 c 1,15,-1
 408 355 l 1,16,-1
 456 625 l 1,17,-1
 646 625 l 1,18,-1
 536 0 l 1,19,-1
 357 0 l 1,0,-1
EndSplineSet
EndChar

StartChar: Ntilde
Encoding: 209 209 33
Width: 655
Flags: HMW
HStem: 0 21G<8 198 8 8 357 536 357 357> 605 20G<118 297 297 297 456 646 646 646> 825 20G<375 407>
LayerCount: 2
Fore
SplineSet
357 0 m 1,0,-1
 255 222 l 2,1,2
 251 229 251 229 251 241.5 c 128,-1,3
 251 254 251 254 253 270 c 1,4,-1
 245 270 l 1,5,-1
 198 0 l 1,6,-1
 8 0 l 1,7,-1
 118 625 l 1,8,-1
 297 625 l 1,9,-1
 399 403 l 2,10,11
 402 396 402 396 402 383.5 c 128,-1,12
 402 371 402 371 400 355 c 1,13,-1
 408 355 l 1,14,-1
 456 625 l 1,15,-1
 646 625 l 1,16,-1
 536 0 l 1,17,-1
 357 0 l 1,0,-1
466 800 m 1,18,-1
 552 840 l 1,19,-1
 585 759 l 1,20,21
 455.715959653 678.197474783 455.715959653 678.197474783 441.273558858 672.641380179 c 128,-1,22
 426.831158063 667.085285575 426.831158063 667.085285575 414.415579031 667.042642788 c 128,-1,23
 402 667 402 667 394 669 c 128,-1,24
 386 671 386 671 378 676.5 c 128,-1,25
 370 682 370 682 365 685.5 c 0,26,27
 356.666666667 691.333333333 356.666666667 691.333333333 336 712 c 1,28,-1
 251 672 l 1,29,-1
 217 753 l 1,30,31
 346.284040347 833.802525217 346.284040347 833.802525217 360.726441142 839.358619821 c 128,-1,32
 375.168841937 844.914714425 375.168841937 844.914714425 387.584420969 844.957357212 c 128,-1,33
 400 845 400 845 408 843 c 128,-1,34
 416 841 416 841 424 835.5 c 128,-1,35
 432 830 432 830 437 826.5 c 0,36,37
 445.333333333 820.666666667 445.333333333 820.666666667 466 800 c 1,18,-1
EndSplineSet
EndChar

StartChar: O
Encoding: 79 79 34
Width: 630
Flags: HMW
HStem: -15 171<211 290 290 303> 469 171<317 339 339 419>
LayerCount: 2
Fore
SplineSet
257 416 m 2,0,-1
 211 156 l 1,1,-1
 290 156 l 2,2,3
 329 156 329 156 348 165.5 c 128,-1,4
 367 175 367 175 373 209 c 2,5,-1
 419 469 l 1,6,-1
 339 469 l 2,7,8
 301 469 301 469 282 459.5 c 128,-1,9
 263 450 263 450 257 416 c 2,0,-1
372 640 m 0,10,11
 499 640 499 640 553 590.5 c 128,-1,12
 607 541 607 541 607 438 c 128,-1,13
 607 335 607 335 574.5 222.5 c 128,-1,14
 542 110 542 110 471.5 47.5 c 128,-1,15
 401 -15 401 -15 265.5 -15 c 128,-1,16
 130 -15 130 -15 76 34.5 c 128,-1,17
 22 84 22 84 22 187 c 0,18,19
 22 236 22 236 36 316.5 c 128,-1,20
 50 397 50 397 73 455.5 c 128,-1,21
 96 514 96 514 135 557 c 0,22,23
 210.279069767 640 210.279069767 640 372 640 c 0,10,11
EndSplineSet
EndChar

StartChar: OE
Encoding: 338 338 35
Width: 840
Flags: HMW
HStem: -15 175 0 160<555 741> 236 145<594 739 568 765> 465 160<608 793 608 608> 465 175
LayerCount: 2
Fore
SplineSet
741 0 m 1,0,-1
 380 0 l 1,1,2
 327.5 -15 327.5 -15 257 -15 c 0,3,4
 130 -15 130 -15 76 34.5 c 128,-1,5
 22 84 22 84 22 187 c 0,6,7
 22 236 22 236 36 316.5 c 128,-1,8
 50 397 50 397 73 455.5 c 128,-1,9
 96 514 96 514 135 557 c 0,10,11
 210.279069767 640 210.279069767 640 372 640 c 0,12,13
 442 640 442 640 490 625 c 1,14,-1
 846 625 l 1,15,-1
 793 465 l 1,16,-1
 608 465 l 1,17,-1
 594 381 l 1,18,-1
 765 381 l 1,19,-1
 739 236 l 1,20,-1
 568 236 l 1,21,-1
 555 160 l 1,22,-1
 769 160 l 1,23,-1
 741 0 l 1,0,-1
257 416 m 2,24,-1
 211 156 l 1,25,-1
 290 156 l 2,26,27
 345.894736842 156 345.894736842 156 361 176.5 c 0,28,29
 368 186 368 186 372 202 c 1,30,-1
 419 469 l 1,31,-1
 339 469 l 2,32,33
 301 469 301 469 282 459.5 c 128,-1,34
 263 450 263 450 257 416 c 2,24,-1
EndSplineSet
EndChar

StartChar: Oacute
Encoding: 211 211 36
Width: 630
Flags: HMW
HStem: -15 171<211 290 290 303> 469 171<317 339 339 419> 829 20G<444 449.5>
LayerCount: 2
Fore
SplineSet
257 416 m 2,0,-1
 211 156 l 1,1,-1
 290 156 l 2,2,3
 329 156 329 156 348 165.5 c 128,-1,4
 367 175 367 175 373 209 c 2,5,-1
 419 469 l 1,6,-1
 339 469 l 2,7,8
 301 469 301 469 282 459.5 c 128,-1,9
 263 450 263 450 257 416 c 2,0,-1
372 640 m 0,10,11
 499 640 499 640 553 590.5 c 128,-1,12
 607 541 607 541 607 438 c 128,-1,13
 607 335 607 335 574.5 222.5 c 128,-1,14
 542 110 542 110 471.5 47.5 c 128,-1,15
 401 -15 401 -15 265.5 -15 c 128,-1,16
 130 -15 130 -15 76 34.5 c 128,-1,17
 22 84 22 84 22 187 c 0,18,19
 22 236 22 236 36 316.5 c 128,-1,20
 50 397 50 397 73 455.5 c 128,-1,21
 96 514 96 514 135 557 c 0,22,23
 210.279069767 640 210.279069767 640 372 640 c 0,10,11
461 684 m 2,24,-1
 287 649 l 1,25,-1
 246 706 l 1,26,-1
 435 845 l 2,27,28
 441 849 441 849 448 849 c 128,-1,29
 455 849 455 849 464 838 c 2,30,-1
 527 764 l 2,31,32
 536 753.5 536 753.5 536 747.25 c 128,-1,33
 536 741 536 741 533.5 737.5 c 128,-1,34
 531 734 531 734 487 696 c 0,35,36
 477 687 477 687 461 684 c 2,24,-1
EndSplineSet
EndChar

StartChar: Ocircumflex
Encoding: 212 212 37
Width: 630
Flags: HMW
HStem: -15 171<211 290 290 303> 469 171<317 339 339 419> 844 20G<398 443 443 446.5>
LayerCount: 2
Fore
SplineSet
257 416 m 2,0,-1
 211 156 l 1,1,-1
 290 156 l 2,2,3
 329 156 329 156 348 165.5 c 128,-1,4
 367 175 367 175 373 209 c 2,5,-1
 419 469 l 1,6,-1
 339 469 l 2,7,8
 301 469 301 469 282 459.5 c 128,-1,9
 263 450 263 450 257 416 c 2,0,-1
372 640 m 0,10,11
 499 640 499 640 553 590.5 c 128,-1,12
 607 541 607 541 607 438 c 128,-1,13
 607 335 607 335 574.5 222.5 c 128,-1,14
 542 110 542 110 471.5 47.5 c 128,-1,15
 401 -15 401 -15 265.5 -15 c 128,-1,16
 130 -15 130 -15 76 34.5 c 128,-1,17
 22 84 22 84 22 187 c 0,18,19
 22 236 22 236 36 316.5 c 128,-1,20
 50 397 50 397 73 455.5 c 128,-1,21
 96 514 96 514 135 557 c 0,22,23
 210.279069767 640 210.279069767 640 372 640 c 0,10,11
398 864 m 2,24,-1
 443 864 l 2,25,26
 451 864 451 864 456 855 c 2,27,-1
 539 710 l 1,28,-1
 473 661 l 1,29,-1
 395 724 l 1,30,-1
 296 661 l 1,31,-1
 248 710 l 1,32,-1
 380 855 l 2,33,34
 387.5 864 387.5 864 398 864 c 2,24,-1
EndSplineSet
EndChar

StartChar: Odieresis
Encoding: 214 214 38
Width: 630
Flags: HMW
HStem: -15 171<211 290 290 303> 469 171<317 339 339 419> 676 156<270 308.5 478 517>
VStem: 212 155<744.5 763.5> 420 155<744.5 763.5> 420 187
LayerCount: 2
Fore
SplineSet
257 416 m 2,0,-1
 211 156 l 1,1,-1
 290 156 l 2,2,3
 329 156 329 156 348 165.5 c 128,-1,4
 367 175 367 175 373 209 c 2,5,-1
 419 469 l 1,6,-1
 339 469 l 2,7,8
 301 469 301 469 282 459.5 c 128,-1,9
 263 450 263 450 257 416 c 2,0,-1
372 640 m 0,10,11
 499 640 499 640 553 590.5 c 128,-1,12
 607 541 607 541 607 438 c 128,-1,13
 607 335 607 335 574.5 222.5 c 128,-1,14
 542 110 542 110 471.5 47.5 c 128,-1,15
 401 -15 401 -15 265.5 -15 c 128,-1,16
 130 -15 130 -15 76 34.5 c 128,-1,17
 22 84 22 84 22 187 c 0,18,19
 22 236 22 236 36 316.5 c 128,-1,20
 50 397 50 397 73 455.5 c 128,-1,21
 96 514 96 514 135 557 c 0,22,23
 210.279069767 640 210.279069767 640 372 640 c 0,10,11
440.5 807.5 m 128,-1,25
 461 832 461 832 503.5 832 c 128,-1,26
 546 832 546 832 560.5 821 c 128,-1,27
 575 810 575 810 575 784 c 0,28,29
 575 725 575 725 554.5 700.5 c 128,-1,30
 534 676 534 676 491.5 676 c 128,-1,31
 449 676 449 676 434.5 687 c 128,-1,32
 420 698 420 698 420 724 c 0,33,24
 420 783 420 783 440.5 807.5 c 128,-1,25
232.5 807.5 m 128,-1,35
 253 832 253 832 295.5 832 c 128,-1,36
 338 832 338 832 352.5 821 c 128,-1,37
 367 810 367 810 367 784 c 0,38,39
 367 725 367 725 346 700.5 c 128,-1,40
 325 676 325 676 283 676 c 128,-1,41
 241 676 241 676 226.5 687 c 128,-1,42
 212 698 212 698 212 724 c 0,43,34
 212 783 212 783 232.5 807.5 c 128,-1,35
EndSplineSet
EndChar

StartChar: Ograve
Encoding: 210 210 39
Width: 630
Flags: HMW
HStem: -15 171<211 290 290 303> 469 171<317 339 339 419> 844 20G<334.5 340>
LayerCount: 2
Fore
SplineSet
257 416 m 2,0,-1
 211 156 l 1,1,-1
 290 156 l 2,2,3
 329 156 329 156 348 165.5 c 128,-1,4
 367 175 367 175 373 209 c 2,5,-1
 419 469 l 1,6,-1
 339 469 l 2,7,8
 301 469 301 469 282 459.5 c 128,-1,9
 263 450 263 450 257 416 c 2,0,-1
372 640 m 0,10,11
 499 640 499 640 553 590.5 c 128,-1,12
 607 541 607 541 607 438 c 128,-1,13
 607 335 607 335 574.5 222.5 c 128,-1,14
 542 110 542 110 471.5 47.5 c 128,-1,15
 401 -15 401 -15 265.5 -15 c 128,-1,16
 130 -15 130 -15 76 34.5 c 128,-1,17
 22 84 22 84 22 187 c 0,18,19
 22 236 22 236 36 316.5 c 128,-1,20
 50 397 50 397 73 455.5 c 128,-1,21
 96 514 96 514 135 557 c 0,22,23
 210.279069767 640 210.279069767 640 372 640 c 0,10,11
497 664 m 1,24,-1
 323 699 l 2,25,26
 307 702 307 702 297 711 c 2,27,-1
 252 750 l 1,28,29
 248 756 248 756 248 762.25 c 128,-1,30
 248 768.5 248 768.5 257 779 c 2,31,-1
 320 853 l 2,32,33
 329 864 329 864 336 864 c 128,-1,34
 343 864 343 864 349 860 c 2,35,-1
 538 721 l 1,36,-1
 497 664 l 1,24,-1
EndSplineSet
EndChar

StartChar: Oslash
Encoding: 216 216 40
Width: 630
Flags: HMW
HStem: -79 21G<38 109 38 38> -15 171<250 290 290 303> 469 171<317 339 339 378> 684 20G<520 591 591 591>
LayerCount: 2
Fore
SplineSet
232 620 m 128,-1,1
 290 640 290 640 352.5 640 c 128,-1,2
 415 640 415 640 451 634 c 1,3,-1
 477 679 l 2,4,5
 482 689 482 689 486 693 c 0,6,7
 497 704 497 704 520 704 c 2,8,-1
 591 704 l 1,9,-1
 533 605 l 1,10,11
 607 558 607 558 607 438 c 0,12,13
 607 335 607 335 574.5 222.5 c 128,-1,14
 542 110 542 110 471.5 47.5 c 128,-1,15
 401 -15 401 -15 257 -15 c 0,16,17
 213 -15 213 -15 178 -9 c 1,18,-1
 152 -54 l 2,19,20
 147 -64 147 -64 143 -68 c 0,21,22
 132 -79 132 -79 109 -79 c 2,23,-1
 38 -79 l 1,24,-1
 95 20 l 1,25,26
 22 66 22 66 22 187 c 0,27,28
 22 236 22 236 36 316.5 c 128,-1,29
 50 397 50 397 73 455.5 c 128,-1,30
 96 514 96 514 135 557 c 128,-1,0
 174 600 174 600 232 620 c 128,-1,1
250 156 m 1,31,-1
 290 156 l 2,32,33
 329 156 329 156 348 165.5 c 128,-1,34
 367 175 367 175 373 209 c 2,35,-1
 414 443 l 1,36,-1
 250 156 l 1,31,-1
257 416 m 2,37,-1
 216 186 l 1,38,-1
 378 469 l 1,39,-1
 339 469 l 2,40,41
 301 469 301 469 282 459.5 c 128,-1,42
 263 450 263 450 257 416 c 2,37,-1
EndSplineSet
EndChar

StartChar: Otilde
Encoding: 213 213 41
Width: 630
Flags: HMW
HStem: -15 171<211 290 290 303> 469 171<317 339 339 419> 825 20G<367 399>
LayerCount: 2
Fore
SplineSet
257 416 m 2,0,-1
 211 156 l 1,1,-1
 290 156 l 2,2,3
 329 156 329 156 348 165.5 c 128,-1,4
 367 175 367 175 373 209 c 2,5,-1
 419 469 l 1,6,-1
 339 469 l 2,7,8
 301 469 301 469 282 459.5 c 128,-1,9
 263 450 263 450 257 416 c 2,0,-1
372 640 m 0,10,11
 499 640 499 640 553 590.5 c 128,-1,12
 607 541 607 541 607 438 c 128,-1,13
 607 335 607 335 574.5 222.5 c 128,-1,14
 542 110 542 110 471.5 47.5 c 128,-1,15
 401 -15 401 -15 265.5 -15 c 128,-1,16
 130 -15 130 -15 76 34.5 c 128,-1,17
 22 84 22 84 22 187 c 0,18,19
 22 236 22 236 36 316.5 c 128,-1,20
 50 397 50 397 73 455.5 c 128,-1,21
 96 514 96 514 135 557 c 0,22,23
 210.279069767 640 210.279069767 640 372 640 c 0,10,11
458 800 m 1,24,-1
 544 840 l 1,25,-1
 577 759 l 1,26,27
 447.715959653 678.197474783 447.715959653 678.197474783 433.273558858 672.641380179 c 128,-1,28
 418.831158063 667.085285575 418.831158063 667.085285575 406.415579031 667.042642788 c 128,-1,29
 394 667 394 667 386 669 c 128,-1,30
 378 671 378 671 370 676.5 c 128,-1,31
 362 682 362 682 357 685.5 c 0,32,33
 348.666666667 691.333333333 348.666666667 691.333333333 328 712 c 1,34,-1
 243 672 l 1,35,-1
 209 753 l 1,36,37
 338.284040347 833.802525217 338.284040347 833.802525217 352.726441142 839.358619821 c 128,-1,38
 367.168841937 844.914714425 367.168841937 844.914714425 379.584420969 844.957357212 c 128,-1,39
 392 845 392 845 400 843 c 128,-1,40
 408 841 408 841 416 835.5 c 128,-1,41
 424 830 424 830 429 826.5 c 0,42,43
 437.333333333 820.666666667 437.333333333 820.666666667 458 800 c 1,24,-1
EndSplineSet
EndChar

StartChar: P
Encoding: 80 80 42
Width: 573
Flags: HMW
HStem: 0 21G<8 198 8 8> 151 160<252 296 296 315 252 348 224 296> 465 160<279 279 279 323>
LayerCount: 2
Fore
SplineSet
348 151 m 2,0,-1
 224 151 l 1,1,-1
 198 0 l 1,2,-1
 8 0 l 1,3,-1
 118 625 l 1,4,-1
 418 625 l 2,5,6
 588 625 588 625 588 467 c 0,7,8
 588 391.75 588 391.75 567 331.375 c 128,-1,9
 546 271 546 271 520.5 235.5 c 128,-1,10
 495 200 495 200 450.5 175.5 c 128,-1,11
 406 151 406 151 348 151 c 2,0,-1
279 465 m 1,12,-1
 252 311 l 1,13,-1
 296 311 l 2,14,15
 330 311 330 311 347.5 318.5 c 128,-1,16
 365 326 365 326 370 353 c 0,17,18
 383 427 383 427 383 434 c 0,19,20
 383 453 383 453 368 459 c 128,-1,21
 353 465 353 465 323 465 c 2,22,-1
 279 465 l 1,12,-1
EndSplineSet
EndChar

StartChar: Q
Encoding: 81 81 43
Width: 629
Flags: HMW
HStem: -50 21G<499 499> 0 156<210 245> 469 171<316 338 338 418>
LayerCount: 2
Fore
SplineSet
21 187 m 0,0,1
 21 236 21 236 35 316.5 c 128,-1,2
 49 397 49 397 72 455.5 c 128,-1,3
 95 514 95 514 134 557 c 0,4,5
 209.279069767 640 209.279069767 640 371 640 c 0,6,7
 497 640 497 640 551.5 589.5 c 128,-1,8
 606 539 606 539 606 439 c 128,-1,9
 606 339 606 339 577 247.5 c 128,-1,10
 548 156 548 156 507 107 c 1,11,-1
 569 65 l 1,12,-1
 499 -50 l 1,13,-1
 323 -15 l 1,14,-1
 330 23 l 1,15,-1
 245 0 l 1,16,17
 124 0 124 0 72.5 48.5 c 128,-1,18
 21 97 21 97 21 187 c 0,0,1
210 156 m 1,19,-1
 289 156 l 2,20,21
 328 156 328 156 347 165.5 c 128,-1,22
 366 175 366 175 372 209 c 2,23,-1
 418 469 l 1,24,-1
 338 469 l 2,25,26
 300 469 300 469 281 459.5 c 128,-1,27
 262 450 262 450 256 416 c 2,28,-1
 210 156 l 1,19,-1
EndSplineSet
EndChar

StartChar: R
Encoding: 82 82 44
Width: 599
Flags: HMW
HStem: 0 21G<8 198 8 8 317 526 317 317> 465 160<279 279 279 317>
LayerCount: 2
Fore
SplineSet
526 0 m 1,0,-1
 317 0 l 1,1,-1
 271 186 l 1,2,-1
 230 186 l 1,3,-1
 198 0 l 1,4,-1
 8 0 l 1,5,-1
 118 625 l 1,6,-1
 418 625 l 2,7,8
 589 625 589 625 589 472 c 0,9,10
 589 409.461538462 589 409.461538462 570 351.730769231 c 0,11,12
 534.648065173 244.315274949 534.648065173 244.315274949 460 208 c 1,13,-1
 526 0 l 1,0,-1
279 465 m 1,14,-1
 257 340 l 1,15,-1
 301 340 l 2,16,17
 335 340 335 340 352.5 347.5 c 128,-1,18
 370 355 370 355 376.5 390.5 c 128,-1,19
 383 426 383 426 383 434 c 0,20,21
 383 454 383 454 367.5 459.5 c 128,-1,22
 352 465 352 465 317 465 c 2,23,-1
 279 465 l 1,14,-1
EndSplineSet
EndChar

StartChar: S
Encoding: 83 83 45
Width: 575
Flags: HMW
HStem: -15 168<185 232 185 283.5> 470 170<345.5 389.5>
LayerCount: 2
Fore
SplineSet
-10 11 m 1,0,-1
 46 176 l 1,1,2
 130 153 130 153 200 153 c 128,-1,3
 270 153 270 153 313 159 c 1,4,-1
 321 209 l 1,5,-1
 238 217 l 2,6,7
 143 226 143 226 103.5 260 c 128,-1,8
 64 294 64 294 64 356 c 0,9,10
 64 383 64 383 70 416 c 0,11,12
 93 544 93 544 153.5 592 c 128,-1,13
 214 640 214 640 341 640 c 128,-1,14
 468 640 468 640 565 615 c 1,15,-1
 513 455 l 1,16,17
 426 470 426 470 373 470 c 128,-1,18
 320 470 320 470 283 465 c 1,19,-1
 275 416 l 1,20,-1
 342 409 l 2,21,22
 444 398 444 398 487 360.5 c 128,-1,23
 530 323 530 323 530 260 c 0,24,25
 530 195.827586207 530 195.827586207 502.5 128.5 c 0,26,27
 488 93 488 93 471.5 69.5 c 128,-1,28
 455 46 455 46 429.5 29.5 c 128,-1,29
 404 13 404 13 383 4.5 c 128,-1,30
 362 -4 362 -4 329.5 -8.5 c 0,31,32
 282.555555556 -15 282.555555556 -15 215 -15 c 0,33,34
 91 -15 91 -15 -10 11 c 1,0,-1
EndSplineSet
EndChar

StartChar: Scaron
Encoding: 352 352 46
Width: 575
Flags: HMW
HStem: -15 168<185 232 185 283.5> 470 170<345.5 389.5> 844 20G<308 308 485 485>
LayerCount: 2
Fore
SplineSet
-10 11 m 1,0,-1
 46 176 l 1,1,2
 130 153 130 153 200 153 c 128,-1,3
 270 153 270 153 313 159 c 1,4,-1
 321 209 l 1,5,-1
 238 217 l 2,6,7
 143 226 143 226 103.5 260 c 128,-1,8
 64 294 64 294 64 356 c 0,9,10
 64 383 64 383 70 416 c 0,11,12
 93 544 93 544 153.5 592 c 128,-1,13
 214 640 214 640 341 640 c 128,-1,14
 468 640 468 640 565 615 c 1,15,-1
 513 455 l 1,16,17
 426 470 426 470 373 470 c 128,-1,18
 320 470 320 470 283 465 c 1,19,-1
 275 416 l 1,20,-1
 342 409 l 2,21,22
 444 398 444 398 487 360.5 c 128,-1,23
 530 323 530 323 530 260 c 0,24,25
 530 195.827586207 530 195.827586207 502.5 128.5 c 0,26,27
 488 93 488 93 471.5 69.5 c 128,-1,28
 455 46 455 46 429.5 29.5 c 128,-1,29
 404 13 404 13 383 4.5 c 128,-1,30
 362 -4 362 -4 329.5 -8.5 c 0,31,32
 282.555555556 -15 282.555555556 -15 215 -15 c 0,33,34
 91 -15 91 -15 -10 11 c 1,0,-1
383 661 m 2,35,-1
 338 661 l 2,36,37
 331 661 331 661 324 670 c 1,38,-1
 242 815 l 1,39,-1
 308 864 l 1,40,-1
 385 801 l 1,41,-1
 485 864 l 1,42,-1
 533 815 l 1,43,-1
 400 670 l 2,44,45
 391 661 391 661 383 661 c 2,35,-1
EndSplineSet
EndChar

StartChar: T
Encoding: 84 84 47
Width: 500
Flags: HMW
HStem: 0 21G<100 290 100 100> 465 160<73 181 44 538 371 509 371 371>
LayerCount: 2
Fore
SplineSet
509 465 m 1,0,-1
 371 465 l 1,1,-1
 290 0 l 1,2,-1
 100 0 l 1,3,-1
 181 465 l 1,4,-1
 44 465 l 1,5,-1
 73 625 l 1,6,-1
 538 625 l 1,7,-1
 509 465 l 1,0,-1
EndSplineSet
EndChar

StartChar: Thorn
Encoding: 222 222 48
Width: 560
Flags: HMW
HStem: 0 21G<8 198 8 8> 76 160<239 283 283 302 239 335 211 283> 390 160<266 404 294 310> 605 20G<118 308 308 308>
LayerCount: 2
Fore
SplineSet
335 76 m 2,0,-1
 211 76 l 1,1,-1
 198 0 l 1,2,-1
 8 0 l 1,3,-1
 118 625 l 1,4,-1
 308 625 l 1,5,-1
 294 550 l 1,6,-1
 404 550 l 2,7,8
 575 550 575 550 575 391 c 0,9,10
 575 314.575757576 575 314.575757576 553.5 255.287878788 c 128,-1,11
 532 196 532 196 507 160.5 c 128,-1,12
 482 125 482 125 437 100.5 c 128,-1,13
 392 76 392 76 335 76 c 2,0,-1
266 390 m 1,14,-1
 239 236 l 1,15,-1
 283 236 l 2,16,17
 317 236 317 236 334.5 243.5 c 128,-1,18
 352 251 352 251 357 278 c 2,19,-1
 369 348 l 2,20,21
 370 352 370 352 370 359 c 0,22,23
 370 378 370 378 355 384 c 128,-1,24
 340 390 340 390 310 390 c 2,25,-1
 266 390 l 1,14,-1
EndSplineSet
EndChar

StartChar: U
Encoding: 85 85 49
Width: 607
Flags: HMW
HStem: -15 171<211 279 279 300.5 211 350.5> 605 20G<104 294 294 294 424 614 614 614>
LayerCount: 2
Fore
SplineSet
294 625 m 1,0,-1
 211 156 l 1,1,-1
 279 156 l 2,2,3
 314 156 314 156 329 165.5 c 128,-1,4
 344 175 344 175 350 209 c 2,5,-1
 424 625 l 1,6,-1
 614 625 l 1,7,-1
 552 274 l 2,8,9
 537 189 537 189 517.5 137 c 128,-1,10
 498 85 498 85 463 49 c 128,-1,11
 428 13 428 13 376.5 -1 c 128,-1,12
 325 -15 325 -15 246 -15 c 0,13,14
 125 -15 125 -15 76.5 21.5 c 128,-1,15
 28 58 28 58 28 147 c 0,16,17
 28 196 28 196 42 274 c 2,18,-1
 104 625 l 1,19,-1
 294 625 l 1,0,-1
EndSplineSet
EndChar

StartChar: Uacute
Encoding: 218 218 50
Width: 617
Flags: HMW
HStem: -15 171<216 284 284 305.5 216 355.5> 605 20G<109 299 299 299 429 619 619 619> 829 20G<440 445.5>
LayerCount: 2
Fore
SplineSet
299 625 m 1,0,-1
 216 156 l 1,1,-1
 284 156 l 2,2,3
 319 156 319 156 334 165.5 c 128,-1,4
 349 175 349 175 355 209 c 2,5,-1
 429 625 l 1,6,-1
 619 625 l 1,7,-1
 557 274 l 2,8,9
 542 189 542 189 522.5 137 c 128,-1,10
 503 85 503 85 468 49 c 128,-1,11
 433 13 433 13 381.5 -1 c 128,-1,12
 330 -15 330 -15 251 -15 c 0,13,14
 130 -15 130 -15 81.5 21.5 c 128,-1,15
 33 58 33 58 33 147 c 0,16,17
 33 196 33 196 47 274 c 2,18,-1
 109 625 l 1,19,-1
 299 625 l 1,0,-1
457 684 m 2,20,-1
 283 649 l 1,21,-1
 242 706 l 1,22,-1
 431 845 l 2,23,24
 437 849 437 849 444 849 c 0,25,26
 451 849 451 849 460 838 c 2,27,-1
 523 764 l 2,28,29
 532 753.5 532 753.5 532 747.25 c 0,30,31
 532 741 532 741 529.5 737.5 c 0,32,33
 527 734 527 734 483 696 c 0,34,35
 473 687 473 687 457 684 c 2,20,-1
EndSplineSet
EndChar

StartChar: Ucircumflex
Encoding: 219 219 51
Width: 617
Flags: HMW
HStem: -15 171<216 284 284 305.5 216 355.5> 605 20G<109 299 299 299 429 619 619 619> 844 20G<394 439 439 442.5>
LayerCount: 2
Fore
SplineSet
299 625 m 1,0,-1
 216 156 l 1,1,-1
 284 156 l 2,2,3
 319 156 319 156 334 165.5 c 128,-1,4
 349 175 349 175 355 209 c 2,5,-1
 429 625 l 1,6,-1
 619 625 l 1,7,-1
 557 274 l 2,8,9
 542 189 542 189 522.5 137 c 128,-1,10
 503 85 503 85 468 49 c 128,-1,11
 433 13 433 13 381.5 -1 c 128,-1,12
 330 -15 330 -15 251 -15 c 0,13,14
 130 -15 130 -15 81.5 21.5 c 128,-1,15
 33 58 33 58 33 147 c 0,16,17
 33 196 33 196 47 274 c 2,18,-1
 109 625 l 1,19,-1
 299 625 l 1,0,-1
394 864 m 2,20,-1
 439 864 l 2,21,22
 447 864 447 864 452 855 c 2,23,-1
 535 710 l 1,24,-1
 469 661 l 1,25,-1
 391 724 l 1,26,-1
 292 661 l 1,27,-1
 244 710 l 1,28,-1
 376 855 l 2,29,30
 383.5 864 383.5 864 394 864 c 2,20,-1
EndSplineSet
EndChar

StartChar: Udieresis
Encoding: 220 220 52
Width: 617
Flags: HMW
HStem: -15 171<216 284 284 305.5 216 355.5> 605 20G<109 299 299 299 429 619 619 619> 676 156<265 303.5 473 512>
VStem: 207 155<744.5 763.5> 415 155<744.5 763.5>
LayerCount: 2
Fore
SplineSet
299 625 m 1,0,-1
 216 156 l 1,1,-1
 284 156 l 2,2,3
 319 156 319 156 334 165.5 c 128,-1,4
 349 175 349 175 355 209 c 2,5,-1
 429 625 l 1,6,-1
 619 625 l 1,7,-1
 557 274 l 2,8,9
 542 189 542 189 522.5 137 c 128,-1,10
 503 85 503 85 468 49 c 128,-1,11
 433 13 433 13 381.5 -1 c 128,-1,12
 330 -15 330 -15 251 -15 c 0,13,14
 130 -15 130 -15 81.5 21.5 c 128,-1,15
 33 58 33 58 33 147 c 0,16,17
 33 196 33 196 47 274 c 2,18,-1
 109 625 l 1,19,-1
 299 625 l 1,0,-1
435.5 807.5 m 128,-1,21
 456 832 456 832 498.5 832 c 128,-1,22
 541 832 541 832 555.5 821 c 128,-1,23
 570 810 570 810 570 784 c 0,24,25
 570 725 570 725 549.5 700.5 c 128,-1,26
 529 676 529 676 486.5 676 c 128,-1,27
 444 676 444 676 429.5 687 c 128,-1,28
 415 698 415 698 415 724 c 0,29,20
 415 783 415 783 435.5 807.5 c 128,-1,21
227.5 807.5 m 128,-1,31
 248 832 248 832 290.5 832 c 128,-1,32
 333 832 333 832 347.5 821 c 128,-1,33
 362 810 362 810 362 784 c 0,34,35
 362 725 362 725 341 700.5 c 128,-1,36
 320 676 320 676 278 676 c 128,-1,37
 236 676 236 676 221.5 687 c 128,-1,38
 207 698 207 698 207 724 c 0,39,30
 207 783 207 783 227.5 807.5 c 128,-1,31
EndSplineSet
EndChar

StartChar: Ugrave
Encoding: 217 217 53
Width: 617
Flags: HMW
HStem: -15 171<216 284 284 305.5 216 355.5> 605 20G<109 299 299 299 429 619 619 619> 844 20G<331.5 337>
LayerCount: 2
Fore
SplineSet
299 625 m 1,0,-1
 216 156 l 1,1,-1
 284 156 l 2,2,3
 319 156 319 156 334 165.5 c 128,-1,4
 349 175 349 175 355 209 c 2,5,-1
 429 625 l 1,6,-1
 619 625 l 1,7,-1
 557 274 l 2,8,9
 542 189 542 189 522.5 137 c 128,-1,10
 503 85 503 85 468 49 c 128,-1,11
 433 13 433 13 381.5 -1 c 128,-1,12
 330 -15 330 -15 251 -15 c 0,13,14
 130 -15 130 -15 81.5 21.5 c 128,-1,15
 33 58 33 58 33 147 c 0,16,17
 33 196 33 196 47 274 c 2,18,-1
 109 625 l 1,19,-1
 299 625 l 1,0,-1
494 664 m 1,20,-1
 320 699 l 2,21,22
 304 702 304 702 294 711 c 2,23,-1
 249 750 l 1,24,25
 245 756 245 756 245 762.25 c 0,26,27
 245 768.5 245 768.5 254 779 c 2,28,-1
 317 853 l 2,29,30
 326 864 326 864 333 864 c 0,31,32
 340 864 340 864 346 860 c 2,33,-1
 535 721 l 1,34,-1
 494 664 l 1,20,-1
EndSplineSet
EndChar

StartChar: V
Encoding: 86 86 54
Width: 582
Flags: HMW
HStem: 0 21G<97 375 97 97> 605 20G<60 271 271 271 431 632 632 632>
VStem: 78 193
LayerCount: 2
Fore
SplineSet
431 625 m 1,0,-1
 632 625 l 1,1,-1
 375 0 l 1,2,-1
 97 0 l 1,3,-1
 60 625 l 1,4,-1
 271 625 l 1,5,-1
 271 228 l 1,6,-1
 280 228 l 1,7,-1
 431 625 l 1,0,-1
EndSplineSet
EndChar

StartChar: W
Encoding: 87 87 55
Width: 800
Flags: HMW
HStem: 0 21G<60 291 60 60 385 637 385 385> 605 20G<60 259 259 259 377 528 528 528 641 840 840 840>
VStem: 60 190
LayerCount: 2
Fore
SplineSet
641 625 m 1,0,-1
 840 625 l 1,1,-1
 637 0 l 1,2,-1
 385 0 l 1,3,-1
 385 230 l 1,4,-1
 374 230 l 1,5,-1
 291 0 l 1,6,-1
 60 0 l 1,7,-1
 60 625 l 1,8,-1
 259 625 l 1,9,-1
 241 276 l 1,10,-1
 247 276 l 1,11,-1
 377 625 l 1,12,-1
 528 625 l 1,13,-1
 528 276 l 1,14,-1
 534 276 l 1,15,-1
 641 625 l 1,0,-1
EndSplineSet
EndChar

StartChar: X
Encoding: 88 88 56
Width: 572
Flags: HMW
HStem: 0 21G<-50 151 -50 -50 301 512 301 301> 605 20G<60 276 276 276 416 622 622 622>
LayerCount: 2
Fore
SplineSet
276 625 m 1,0,-1
 311 458 l 1,1,-1
 321 458 l 1,2,-1
 416 625 l 1,3,-1
 622 625 l 1,4,-1
 436 323 l 1,5,-1
 512 0 l 1,6,-1
 301 0 l 1,7,-1
 261 180 l 1,8,-1
 253 180 l 1,9,-1
 151 0 l 1,10,-1
 -50 0 l 1,11,-1
 134 317 l 1,12,-1
 60 625 l 1,13,-1
 276 625 l 1,0,-1
EndSplineSet
EndChar

StartChar: Y
Encoding: 89 89 57
Width: 481
Flags: HMW
HStem: 0 21G<91 281 91 91> 605 20G<30 240 240 240 352 562 562 562>
LayerCount: 2
Fore
SplineSet
240 625 m 1,0,-1
 253 405 l 1,1,-1
 260 405 l 1,2,-1
 352 625 l 1,3,-1
 562 625 l 1,4,-1
 310 170 l 1,5,-1
 281 0 l 1,6,-1
 91 0 l 1,7,-1
 120 170 l 1,8,-1
 30 625 l 1,9,-1
 240 625 l 1,0,-1
EndSplineSet
EndChar

StartChar: Yacute
Encoding: 221 221 58
Width: 520
Flags: HMW
HStem: 0 21G<110 300 110 110> 605 20G<49 259 259 259 371 581 581 581> 843 20G<392 397.5>
LayerCount: 2
Fore
SplineSet
259 625 m 1,0,-1
 272 405 l 1,1,-1
 279 405 l 1,2,-1
 371 625 l 1,3,-1
 581 625 l 1,4,-1
 329 170 l 1,5,-1
 300 0 l 1,6,-1
 110 0 l 1,7,-1
 139 170 l 1,8,-1
 49 625 l 1,9,-1
 259 625 l 1,0,-1
409 698 m 2,10,-1
 235 663 l 1,11,-1
 194 720 l 1,12,-1
 383 859 l 2,13,14
 389 863 389 863 396 863 c 0,15,16
 403 863 403 863 412 852 c 2,17,-1
 475 778 l 2,18,19
 484 767.5 484 767.5 484 761.25 c 0,20,21
 484 755 484 755 481.5 751.5 c 0,22,23
 479 748 479 748 435 710 c 0,24,25
 425 701 425 701 409 698 c 2,10,-1
EndSplineSet
EndChar

StartChar: Ydieresis
Encoding: 376 376 59
Width: 520
Flags: HMW
HStem: 0 21G<110 300 110 110> 605 20G<49 259 259 259 371 581 581 581> 676 156<215 253.5 423 462>
VStem: 157 155<744.5 763.5> 365 155<744.5 763.5>
LayerCount: 2
Fore
SplineSet
259 625 m 1,0,-1
 272 405 l 1,1,-1
 279 405 l 1,2,-1
 371 625 l 1,3,-1
 581 625 l 1,4,-1
 329 170 l 1,5,-1
 300 0 l 1,6,-1
 110 0 l 1,7,-1
 139 170 l 1,8,-1
 49 625 l 1,9,-1
 259 625 l 1,0,-1
385.5 807.5 m 128,-1,11
 406 832 406 832 448.5 832 c 128,-1,12
 491 832 491 832 505.5 821 c 128,-1,13
 520 810 520 810 520 784 c 0,14,15
 520 725 520 725 499.5 700.5 c 128,-1,16
 479 676 479 676 436.5 676 c 128,-1,17
 394 676 394 676 379.5 687 c 128,-1,18
 365 698 365 698 365 724 c 0,19,10
 365 783 365 783 385.5 807.5 c 128,-1,11
177.5 807.5 m 128,-1,21
 198 832 198 832 240.5 832 c 128,-1,22
 283 832 283 832 297.5 821 c 128,-1,23
 312 810 312 810 312 784 c 0,24,25
 312 725 312 725 291 700.5 c 128,-1,26
 270 676 270 676 228 676 c 128,-1,27
 186 676 186 676 171.5 687 c 128,-1,28
 157 698 157 698 157 724 c 0,29,20
 157 783 157 783 177.5 807.5 c 128,-1,21
EndSplineSet
EndChar

StartChar: Z
Encoding: 90 90 60
Width: 548
Flags: HMW
HStem: 0 160<248 462> 465 160<83 271 72 568>
LayerCount: 2
Fore
SplineSet
462 0 m 1,0,-1
 -50 0 l 1,1,-1
 -28 125 l 1,2,-1
 273 459 l 1,3,-1
 271 465 l 1,4,-1
 72 465 l 1,5,-1
 83 625 l 1,6,-1
 568 625 l 1,7,-1
 546 500 l 1,8,-1
 247 166 l 1,9,-1
 248 160 l 1,10,-1
 490 160 l 1,11,-1
 462 0 l 1,0,-1
EndSplineSet
EndChar

StartChar: Zcaron
Encoding: 381 381 61
Width: 548
Flags: HMW
HStem: 0 160<248 462> 465 160<83 271 72 568> 844 20G<273 273 450 450>
LayerCount: 2
Fore
SplineSet
462 0 m 1,0,-1
 -50 0 l 1,1,-1
 -28 125 l 1,2,-1
 273 459 l 1,3,-1
 271 465 l 1,4,-1
 72 465 l 1,5,-1
 83 625 l 1,6,-1
 568 625 l 1,7,-1
 546 500 l 1,8,-1
 247 166 l 1,9,-1
 248 160 l 1,10,-1
 490 160 l 1,11,-1
 462 0 l 1,0,-1
348 661 m 2,12,-1
 303 661 l 2,13,14
 296 661 296 661 289 670 c 1,15,-1
 207 815 l 1,16,-1
 273 864 l 1,17,-1
 350 801 l 1,18,-1
 450 864 l 1,19,-1
 498 815 l 1,20,-1
 365 670 l 2,21,22
 356 661 356 661 348 661 c 2,12,-1
EndSplineSet
EndChar

StartChar: aacute
Encoding: 225 225 62
Width: 587
Flags: HMW
HStem: -15 21G<129.5 231.5> 0 21G<387 482 387 387> 495 20G<220 363> 719 20G<424 429.5>
LayerCount: 2
Fore
SplineSet
565 475 m 1,0,-1
 482 0 l 1,1,-1
 387 0 l 1,2,-1
 342 57 l 1,3,4
 310 22 310 22 277.5 3.5 c 128,-1,5
 245 -15 245 -15 194 -15 c 0,6,7
 104 -15 104 -15 65.5 35 c 128,-1,8
 27 85 27 85 27 165 c 0,9,10
 27 308 27 308 103.5 411.5 c 128,-1,11
 180 515 180 515 316 515 c 0,12,13
 431 515 431 515 565 475 c 1,0,-1
254 327 m 2,14,-1
 220 131 l 1,15,-1
 249 131 l 2,16,17
 271 131 271 131 283 132.5 c 128,-1,18
 295 134 295 134 306.5 142.5 c 128,-1,19
 318 151 318 151 321 167 c 2,20,-1
 357 369 l 1,21,-1
 327 369 l 2,22,23
 293 369 293 369 276 361.5 c 128,-1,24
 259 354 259 354 254 327 c 2,14,-1
441 574 m 2,25,-1
 267 539 l 1,26,-1
 226 596 l 1,27,-1
 415 735 l 2,28,29
 421 739 421 739 428 739 c 0,30,31
 435 739 435 739 444 728 c 2,32,-1
 507 654 l 2,33,34
 516 643.5 516 643.5 516 637.25 c 0,35,36
 516 631 516 631 513.5 627.5 c 0,37,38
 511 624 511 624 467 586 c 0,39,40
 457 577 457 577 441 574 c 2,25,-1
EndSplineSet
EndChar

StartChar: acircumflex
Encoding: 226 226 63
Width: 587
Flags: HMW
HStem: -15 21G<129.5 231.5> 0 21G<387 482 387 387> 495 20G<220 363> 720 20G<375 420 420 423.5>
LayerCount: 2
Fore
SplineSet
375 740 m 2,0,-1
 420 740 l 2,1,2
 428 740 428 740 433 731 c 2,3,-1
 516 586 l 1,4,-1
 450 537 l 1,5,-1
 372 600 l 1,6,-1
 273 537 l 1,7,-1
 225 586 l 1,8,-1
 357 731 l 2,9,10
 364.5 740 364.5 740 375 740 c 2,0,-1
565 475 m 1,11,-1
 482 0 l 1,12,-1
 387 0 l 1,13,-1
 342 57 l 1,14,15
 310 22 310 22 277.5 3.5 c 128,-1,16
 245 -15 245 -15 194 -15 c 0,17,18
 104 -15 104 -15 65.5 35 c 128,-1,19
 27 85 27 85 27 165 c 0,20,21
 27 308 27 308 103.5 411.5 c 128,-1,22
 180 515 180 515 316 515 c 0,23,24
 431 515 431 515 565 475 c 1,11,-1
254 327 m 2,25,-1
 220 131 l 1,26,-1
 249 131 l 2,27,28
 271 131 271 131 283 132.5 c 128,-1,29
 295 134 295 134 306.5 142.5 c 128,-1,30
 318 151 318 151 321 167 c 2,31,-1
 357 369 l 1,32,-1
 327 369 l 2,33,34
 293 369 293 369 276 361.5 c 128,-1,35
 259 354 259 354 254 327 c 2,25,-1
EndSplineSet
EndChar

StartChar: acute
Encoding: 180 180 64
Width: 429
Flags: HMW
HStem: 539 21G<111 111> 719 20G<268 273.5>
LayerCount: 2
Fore
SplineSet
285 574 m 2,0,-1
 111 539 l 1,1,-1
 70 596 l 1,2,-1
 259 735 l 2,3,4
 265 739 265 739 272 739 c 0,5,6
 279 739 279 739 288 728 c 2,7,-1
 351 654 l 2,8,9
 360 643.5 360 643.5 360 637.25 c 0,10,11
 360 631 360 631 357.5 627.5 c 0,12,13
 355 624 355 624 311 586 c 0,14,15
 301 577 301 577 285 574 c 2,0,-1
EndSplineSet
EndChar

StartChar: adieresis
Encoding: 228 228 65
Width: 587
Flags: HMW
HStem: -15 21G<129.5 231.5> 0 21G<387 482 387 387> 495 20G<220 363> 552 156<245 283.5 453 492>
VStem: 187 155<620.5 639.5> 395 155<620.5 639.5>
LayerCount: 2
Fore
SplineSet
415.5 683.5 m 128,-1,1
 436 708 436 708 478.5 708 c 128,-1,2
 521 708 521 708 535.5 697 c 128,-1,3
 550 686 550 686 550 660 c 0,4,5
 550 601 550 601 529.5 576.5 c 128,-1,6
 509 552 509 552 466.5 552 c 128,-1,7
 424 552 424 552 409.5 563 c 128,-1,8
 395 574 395 574 395 600 c 0,9,0
 395 659 395 659 415.5 683.5 c 128,-1,1
207.5 683.5 m 128,-1,11
 228 708 228 708 270.5 708 c 128,-1,12
 313 708 313 708 327.5 697 c 128,-1,13
 342 686 342 686 342 660 c 0,14,15
 342 601 342 601 321 576.5 c 128,-1,16
 300 552 300 552 258 552 c 128,-1,17
 216 552 216 552 201.5 563 c 128,-1,18
 187 574 187 574 187 600 c 0,19,10
 187 659 187 659 207.5 683.5 c 128,-1,11
565 475 m 1,20,-1
 482 0 l 1,21,-1
 387 0 l 1,22,-1
 342 57 l 1,23,24
 310 22 310 22 277.5 3.5 c 128,-1,25
 245 -15 245 -15 194 -15 c 0,26,27
 104 -15 104 -15 65.5 35 c 128,-1,28
 27 85 27 85 27 165 c 0,29,30
 27 308 27 308 103.5 411.5 c 128,-1,31
 180 515 180 515 316 515 c 0,32,33
 431 515 431 515 565 475 c 1,20,-1
254 327 m 2,34,-1
 220 131 l 1,35,-1
 249 131 l 2,36,37
 271 131 271 131 283 132.5 c 128,-1,38
 295 134 295 134 306.5 142.5 c 128,-1,39
 318 151 318 151 321 167 c 2,40,-1
 357 369 l 1,41,-1
 327 369 l 2,42,43
 293 369 293 369 276 361.5 c 128,-1,44
 259 354 259 354 254 327 c 2,34,-1
EndSplineSet
EndChar

StartChar: agrave
Encoding: 224 224 66
Width: 587
Flags: HMW
HStem: -15 21G<129.5 231.5> 0 21G<387 482 387 387> 495 20G<220 363> 719 20G<312.5 318>
LayerCount: 2
Fore
SplineSet
475 539 m 1,0,-1
 301 574 l 2,1,2
 285 577 285 577 275 586 c 2,3,-1
 230 625 l 1,4,5
 226 631 226 631 226 637.25 c 0,6,7
 226 643.5 226 643.5 235 654 c 2,8,-1
 298 728 l 2,9,10
 307 739 307 739 314 739 c 0,11,12
 321 739 321 739 327 735 c 2,13,-1
 516 596 l 1,14,-1
 475 539 l 1,0,-1
565 475 m 1,15,-1
 482 0 l 1,16,-1
 387 0 l 1,17,-1
 342 57 l 1,18,19
 310 22 310 22 277.5 3.5 c 128,-1,20
 245 -15 245 -15 194 -15 c 0,21,22
 104 -15 104 -15 65.5 35 c 128,-1,23
 27 85 27 85 27 165 c 0,24,25
 27 308 27 308 103.5 411.5 c 128,-1,26
 180 515 180 515 316 515 c 0,27,28
 431 515 431 515 565 475 c 1,15,-1
254 327 m 2,29,-1
 220 131 l 1,30,-1
 249 131 l 2,31,32
 271 131 271 131 283 132.5 c 128,-1,33
 295 134 295 134 306.5 142.5 c 128,-1,34
 318 151 318 151 321 167 c 2,35,-1
 357 369 l 1,36,-1
 327 369 l 2,37,38
 293 369 293 369 276 361.5 c 128,-1,39
 259 354 259 354 254 327 c 2,29,-1
EndSplineSet
EndChar

StartChar: ampersand
Encoding: 38 38 67
Width: 664
Flags: HMW
HStem: -115 21G<363 363> -15 158<133.5 303.5> 242 140<307 363 252 655 543 609 543 543> 462 163<358.5 371 282.5 378 282.5 462>
LayerCount: 2
Fore
SplineSet
363 -115 m 1,0,-1
 363 21 l 1,1,2
 242 -15 242 -15 173 -15 c 0,3,4
 35 -15 35 -15 35 119 c 0,5,6
 35 198.352941176 35 198.352941176 67 268 c 0,7,8
 84 305 84 305 116 331 c 128,-1,9
 148 357 148 357 192 363 c 1,10,-1
 192 367 l 1,11,-1
 116 396 l 1,12,13
 140 529 140 529 193.5 577 c 128,-1,14
 247 625 247 625 336 625 c 128,-1,15
 425 625 425 625 516 604 c 1,16,-1
 462 462 l 1,17,-1
 378 462 l 2,18,19
 347 462 347 462 332 453.5 c 128,-1,20
 317 445 317 445 313 420 c 2,21,-1
 307 382 l 1,22,-1
 655 382 l 1,23,-1
 609 242 l 1,24,-1
 543 242 l 1,25,-1
 483 -100 l 1,26,-1
 363 -115 l 1,0,-1
293 143 m 0,27,28
 329 143 329 143 363 148 c 1,29,-1
 363 242 l 1,30,-1
 252 242 l 1,31,32
 241 202 241 202 241 180 c 0,33,34
 241 143 241 143 293 143 c 0,27,28
EndSplineSet
EndChar

StartChar: aring
Encoding: 229 229 68
Width: 587
Flags: HMW
HStem: -15 21G<129.5 231.5> 0 21G<387 482 387 387> 495 20G<220 363> 738 20G<349.5 425>
VStem: 258 227<628 657>
LayerCount: 2
Fore
SplineSet
565 475 m 1,0,-1
 482 0 l 1,1,-1
 387 0 l 1,2,-1
 342 57 l 1,3,4
 310 22 310 22 277.5 3.5 c 128,-1,5
 245 -15 245 -15 194 -15 c 0,6,7
 104 -15 104 -15 65.5 35 c 128,-1,8
 27 85 27 85 27 165 c 0,9,10
 27 308 27 308 103.5 411.5 c 128,-1,11
 180 515 180 515 316 515 c 0,12,13
 431 515 431 515 565 475 c 1,0,-1
254 327 m 2,14,-1
 220 131 l 1,15,-1
 249 131 l 2,16,17
 271 131 271 131 283 132.5 c 128,-1,18
 295 134 295 134 306.5 142.5 c 128,-1,19
 318 151 318 151 321 167 c 2,20,-1
 357 369 l 1,21,-1
 327 369 l 2,22,23
 293 369 293 369 276 361.5 c 128,-1,24
 259 354 259 354 254 327 c 2,14,-1
335 664 m 2,25,-1
 323 596 l 1,26,-1
 363 596 l 2,27,28
 389.833333333 596 389.833333333 596 397.416666667 603 c 128,-1,29
 405 610 405 610 407 622 c 2,30,-1
 419 689 l 1,31,-1
 382 689 l 2,32,33
 353.333333333 689 353.333333333 689 345.166666667 682 c 128,-1,34
 337 675 337 675 335 664 c 2,25,-1
392 758 m 0,35,36
 485 758 485 758 485 678 c 0,37,38
 485 604 485 604 450 565.5 c 128,-1,39
 415 527 415 527 351 527 c 0,40,41
 258 527 258 527 258 607 c 0,42,43
 258 681 258 681 293 719.5 c 128,-1,44
 328 758 328 758 392 758 c 0,35,36
EndSplineSet
EndChar

StartChar: asterisk
Encoding: 42 42 69
Width: 536
Flags: HMW
HStem: 204 21G<294 301.5> 205 21G<139.5 146.5> 645 20G<265 337 337 346.5>
LayerCount: 2
Fore
SplineSet
357 580 m 1,0,-1
 313 491 l 1,1,-1
 395 548 l 1,2,-1
 449 564 l 2,3,4
 452 565 452 565 457 565 c 0,5,6
 475 565 475 565 480 538 c 1,7,-1
 490 467 l 2,8,9
 491 462 491 462 491 453 c 0,10,11
 491 427 491 427 470 422 c 2,12,-1
 413 406 l 1,13,-1
 323 406 l 1,14,-1
 387 351 l 1,15,-1
 411 304 l 2,16,17
 413 300 413 300 413 288 c 0,18,19
 413 276 413 276 389 260 c 2,20,-1
 325 216 l 2,21,22
 308.5 204 308.5 204 297.75 204 c 0,23,24
 287 204 287 204 280 215 c 2,25,-1
 249 263 l 1,26,-1
 242 345 l 1,27,-1
 203 262 l 1,28,-1
 163 216 l 2,29,30
 154 205 154 205 142.5 205 c 0,31,32
 131 205 131 205 119 216 c 2,33,-1
 68 260 l 2,34,35
 53 272 53 272 53 283.5 c 0,36,37
 53 295 53 295 62 304 c 2,38,-1
 103 351 l 1,39,-1
 182 404 l 1,40,-1
 96 404 l 1,41,-1
 47 422 l 2,42,43
 33 427 33 427 33 438.5 c 0,44,45
 33 450 33 450 41 466 c 2,46,-1
 75 538 l 2,47,48
 89 567 89 567 105 567 c 0,49,50
 107 567 107 567 115 565 c 2,51,-1
 166 547 l 1,52,-1
 226 492 l 1,53,-1
 214 580 l 1,54,-1
 224 638 l 2,55,56
 228 665 228 665 265 665 c 2,57,-1
 337 665 l 2,58,59
 367 665 367 665 367 644 c 0,60,61
 367 640 367 640 357 580 c 1,0,-1
EndSplineSet
EndChar

StartChar: at
Encoding: 64 64 70
Width: 867
Flags: HMW
HStem: -165 115<277 588> -9 21G<397.5 463.5> 0 21G<651 746 651 651> 433 167<442 518.5>
VStem: 30 194<5 61 5 101>
LayerCount: 2
Fore
SplineSet
492 187 m 2,0,-1
 483 131 l 1,1,-1
 514 131 l 2,2,3
 546 131 546 131 562.5 137.5 c 128,-1,4
 579 144 579 144 585 167 c 1,5,-1
 596 229 l 1,6,-1
 566 229 l 2,7,8
 532 229 532 229 514 221.5 c 128,-1,9
 496 214 496 214 492 187 c 2,0,-1
39 176 m 2,10,-1
 53 259 l 2,11,12
 69 356 69 356 111.5 425 c 128,-1,13
 154 494 154 494 217 531 c 0,14,15
 334.486486486 600 334.486486486 600 502.243243243 600 c 128,-1,16
 670 600 670 600 745.5 562.5 c 128,-1,17
 821 525 821 525 821 445 c 0,18,19
 821 433 821 433 817 407 c 2,20,-1
 746 0 l 1,21,-1
 651 0 l 1,22,-1
 608 63 l 1,23,24
 538 -9 538 -9 428 -9 c 0,25,26
 307 -9 307 -9 307 108 c 0,27,28
 307 232 307 232 379.5 291 c 128,-1,29
 452 350 452 350 579 350 c 2,30,-1
 617 350 l 1,31,-1
 630 423 l 1,32,33
 583 433 583 433 519.5 433 c 128,-1,34
 456 433 456 433 431.5 431.5 c 128,-1,35
 407 430 407 430 375.5 422 c 128,-1,36
 344 414 344 414 324 399.5 c 0,37,38
 276.468680914 365.039793662 276.468680914 365.039793662 263 290 c 2,39,-1
 228 93 l 2,40,41
 224 74 224 74 224 50 c 128,-1,42
 224 26 224 26 235 5.5 c 128,-1,43
 246 -15 246 -15 261.5 -25.5 c 128,-1,44
 277 -36 277 -36 304 -42 c 0,45,46
 340 -50 340 -50 409 -50 c 2,47,-1
 588 -50 l 1,48,-1
 571 -144 l 1,49,50
 468 -165 468 -165 391 -165 c 128,-1,51
 314 -165 314 -165 264 -157.5 c 128,-1,52
 214 -150 214 -150 169.5 -132.5 c 128,-1,53
 125 -115 125 -115 95 -86.5 c 0,54,55
 30 -24.75 30 -24.75 30 88 c 0,56,57
 30 118 30 118 39 176 c 2,10,-1
EndSplineSet
EndChar

StartChar: atilde
Encoding: 227 227 71
Width: 587
Flags: HMW
HStem: -15 21G<129.5 231.5> 0 21G<387 482 387 387> 495 20G<220 363> 701 20G<343 375>
LayerCount: 2
Fore
SplineSet
565 475 m 1,0,-1
 482 0 l 1,1,-1
 387 0 l 1,2,-1
 342 57 l 1,3,4
 310 22 310 22 277.5 3.5 c 128,-1,5
 245 -15 245 -15 194 -15 c 0,6,7
 104 -15 104 -15 65.5 35 c 128,-1,8
 27 85 27 85 27 165 c 0,9,10
 27 308 27 308 103.5 411.5 c 128,-1,11
 180 515 180 515 316 515 c 0,12,13
 431 515 431 515 565 475 c 1,0,-1
254 327 m 2,14,-1
 220 131 l 1,15,-1
 249 131 l 2,16,17
 271 131 271 131 283 132.5 c 128,-1,18
 295 134 295 134 306.5 142.5 c 128,-1,19
 318 151 318 151 321 167 c 2,20,-1
 357 369 l 1,21,-1
 327 369 l 2,22,23
 293 369 293 369 276 361.5 c 128,-1,24
 259 354 259 354 254 327 c 2,14,-1
434 676 m 1,25,-1
 520 716 l 1,26,-1
 553 635 l 1,27,28
 423.715959653 554.197474783 423.715959653 554.197474783 409.273558858 548.641380179 c 128,-1,29
 394.831158063 543.085285575 394.831158063 543.085285575 382.415579031 543.042642788 c 128,-1,30
 370 543 370 543 362 545 c 128,-1,31
 354 547 354 547 346 552.5 c 128,-1,32
 338 558 338 558 333 561.5 c 0,33,34
 324.666666667 567.333333333 324.666666667 567.333333333 304 588 c 1,35,-1
 219 548 l 1,36,-1
 185 629 l 1,37,38
 314.284040347 709.802525217 314.284040347 709.802525217 328.726441142 715.358619821 c 128,-1,39
 343.168841937 720.914714425 343.168841937 720.914714425 355.584420969 720.957357212 c 128,-1,40
 368 721 368 721 376 719 c 128,-1,41
 384 717 384 717 392 711.5 c 128,-1,42
 400 706 400 706 405 702.5 c 0,43,44
 413.333333333 696.666666667 413.333333333 696.666666667 434 676 c 1,25,-1
EndSplineSet
EndChar

StartChar: b
Encoding: 98 98 72
Width: 592
Flags: HMW
HStem: -15 21G<229 371> 495 20G<372 455> 645 20G<323 323>
LayerCount: 2
Fore
SplineSet
20 25 m 1,0,-1
 130 650 l 1,1,-1
 323 665 l 1,2,-1
 293 499 l 1,3,4
 332 515 332 515 391 515 c 0,5,6
 557 515 557 515 557 331 c 0,7,8
 557 128.939393939 557 128.939393939 433 35 c 0,9,10
 367 -15 367 -15 272 -15 c 0,11,12
 128 -15 128 -15 20 25 c 1,0,-1
264 332 m 1,13,-1
 229 131 l 1,14,-1
 259 131 l 2,15,16
 293 131 293 131 309.5 138.5 c 128,-1,17
 326 146 326 146 331 173 c 2,18,-1
 366 369 l 1,19,-1
 337 369 l 2,20,21
 296.411764706 369 296.411764706 369 282.205882353 358.5 c 128,-1,22
 268 348 268 348 264 332 c 1,13,-1
EndSplineSet
EndChar

StartChar: backslash
Encoding: 92 92 73
Width: 503
Flags: HMW
HStem: -40 21G<418 432 432 503> 645 20G<0 71 71 85>
LayerCount: 2
Fore
SplineSet
389 -15 m 2,0,-1
 0 665 l 1,1,-1
 71 665 l 2,2,3
 90 665 90 665 98 659.5 c 128,-1,4
 106 654 106 654 114 640 c 2,5,-1
 503 -40 l 1,6,-1
 432 -40 l 2,7,8
 413 -40 413 -40 405 -34.5 c 128,-1,9
 397 -29 397 -29 389 -15 c 2,0,-1
EndSplineSet
EndChar

StartChar: bar
Encoding: 124 124 74
Width: 420
Flags: HMW
HStem: -180 21G<67 67 67 181> 684 20G<223 337 337 337>
LayerCount: 2
Fore
SplineSet
67 -180 m 1,0,-1
 223 704 l 1,1,-1
 337 704 l 1,2,-1
 181 -180 l 1,3,-1
 67 -180 l 1,0,-1
EndSplineSet
EndChar

StartChar: braceleft
Encoding: 123 123 75
Width: 339
Flags: HMW
HStem: -76 21G<153 211> 660 20G<281.5 344>
LayerCount: 2
Fore
SplineSet
168 78 m 1,0,-1
 246 71 l 1,1,-1
 211 -76 l 1,2,3
 112 -76 112 -76 67 -66 c 128,-1,4
 22 -56 22 -56 5.5 -37.5 c 128,-1,5
 -11 -19 -11 -19 -11 10 c 0,6,7
 -11 18 -11 18 42 229 c 1,8,-1
 -18 245 l 1,9,-1
 2 357 l 1,10,-1
 67 373 l 1,11,-1
 88 575 l 2,12,13
 96.0222531293 647.200278164 96.0222531293 647.200278164 175 665.5 c 0,14,15
 216 675 216 675 250.5 677.5 c 128,-1,16
 285 680 285 680 344 680 c 1,17,-1
 327 533 l 1,18,19
 324 533 324 533 247 526 c 1,20,-1
 235 409 l 2,21,22
 230 366 230 366 213.5 344 c 128,-1,23
 197 322 197 322 169 307 c 1,24,-1
 167 295 l 1,25,26
 204 267 204 267 204 218 c 0,27,28
 204 201 204 201 197 175 c 2,29,-1
 168 78 l 1,0,-1
EndSplineSet
EndChar

StartChar: braceright
Encoding: 125 125 76
Width: 358
Flags: HMW
HStem: -76 21G<-15 47.5> 660 20G<118 176>
LayerCount: 2
Fore
SplineSet
161 526 m 1,0,-1
 83 533 l 1,1,-1
 118 680 l 1,2,3
 217 680 217 680 262 670 c 128,-1,4
 307 660 307 660 323.5 641.5 c 128,-1,5
 340 623 340 623 340 594 c 0,6,7
 340 586 340 586 287 375 c 1,8,-1
 347 359 l 1,9,-1
 327 247 l 1,10,-1
 262 231 l 1,11,-1
 241 29 l 2,12,13
 232.977746871 -43.2002781641 232.977746871 -43.2002781641 154 -61.5 c 0,14,15
 113 -71 113 -71 78.5 -73.5 c 128,-1,16
 44 -76 44 -76 -15 -76 c 1,17,-1
 2 71 l 1,18,19
 5 71 5 71 82 78 c 1,20,-1
 94 195 l 2,21,22
 99 238 99 238 115.5 260 c 128,-1,23
 132 282 132 282 160 297 c 1,24,-1
 162 309 l 1,25,26
 125 337 125 337 125 386 c 0,27,28
 125 403 125 403 132 429 c 2,29,-1
 161 526 l 1,0,-1
EndSplineSet
EndChar

StartChar: bracketleft
Encoding: 91 91 77
Width: 339
Flags: HMW
HStem: -76 21G<153 211> 660 20G<281.5 344>
LayerCount: 2
Fore
SplineSet
-9 29 m 2,0,-1
 88 575 l 2,1,2
 99.8901373283 637.423220974 99.8901373283 637.423220974 157.5 658.5 c 0,3,4
 216.266666667 680 216.266666667 680 344 680 c 1,5,-1
 327 533 l 1,6,7
 324 533 324 533 247 526 c 1,8,-1
 168 78 l 1,9,-1
 246 71 l 1,10,-1
 211 -76 l 1,11,12
 112 -76 112 -76 67 -66 c 128,-1,13
 22 -56 22 -56 5.5 -37.5 c 128,-1,14
 -11 -19 -11 -19 -11 10 c 0,15,16
 -11 15 -11 15 -9 29 c 2,0,-1
EndSplineSet
EndChar

StartChar: bracketright
Encoding: 93 93 78
Width: 367
Flags: HMW
HStem: -76 21G<-5 57> 660 20G<128 186>
LayerCount: 2
Fore
SplineSet
348 575 m 2,0,-1
 251 29 l 2,1,2
 242.683962264 -20.8962264151 242.683962264 -20.8962264151 203.5 -43 c 0,3,4
 162.532743363 -66.1097345133 162.532743363 -66.1097345133 121.766371681 -70.0548672566 c 0,5,6
 60.3333333333 -76 60.3333333333 -76 -5 -76 c 1,7,-1
 12 71 l 1,8,-1
 92 78 l 1,9,-1
 171 526 l 1,10,11
 96 533 96 533 93 533 c 1,12,-1
 128 680 l 1,13,14
 227 680 227 680 272 670 c 128,-1,15
 317 660 317 660 333.5 641.5 c 128,-1,16
 350 623 350 623 350 594 c 0,17,18
 350 589 350 589 348 575 c 2,0,-1
EndSplineSet
EndChar

StartChar: breve
Encoding: 728 728 79
Width: 385
Flags: HMW
HStem: 550 99<182 208.5 182 213> 684 20G<144 144 267 267>
LayerCount: 2
Fore
SplineSet
144 704 m 1,0,1
 145 678 145 678 159.5 663.5 c 128,-1,2
 174 649 174 649 195 649 c 128,-1,3
 216 649 216 649 236 663.5 c 128,-1,4
 256 678 256 678 267 704 c 1,5,-1
 365 689 l 1,6,7
 338 622 338 622 286 586 c 128,-1,8
 234 550 234 550 177.5 550 c 0,9,10
 121 550 121 550 82 586 c 128,-1,11
 43 622 43 622 40 689 c 1,12,-1
 144 704 l 1,0,1
EndSplineSet
EndChar

StartChar: brokenbar
Encoding: 166 166 80
Width: 420
Flags: HMW
HStem: -180 21G<68 68 68 182> 684 20G<224 338 338 338>
LayerCount: 2
Fore
SplineSet
164 368 m 1,0,-1
 224 704 l 1,1,-1
 338 704 l 1,2,-1
 278 368 l 1,3,-1
 164 368 l 1,0,-1
68 -180 m 1,4,-1
 127 156 l 1,5,-1
 241 156 l 1,6,-1
 182 -180 l 1,7,-1
 68 -180 l 1,4,-1
EndSplineSet
EndChar

StartChar: bullet
Encoding: 8226 8226 81
Width: 342
Flags: HMW
HStem: 112 21G<93.5 202> 368 20G<122 228.5>
LayerCount: 2
Fore
SplineSet
20 195 m 0,0,1
 20 388 20 388 186 388 c 0,2,3
 249 388 249 388 274.5 368.5 c 128,-1,4
 300 349 300 349 300 305 c 0,5,6
 300 214 300 214 264 163 c 128,-1,7
 228 112 228 112 137 112 c 0,8,9
 72 112 72 112 46 131 c 128,-1,10
 20 150 20 150 20 195 c 0,0,1
EndSplineSet
EndChar

StartChar: c
Encoding: 99 99 82
Width: 446
Flags: HMW
HStem: -15 146<173.5 307.5> 369 146<316.5 351 225 352>
LayerCount: 2
Fore
SplineSet
393 150 m 1,0,-1
 380 6 l 1,1,2
 325 -15 325 -15 248 -15 c 0,3,4
 138 -15 138 -15 86.5 30.5 c 128,-1,5
 35 76 35 76 35 167 c 0,6,7
 35 316 35 316 109 415.5 c 128,-1,8
 183 515 183 515 326 515 c 0,9,10
 424 515 424 515 466 494 c 1,11,-1
 419 358 l 1,12,13
 369 369 369 369 341 369 c 0,14,15
 268 369 268 369 259 316 c 2,16,-1
 228 137 l 1,17,18
 254 131 254 131 297.5 131 c 0,19,20
 341 131 341 131 393 150 c 1,0,-1
EndSplineSet
EndChar

StartChar: caron
Encoding: 711 711 83
Width: 385
Flags: HMW
HStem: 537 21G<149.5 153 153 198> 720 20G<123 123 300 300>
LayerCount: 2
Fore
SplineSet
198 537 m 2,0,-1
 153 537 l 2,1,2
 146 537 146 537 139 546 c 1,3,-1
 57 691 l 1,4,-1
 123 740 l 1,5,-1
 200 677 l 1,6,-1
 300 740 l 1,7,-1
 348 691 l 1,8,-1
 215 546 l 2,9,10
 206 537 206 537 198 537 c 2,0,-1
EndSplineSet
EndChar

StartChar: ccedilla
Encoding: 231 231 84
Width: 446
Flags: HMW
HStem: -165 21G<146 204.5> 369 146<316.5 351 225 352>
VStem: 35 250<-89 259>
LayerCount: 2
Fore
SplineSet
162 -26 m 2,0,-1
 165 -6 l 1,1,2
 35 23 35 23 35 169.5 c 0,3,4
 35 316 35 316 109 415.5 c 128,-1,5
 183 515 183 515 326 515 c 0,6,7
 424 515 424 515 466 494 c 1,8,-1
 419 358 l 1,9,10
 369 369 369 369 341 369 c 0,11,12
 268 369 268 369 259 316 c 2,13,-1
 228 137 l 1,14,15
 254 131 254 131 297.5 131 c 0,16,17
 341 131 341 131 393 150 c 1,18,-1
 380 6 l 1,19,20
 329 -13 329 -13 271 -14 c 1,21,22
 285 -37 285 -37 285 -71 c 0,23,24
 285 -105 285 -105 253 -135 c 128,-1,25
 221 -165 221 -165 167.5 -165 c 0,26,27
 114 -165 114 -165 68 -146 c 1,28,-1
 94 -58 l 1,29,-1
 125 -58 l 2,30,31
 145 -58 145 -58 151.5 -52.5 c 128,-1,32
 158 -47 158 -47 162 -26 c 2,0,-1
EndSplineSet
EndChar

StartChar: cedilla
Encoding: 184 184 85
Width: 469
Flags: HMW
HStem: -165 21G<187 245.5> 1 20G<211 269 269 269>
LayerCount: 2
Fore
SplineSet
203 -26 m 2,0,-1
 211 21 l 1,1,-1
 269 21 l 1,2,3
 326 -3 326 -3 326 -64 c 0,4,5
 326 -105 326 -105 294 -135 c 128,-1,6
 262 -165 262 -165 208.5 -165 c 0,7,8
 155 -165 155 -165 109 -146 c 1,9,-1
 135 -58 l 1,10,-1
 166 -58 l 2,11,12
 186 -58 186 -58 192.5 -52.5 c 128,-1,13
 199 -47 199 -47 203 -26 c 2,0,-1
EndSplineSet
EndChar

StartChar: cent
Encoding: 162 162 86
Width: 459
Flags: HMW
HStem: -64 21G<97 219 97 97> 580 20G<239 361 361 361>
LayerCount: 2
Fore
SplineSet
219 504 m 1,0,-1
 239 600 l 1,1,-1
 361 600 l 1,2,-1
 342 513 l 1,3,4
 395 508 395 508 438 496 c 1,5,-1
 385 351 l 1,6,-1
 319 351 l 2,7,8
 301 351 301 351 288.5 348.5 c 128,-1,9
 276 346 276 346 264 334.5 c 128,-1,10
 252 323 252 323 247 302 c 2,11,-1
 222 189 l 1,12,13
 244 186 244 186 282.5 186 c 128,-1,14
 321 186 321 186 369 201 c 1,15,-1
 349 56 l 1,16,17
 298 36 298 36 241 35 c 1,18,-1
 219 -64 l 1,19,-1
 97 -64 l 1,20,-1
 120 44 l 1,21,22
 25 67 25 67 25 172 c 0,23,24
 25 233.333333333 25 233.333333333 43 292.666666667 c 128,-1,25
 61 352 61 352 81 390 c 128,-1,26
 101 428 101 428 137 460 c 128,-1,27
 173 492 173 492 219 504 c 1,0,-1
EndSplineSet
EndChar

StartChar: circumflex
Encoding: 710 710 87
Width: 385
Flags: HMW
HStem: 537 21G<88 88 265 265> 720 20G<190 235 235 238.5>
LayerCount: 2
Fore
SplineSet
190 740 m 2,0,-1
 235 740 l 2,1,2
 243 740 243 740 248 731 c 2,3,-1
 331 586 l 1,4,-1
 265 537 l 1,5,-1
 187 600 l 1,6,-1
 88 537 l 1,7,-1
 40 586 l 1,8,-1
 172 731 l 2,9,10
 179.5 740 179.5 740 190 740 c 2,0,-1
EndSplineSet
EndChar

StartChar: colon
Encoding: 58 58 88
Width: 303
Flags: HMW
HStem: -6 21G<86.5 162> 486 20G<168.5 244>
LayerCount: 2
Fore
SplineSet
35 99 m 0,0,1
 45 158 45 158 70.5 182 c 128,-1,2
 96 206 96 206 151.5 206 c 0,3,4
 207 206 207 206 226.5 191 c 128,-1,5
 246 176 246 176 246 148 c 0,6,7
 246 120 246 120 242 99 c 0,8,9
 232 40 232 40 206.5 17 c 128,-1,10
 181 -6 181 -6 125.5 -6 c 0,11,12
 70 -6 70 -6 50.5 8.5 c 128,-1,13
 31 23 31 23 31 50.5 c 0,14,15
 31 78 31 78 35 99 c 0,0,1
88 399 m 0,16,17
 98 458 98 458 123.5 482 c 128,-1,18
 149 506 149 506 204.5 506 c 0,19,20
 260 506 260 506 279.5 491 c 128,-1,21
 299 476 299 476 299 448 c 0,22,23
 299 420 299 420 295 399 c 0,24,25
 285 340 285 340 259.5 317 c 128,-1,26
 234 294 234 294 178.5 294 c 0,27,28
 123 294 123 294 103.5 308.5 c 128,-1,29
 84 323 84 323 84 350.5 c 0,30,31
 84 378 84 378 88 399 c 0,16,17
EndSplineSet
EndChar

StartChar: comma
Encoding: 44 44 89
Width: 277
Flags: HMW
HStem: -151 21G<104 104> 186 20G<117.5 193>
LayerCount: 2
Fore
SplineSet
37 99 m 0,0,1
 47 158 47 158 72.5 182 c 128,-1,2
 98 206 98 206 153.5 206 c 0,3,4
 209 206 209 206 228.5 191 c 128,-1,5
 248 176 248 176 248 141 c 0,6,7
 248 72 248 72 192 -15 c 2,8,-1
 104 -151 l 1,9,-1
 24 -122 l 1,10,-1
 80 22 l 1,11,12
 34 30 34 30 34 72 c 0,13,14
 34 84 34 84 37 99 c 0,0,1
EndSplineSet
EndChar

StartChar: copyright
Encoding: 169 169 90
Width: 563
Flags: HMW
HStem: 179 21G<159.5 338.5> 503 85<293 312.5> 616 20G<227 367.5> 662 20G<213 390.5>
LayerCount: 2
Fore
SplineSet
244 364 m 1,0,-1
 274 361 l 1,1,2
 312 361 312 361 348 375 c 1,3,-1
 339 288 l 1,4,5
 304 274 304 274 251 274 c 128,-1,6
 198 274 198 274 172 297.5 c 128,-1,7
 146 321 146 321 146 371 c 0,8,9
 146 396.5 146 396.5 152 431 c 0,10,11
 167 514 167 514 202 551 c 128,-1,12
 237 588 237 588 314 588 c 0,13,14
 364 588 364 588 390 574 c 1,15,-1
 362 496 l 1,16,17
 335 503 335 503 310 503 c 128,-1,18
 285 503 285 503 276 499 c 128,-1,19
 267 495 267 495 265 484 c 2,20,-1
 244 364 l 1,0,-1
27 353 m 0,21,22
 27 491.582089552 27 491.582089552 92.5 582.5 c 0,23,24
 126 629 126 629 184 655.5 c 128,-1,25
 242 682 242 682 320 682 c 0,26,27
 424 682 424 682 472.5 639.5 c 128,-1,28
 521 597 521 597 521 519.5 c 128,-1,29
 521 442 521 442 505.5 384.5 c 128,-1,30
 490 327 490 327 457 280 c 128,-1,31
 424 233 424 233 366.5 206 c 128,-1,32
 309 179 309 179 231 179 c 0,33,34
 125 179 125 179 76 222 c 128,-1,35
 27 265 27 265 27 353 c 0,21,22
312 636 m 0,36,37
 188 636 188 636 131.5 565.5 c 128,-1,38
 75 495 75 495 75 356 c 0,39,40
 75 284 75 284 113.5 254.5 c 128,-1,41
 152 225 152 225 239 225 c 0,42,43
 363 225 363 225 418.5 296 c 128,-1,44
 474 367 474 367 474 507 c 0,45,46
 474 578 474 578 435.5 607 c 128,-1,47
 397 636 397 636 312 636 c 0,36,37
EndSplineSet
EndChar

StartChar: d
Encoding: 100 100 91
Width: 595
Flags: HMW
HStem: -15 21G<137 238.5> 0 21G<394 489 394 394> 480 20G<277 387 387 387> 645 20G<606 606>
LayerCount: 2
Fore
SplineSet
489 0 m 1,0,-1
 394 0 l 1,1,-1
 360 42 l 1,2,3
 308 -15 308 -15 201 -15 c 0,4,5
 35 -15 35 -15 35 168 c 0,6,7
 35 240.258064516 35 240.258064516 55 304.129032258 c 128,-1,8
 75 368 75 368 100 406.5 c 128,-1,9
 125 445 125 445 171 472.5 c 128,-1,10
 217 500 217 500 277 500 c 2,11,-1
 387 500 l 1,12,-1
 413 650 l 1,13,-1
 606 665 l 1,14,-1
 489 0 l 1,0,-1
261 327 m 2,15,-1
 227 131 l 1,16,-1
 256 131 l 2,17,18
 288 131 288 131 305 137.5 c 128,-1,19
 322 144 322 144 328 167 c 1,20,-1
 364 369 l 1,21,-1
 334 369 l 2,22,23
 300 369 300 369 283 361.5 c 128,-1,24
 266 354 266 354 261 327 c 2,15,-1
EndSplineSet
EndChar

StartChar: dagger
Encoding: 8224 8224 92
Width: 540
Flags: HMW
HStem: -50 21G<102 311 102 102> 645 20G<228 437 437 437>
LayerCount: 2
Fore
SplineSet
501 330 m 1,0,-1
 351 350 l 1,1,-1
 311 -50 l 1,2,-1
 102 -50 l 1,3,-1
 201 350 l 1,4,-1
 45 330 l 1,5,-1
 78 520 l 1,6,-1
 228 500 l 1,7,-1
 228 665 l 1,8,-1
 437 665 l 1,9,-1
 383 497 l 1,10,-1
 534 520 l 1,11,-1
 501 330 l 1,0,-1
EndSplineSet
EndChar

StartChar: daggerdbl
Encoding: 8225 8225 93
Width: 540
Flags: HMW
HStem: -50 21G<101 310 101 101> 645 20G<227 436 436 436>
LayerCount: 2
Fore
SplineSet
500 330 m 1,0,-1
 352 350 l 1,1,-1
 342 307 l 1,2,-1
 337 264 l 1,3,-1
 492 285 l 1,4,-1
 458 95 l 1,5,-1
 324 116 l 1,6,-1
 310 -50 l 1,7,-1
 101 -50 l 1,8,-1
 144 116 l 1,9,-1
 2 95 l 1,10,-1
 36 285 l 1,11,-1
 184 265 l 1,12,-1
 195 307 l 1,13,-1
 199 350 l 1,14,-1
 44 330 l 1,15,-1
 77 520 l 1,16,-1
 211 499 l 1,17,-1
 227 665 l 1,18,-1
 436 665 l 1,19,-1
 391 499 l 1,20,-1
 533 520 l 1,21,-1
 500 330 l 1,0,-1
EndSplineSet
EndChar

StartChar: degree
Encoding: 176 176 94
Width: 407
Flags: HMW
HStem: 357 104<131 191 191 208 131 244> 600 104<200 220 220 274>
LayerCount: 2
Fore
SplineSet
33 477 m 0,0,1
 33 576 33 576 83.5 640 c 128,-1,2
 134 704 134 704 235 704 c 0,3,4
 307 704 307 704 340 674.5 c 128,-1,5
 373 645 373 645 373 585 c 0,6,7
 373 486 373 486 323 421.5 c 128,-1,8
 273 357 273 357 173 357 c 0,9,10
 100 357 100 357 66.5 386.5 c 128,-1,11
 33 416 33 416 33 477 c 0,0,1
149 562 m 2,12,-1
 131 461 l 1,13,-1
 191 461 l 2,14,15
 212 461 212 461 222.5 462.5 c 128,-1,16
 233 464 233 464 243.5 473 c 128,-1,17
 254 482 254 482 257 500 c 2,18,-1
 274 600 l 1,19,-1
 220 600 l 2,20,21
 196 600 196 600 184.5 598.5 c 128,-1,22
 173 597 173 597 162.5 588.5 c 128,-1,23
 152 580 152 580 149 562 c 2,12,-1
EndSplineSet
EndChar

StartChar: dieresis
Encoding: 168 168 95
Width: 430
Flags: HMW
HStem: 552 156<92 130.5 300 339>
VStem: 34 155<620.5 639.5> 242 155<620.5 639.5>
LayerCount: 2
Fore
SplineSet
262.5 683.5 m 128,-1,1
 283 708 283 708 325.5 708 c 128,-1,2
 368 708 368 708 382.5 697 c 128,-1,3
 397 686 397 686 397 660 c 0,4,5
 397 601 397 601 376.5 576.5 c 128,-1,6
 356 552 356 552 313.5 552 c 128,-1,7
 271 552 271 552 256.5 563 c 128,-1,8
 242 574 242 574 242 600 c 0,9,0
 242 659 242 659 262.5 683.5 c 128,-1,1
54.5 683.5 m 128,-1,11
 75 708 75 708 117.5 708 c 128,-1,12
 160 708 160 708 174.5 697 c 128,-1,13
 189 686 189 686 189 660 c 0,14,15
 189 601 189 601 168 576.5 c 128,-1,16
 147 552 147 552 105 552 c 128,-1,17
 63 552 63 552 48.5 563 c 128,-1,18
 34 574 34 574 34 600 c 0,19,10
 34 659 34 659 54.5 683.5 c 128,-1,11
EndSplineSet
EndChar

StartChar: divide
Encoding: 247 247 96
Width: 600
Flags: HMW
HStem: 48 147<204 318 242 292> 240 144<71 529 96 504> 428 147<271 385 309 359>
LayerCount: 2
Fore
SplineSet
418 554 m 1,0,-1
 401 457 l 2,1,2
 396 428 396 428 359 428 c 2,3,-1
 283 428 l 2,4,5
 250 428 250 428 250 450 c 0,6,7
 250 455 250 455 267 547 c 0,8,9
 272 575 272 575 309 575 c 2,10,-1
 385 575 l 2,11,12
 418 575 418 575 418 554 c 1,0,-1
351 174 m 1,13,-1
 334 77 l 2,14,15
 329 48 329 48 292 48 c 2,16,-1
 216 48 l 2,17,18
 183 48 183 48 183 70 c 0,19,20
 183 75 183 75 200 167 c 0,21,22
 205 195 205 195 242 195 c 2,23,-1
 318 195 l 2,24,25
 351 195 351 195 351 174 c 1,13,-1
71 240 m 1,26,-1
 96 384 l 1,27,-1
 529 384 l 1,28,-1
 504 240 l 1,29,-1
 71 240 l 1,26,-1
EndSplineSet
EndChar

StartChar: dollar
Encoding: 36 36 97
Width: 551
Flags: HMW
HStem: -100 21G<124 247 124 124> 1 161<146 225 187 268> 698 20G<300 420 420 420>
LayerCount: 2
Fore
SplineSet
300 718 m 1,0,-1
 420 718 l 1,1,-1
 404 638 l 1,2,3
 477 633 477 633 534 622 c 1,4,-1
 479 467 l 1,5,-1
 336 467 l 2,6,7
 303 467 303 467 289.5 455.5 c 128,-1,8
 276 444 276 444 270 414 c 1,9,-1
 329 407 l 2,10,11
 419 396 419 396 456 362.5 c 128,-1,12
 493 329 493 329 493 270 c 0,13,14
 493 163 493 163 435.5 84 c 128,-1,15
 378 5 378 5 268 1 c 1,16,-1
 247 -100 l 1,17,-1
 124 -100 l 1,18,-1
 146 1 l 1,19,20
 58 8 58 8 -3 25 c 1,21,-1
 53 184 l 1,22,23
 127 162 127 162 214 162 c 0,24,25
 250 162 250 162 283 166 c 1,26,-1
 290 208 l 1,27,-1
 232 215 l 2,28,29
 145 226 145 226 110.5 261 c 128,-1,30
 76 296 76 296 76 357 c 0,31,32
 76 464 76 464 127 541 c 128,-1,33
 178 618 178 618 282 635 c 1,34,-1
 300 718 l 1,0,-1
EndSplineSet
EndChar

StartChar: dotaccent
Encoding: 729 729 98
Width: 265
Flags: HMW
HStem: 537 21G<87 159.5> 709 20G<106 179>
VStem: 37 191<572 691>
LayerCount: 2
Fore
SplineSet
37 592 m 0,0,1
 37 729 37 729 150 729 c 0,2,3
 193 729 193 729 210.5 715.5 c 128,-1,4
 228 702 228 702 228 670 c 0,5,6
 228 537 228 537 116 537 c 0,7,8
 73 537 73 537 55 549.5 c 128,-1,9
 37 562 37 562 37 592 c 0,0,1
EndSplineSet
EndChar

StartChar: dotlessi
Encoding: 305 305 99
Width: 300
Flags: HMW
HStem: 0 21G<11 11 11 201> 480 20G<289 289>
LayerCount: 2
Fore
SplineSet
11 0 m 1,0,-1
 94 475 l 1,1,-1
 289 500 l 1,2,-1
 201 0 l 1,3,-1
 11 0 l 1,0,-1
EndSplineSet
EndChar

StartChar: e
Encoding: 101 101 100
Width: 565
Flags: HMW
HStem: -15 147<273.5 283.5> 170 116<232 292> 369 146<314 333 333 372>
LayerCount: 2
Fore
SplineSet
232 170 m 1,0,-1
 226 135 l 1,1,2
 254.5 132 254.5 132 283 132 c 0,3,4
 375 132 375 132 466 162 c 1,5,-1
 463 15 l 1,6,7
 352 -15 352 -15 244.5 -15 c 0,8,9
 34 -15 34 -15 34 167 c 0,10,11
 34 372.733333333 34 372.733333333 160.5 465.5 c 0,12,13
 228 515 228 515 324 515 c 0,14,15
 449 515 449 515 498 488.5 c 128,-1,16
 547 462 547 462 547 399 c 128,-1,17
 547 336 547 336 531.5 296 c 128,-1,18
 516 256 516 256 491 232 c 128,-1,19
 466 208 466 208 423.5 194.5 c 0,20,21
 352.386138614 171.910891089 352.386138614 171.910891089 232 170 c 1,0,-1
260 327 m 2,22,-1
 253 286 l 1,23,-1
 292 286 l 2,24,25
 325 286 325 286 342 293.5 c 128,-1,26
 359 301 359 301 364 328 c 2,27,-1
 372 369 l 1,28,-1
 333 369 l 2,29,30
 299 369 299 369 282 361.5 c 128,-1,31
 265 354 265 354 260 327 c 2,22,-1
EndSplineSet
EndChar

StartChar: eacute
Encoding: 233 233 101
Width: 565
Flags: HMW
HStem: -15 147<273.5 283.5> 170 116<232 292> 369 146<314 333 333 372> 719 20G<411 416.5>
LayerCount: 2
Fore
SplineSet
232 170 m 1,0,-1
 226 135 l 1,1,2
 254.5 132 254.5 132 283 132 c 0,3,4
 375 132 375 132 466 162 c 1,5,-1
 463 15 l 1,6,7
 352 -15 352 -15 244.5 -15 c 0,8,9
 34 -15 34 -15 34 167 c 0,10,11
 34 372.733333333 34 372.733333333 160.5 465.5 c 0,12,13
 228 515 228 515 324 515 c 0,14,15
 449 515 449 515 498 488.5 c 128,-1,16
 547 462 547 462 547 399 c 128,-1,17
 547 336 547 336 531.5 296 c 128,-1,18
 516 256 516 256 491 232 c 128,-1,19
 466 208 466 208 423.5 194.5 c 0,20,21
 352.386138614 171.910891089 352.386138614 171.910891089 232 170 c 1,0,-1
260 327 m 2,22,-1
 253 286 l 1,23,-1
 292 286 l 2,24,25
 325 286 325 286 342 293.5 c 128,-1,26
 359 301 359 301 364 328 c 2,27,-1
 372 369 l 1,28,-1
 333 369 l 2,29,30
 299 369 299 369 282 361.5 c 128,-1,31
 265 354 265 354 260 327 c 2,22,-1
428 574 m 2,32,-1
 254 539 l 1,33,-1
 213 596 l 1,34,-1
 402 735 l 2,35,36
 408 739 408 739 415 739 c 128,-1,37
 422 739 422 739 431 728 c 2,38,-1
 494 654 l 2,39,40
 503 643.5 503 643.5 503 637.25 c 128,-1,41
 503 631 503 631 500.5 627.5 c 128,-1,42
 498 624 498 624 454 586 c 0,43,44
 444 577 444 577 428 574 c 2,32,-1
EndSplineSet
EndChar

StartChar: ecircumflex
Encoding: 234 234 102
Width: 565
Flags: HMW
HStem: -15 147<273.5 283.5> 170 116<232 292> 369 146<314 333 333 372> 720 20G<363 408 408 411.5>
LayerCount: 2
Fore
SplineSet
232 170 m 1,0,-1
 226 135 l 1,1,2
 254.5 132 254.5 132 283 132 c 0,3,4
 375 132 375 132 466 162 c 1,5,-1
 463 15 l 1,6,7
 352 -15 352 -15 244.5 -15 c 0,8,9
 34 -15 34 -15 34 167 c 0,10,11
 34 372.733333333 34 372.733333333 160.5 465.5 c 0,12,13
 228 515 228 515 324 515 c 0,14,15
 449 515 449 515 498 488.5 c 128,-1,16
 547 462 547 462 547 399 c 128,-1,17
 547 336 547 336 531.5 296 c 128,-1,18
 516 256 516 256 491 232 c 128,-1,19
 466 208 466 208 423.5 194.5 c 0,20,21
 352.386138614 171.910891089 352.386138614 171.910891089 232 170 c 1,0,-1
260 327 m 2,22,-1
 253 286 l 1,23,-1
 292 286 l 2,24,25
 325 286 325 286 342 293.5 c 128,-1,26
 359 301 359 301 364 328 c 2,27,-1
 372 369 l 1,28,-1
 333 369 l 2,29,30
 299 369 299 369 282 361.5 c 128,-1,31
 265 354 265 354 260 327 c 2,22,-1
363 740 m 2,32,-1
 408 740 l 2,33,34
 416 740 416 740 421 731 c 2,35,-1
 504 586 l 1,36,-1
 438 537 l 1,37,-1
 360 600 l 1,38,-1
 261 537 l 1,39,-1
 213 586 l 1,40,-1
 345 731 l 2,41,42
 352.5 740 352.5 740 363 740 c 2,32,-1
EndSplineSet
EndChar

StartChar: edieresis
Encoding: 235 235 103
Width: 565
Flags: HMW
HStem: -15 147<273.5 283.5> 170 116<232 292> 369 146<314 333 333 372> 552 156<233 271.5 441 480>
VStem: 175 155<620.5 639.5> 383 164<296 639.5>
LayerCount: 2
Fore
SplineSet
232 170 m 1,0,-1
 226 135 l 1,1,2
 254.5 132 254.5 132 283 132 c 0,3,4
 375 132 375 132 466 162 c 1,5,-1
 463 15 l 1,6,7
 352 -15 352 -15 244.5 -15 c 0,8,9
 34 -15 34 -15 34 167 c 0,10,11
 34 372.733333333 34 372.733333333 160.5 465.5 c 0,12,13
 228 515 228 515 324 515 c 0,14,15
 449 515 449 515 498 488.5 c 128,-1,16
 547 462 547 462 547 399 c 128,-1,17
 547 336 547 336 531.5 296 c 128,-1,18
 516 256 516 256 491 232 c 128,-1,19
 466 208 466 208 423.5 194.5 c 0,20,21
 352.386138614 171.910891089 352.386138614 171.910891089 232 170 c 1,0,-1
260 327 m 2,22,-1
 253 286 l 1,23,-1
 292 286 l 2,24,25
 325 286 325 286 342 293.5 c 128,-1,26
 359 301 359 301 364 328 c 2,27,-1
 372 369 l 1,28,-1
 333 369 l 2,29,30
 299 369 299 369 282 361.5 c 128,-1,31
 265 354 265 354 260 327 c 2,22,-1
403.5 683.5 m 128,-1,33
 424 708 424 708 466.5 708 c 128,-1,34
 509 708 509 708 523.5 697 c 128,-1,35
 538 686 538 686 538 660 c 0,36,37
 538 601 538 601 517.5 576.5 c 128,-1,38
 497 552 497 552 454.5 552 c 128,-1,39
 412 552 412 552 397.5 563 c 128,-1,40
 383 574 383 574 383 600 c 0,41,32
 383 659 383 659 403.5 683.5 c 128,-1,33
195.5 683.5 m 128,-1,43
 216 708 216 708 258.5 708 c 128,-1,44
 301 708 301 708 315.5 697 c 128,-1,45
 330 686 330 686 330 660 c 0,46,47
 330 601 330 601 309 576.5 c 128,-1,48
 288 552 288 552 246 552 c 128,-1,49
 204 552 204 552 189.5 563 c 128,-1,50
 175 574 175 574 175 600 c 0,51,42
 175 659 175 659 195.5 683.5 c 128,-1,43
EndSplineSet
EndChar

StartChar: egrave
Encoding: 232 232 104
Width: 565
Flags: HMW
HStem: -15 147<273.5 283.5> 170 116<232 292> 369 146<314 333 333 372> 719 20G<298.5 304>
LayerCount: 2
Fore
SplineSet
232 170 m 1,0,-1
 226 135 l 1,1,2
 254.5 132 254.5 132 283 132 c 0,3,4
 375 132 375 132 466 162 c 1,5,-1
 463 15 l 1,6,7
 352 -15 352 -15 244.5 -15 c 0,8,9
 34 -15 34 -15 34 167 c 0,10,11
 34 372.733333333 34 372.733333333 160.5 465.5 c 0,12,13
 228 515 228 515 324 515 c 0,14,15
 449 515 449 515 498 488.5 c 128,-1,16
 547 462 547 462 547 399 c 128,-1,17
 547 336 547 336 531.5 296 c 128,-1,18
 516 256 516 256 491 232 c 128,-1,19
 466 208 466 208 423.5 194.5 c 0,20,21
 352.386138614 171.910891089 352.386138614 171.910891089 232 170 c 1,0,-1
260 327 m 2,22,-1
 253 286 l 1,23,-1
 292 286 l 2,24,25
 325 286 325 286 342 293.5 c 128,-1,26
 359 301 359 301 364 328 c 2,27,-1
 372 369 l 1,28,-1
 333 369 l 2,29,30
 299 369 299 369 282 361.5 c 128,-1,31
 265 354 265 354 260 327 c 2,22,-1
461 539 m 1,32,-1
 287 574 l 2,33,34
 271 577 271 577 261 586 c 2,35,-1
 216 625 l 1,36,37
 212 631 212 631 212 637.25 c 128,-1,38
 212 643.5 212 643.5 221 654 c 2,39,-1
 284 728 l 2,40,41
 293 739 293 739 300 739 c 128,-1,42
 307 739 307 739 313 735 c 2,43,-1
 502 596 l 1,44,-1
 461 539 l 1,32,-1
EndSplineSet
EndChar

StartChar: eight
Encoding: 56 56 105
Width: 600
Flags: HMW
HStem: -15 151<221 260 260 279 221 321> 484 156<321.5 340 340 378>
LayerCount: 2
Fore
SplineSet
505 606.5 m 128,-1,1
 562 573 562 573 562 498 c 0,2,3
 562 441 562 441 536 391.5 c 128,-1,4
 510 342 510 342 469 315 c 1,5,-1
 468 308 l 1,6,7
 497 292 497 292 513.5 262.5 c 128,-1,8
 530 233 530 233 530 196 c 0,9,10
 530 123 530 123 490 74.5 c 0,11,12
 416.18556701 -15 416.18556701 -15 243 -15 c 0,13,14
 20 -15 20 -15 20 131 c 0,15,16
 20 188 20 188 51 236.5 c 128,-1,17
 82 285 82 285 132 308 c 1,18,-1
 133 315 l 1,19,20
 91 351 91 351 91 416.5 c 128,-1,21
 91 482 91 482 114.5 526 c 128,-1,22
 138 570 138 570 178.5 594 c 0,23,24
 256.125 640 256.125 640 352.0625 640 c 128,-1,0
 448 640 448 640 505 606.5 c 128,-1,1
328 201 m 1,25,-1
 269 234 l 1,26,27
 255 240 255 240 251 240 c 0,28,29
 240 240 240 240 237 223 c 2,30,-1
 221 136 l 1,31,-1
 260 136 l 2,32,33
 292 136 292 136 305.5 143.5 c 128,-1,34
 319 151 319 151 324 178 c 2,35,-1
 328 201 l 1,25,-1
272 423 m 1,36,-1
 328 389 l 2,37,38
 336 385 336 385 341 385 c 0,39,40
 360 385 360 385 364 403 c 2,41,-1
 378 484 l 1,42,-1
 340 484 l 2,43,44
 308 484 308 484 293.5 476.5 c 128,-1,45
 279 469 279 469 275 442 c 2,46,-1
 272 423 l 1,36,-1
EndSplineSet
EndChar

StartChar: emdash
Encoding: 8212 8212 106
Width: 854
Flags: HMW
HStem: 200 150<27 817 118 725>
LayerCount: 2
Fore
SplineSet
27 200 m 1,0,-1
 46 308 l 2,1,2
 51 335 51 335 67.5 342.5 c 128,-1,3
 84 350 84 350 118 350 c 2,4,-1
 817 350 l 1,5,-1
 798 242 l 2,6,7
 793 215 793 215 776 207.5 c 128,-1,8
 759 200 759 200 725 200 c 2,9,-1
 27 200 l 1,0,-1
EndSplineSet
EndChar

StartChar: endash
Encoding: 8211 8211 107
Width: 595
Flags: HMW
HStem: 200 150<20 563 111 472>
LayerCount: 2
Fore
SplineSet
20 200 m 1,0,-1
 39 308 l 2,1,2
 44 335 44 335 60.5 342.5 c 128,-1,3
 77 350 77 350 111 350 c 2,4,-1
 563 350 l 1,5,-1
 544 242 l 2,6,7
 539 215 539 215 522.5 207.5 c 128,-1,8
 506 200 506 200 472 200 c 2,9,-1
 20 200 l 1,0,-1
EndSplineSet
EndChar

StartChar: equal
Encoding: 61 61 108
Width: 600
Flags: HMW
HStem: 121 144<50 508 75 483> 359 144<92 550 117 525>
LayerCount: 2
Fore
SplineSet
50 121 m 1,0,-1
 75 265 l 1,1,-1
 508 265 l 1,2,-1
 483 121 l 1,3,-1
 50 121 l 1,0,-1
92 359 m 1,4,-1
 117 503 l 1,5,-1
 550 503 l 1,6,-1
 525 359 l 1,7,-1
 92 359 l 1,4,-1
EndSplineSet
EndChar

StartChar: eth
Encoding: 240 240 109
Width: 575
Flags: HMW
HStem: -15 21G<173 356.5> 660 20G<356 356>
LayerCount: 2
Fore
SplineSet
485 570 m 2,0,-1
 460 562 l 1,1,2
 545 432 545 432 545 319 c 0,3,4
 545 176.132352941 545 176.132352941 478 84.5 c 0,5,6
 444 38 444 38 385.5 11.5 c 128,-1,7
 327 -15 327 -15 250 -15 c 0,8,9
 136 -15 136 -15 83 33.5 c 128,-1,10
 30 82 30 82 30 179 c 0,11,12
 30 308 30 308 99.5 371.5 c 128,-1,13
 169 435 169 435 325 435 c 1,14,15
 312 472 312 472 291 509 c 1,16,-1
 178 473 l 1,17,-1
 173 526 l 1,18,19
 176 541 176 541 184 547.5 c 128,-1,20
 192 554 192 554 214 561 c 2,21,-1
 252 573 l 1,22,23
 227 608 227 608 203 636 c 1,24,-1
 356 680 l 1,25,26
 385 659 385 659 415 624 c 1,27,-1
 521 658 l 1,28,-1
 526 605 l 1,29,30
 523 590 523 590 515 583.5 c 128,-1,31
 507 577 507 577 485 570 c 2,0,-1
242 279 m 2,32,-1
 215 121 l 1,33,-1
 244 121 l 2,34,35
 278 121 278 121 295 128.5 c 128,-1,36
 312 136 312 136 317 163 c 2,37,-1
 345 321 l 1,38,-1
 315 321 l 2,39,40
 281 321 281 321 264 313.5 c 128,-1,41
 247 306 247 306 242 279 c 2,32,-1
EndSplineSet
EndChar

StartChar: exclam
Encoding: 33 33 110
Width: 330
Flags: HMW
HStem: -7 156<98 156.5> 605 20G<148 296 296 307>
VStem: 14 218<59 83>
LayerCount: 2
Fore
SplineSet
221 170 m 1,0,-1
 60 170 l 1,1,-1
 107 598 l 1,2,3
 111 625 111 625 148 625 c 2,4,-1
 296 625 l 2,5,6
 327 625 327 625 327 605 c 0,7,8
 327 600 327 600 326 598 c 2,9,-1
 221 170 l 1,0,-1
14 44 m 0,10,11
 14 101 14 101 45 125 c 128,-1,12
 76 149 76 149 133 149 c 0,13,14
 190 149 190 149 211 136.5 c 128,-1,15
 232 124 232 124 232 96 c 0,16,17
 232 40 232 40 205.5 16.5 c 128,-1,18
 179 -7 179 -7 117.5 -7 c 0,19,20
 56 -7 56 -7 35 4.5 c 128,-1,21
 14 16 14 16 14 44 c 0,10,11
EndSplineSet
EndChar

StartChar: exclamdown
Encoding: 161 161 111
Width: 330
Flags: HMW
HStem: -117 21G<-1 10 10 158> 359 156<149.5 208>
VStem: 74 218<425 449>
LayerCount: 2
Fore
SplineSet
85 338 m 1,0,-1
 246 338 l 1,1,-1
 199 -90 l 1,2,3
 195 -117 195 -117 158 -117 c 2,4,-1
 10 -117 l 2,5,6
 -21 -117 -21 -117 -21 -97 c 0,7,8
 -21 -92 -21 -92 -20 -90 c 2,9,-1
 85 338 l 1,0,-1
292 464 m 0,10,11
 292 407 292 407 261 383 c 128,-1,12
 230 359 230 359 173 359 c 0,13,14
 116 359 116 359 95 371.5 c 128,-1,15
 74 384 74 384 74 412 c 0,16,17
 74 468 74 468 100.5 491.5 c 128,-1,18
 127 515 127 515 188.5 515 c 0,19,20
 250 515 250 515 271 503.5 c 128,-1,21
 292 492 292 492 292 464 c 0,10,11
EndSplineSet
EndChar

StartChar: f
Encoding: 102 102 112
Width: 348
Flags: HMW
HStem: 0 21G<31 221 31 31> 370 130<71 96 48 119 309 343> 655 20G<272 339>
LayerCount: 2
Fore
SplineSet
316 542 m 1,0,-1
 309 500 l 1,1,-1
 366 500 l 1,2,-1
 343 370 l 1,3,-1
 286 370 l 1,4,-1
 221 0 l 1,5,-1
 31 0 l 1,6,-1
 96 370 l 1,7,-1
 48 370 l 1,8,-1
 71 500 l 1,9,-1
 119 500 l 1,10,-1
 136 560 l 2,11,12
 168 675 168 675 324 675 c 0,13,14
 363 675 363 675 426 665 c 1,15,-1
 393 534 l 1,16,-1
 316 542 l 1,0,-1
EndSplineSet
EndChar

StartChar: fi
Encoding: 64257 64257 113
Width: 605
Flags: HMW
HStem: 0 21G<31 221 31 31 316 506 316 316> 370 130<72 96 49 119 309 381> 655 20G<273 348.5>
LayerCount: 2
Fore
SplineSet
316 0 m 1,0,-1
 381 370 l 1,1,-1
 286 370 l 1,2,-1
 221 0 l 1,3,-1
 31 0 l 1,4,-1
 96 370 l 1,5,-1
 49 370 l 1,6,-1
 72 500 l 1,7,-1
 119 500 l 1,8,-1
 136 560 l 2,9,10
 169 675 169 675 324 675 c 0,11,12
 396 675 396 675 472 650 c 1,13,-1
 422 533 l 1,14,-1
 316 542 l 1,15,-1
 309 500 l 1,16,-1
 437 500 l 1,17,-1
 598 525 l 1,18,-1
 506 0 l 1,19,-1
 316 0 l 1,0,-1
EndSplineSet
EndChar

StartChar: five
Encoding: 53 53 114
Width: 600
Flags: HMW
HStem: -15 168<204 249.5 204 299> 460 165
LayerCount: 2
Fore
SplineSet
2 11 m 1,0,-1
 58 176 l 1,1,2
 144 153 144 153 212 153 c 0,3,4
 280 153 280 153 325 159 c 1,5,-1
 333 209 l 1,6,-1
 264 217 l 2,7,8
 163 229 163 229 123.5 251.5 c 128,-1,9
 84 274 84 274 84 326 c 0,10,11
 84 345 84 345 88 365 c 2,12,-1
 143 625 l 1,13,-1
 575 625 l 1,14,-1
 530 453 l 1,15,-1
 308 467 l 1,16,-1
 297 406 l 1,17,-1
 352 399 l 2,18,19
 457 385 457 385 500 351.5 c 128,-1,20
 543 318 543 318 543 252.5 c 0,21,22
 543 187 543 187 523.5 136 c 128,-1,23
 504 85 504 85 474 56.5 c 128,-1,24
 444 28 444 28 399.5 11.5 c 128,-1,25
 355 -5 355 -5 316 -10 c 128,-1,26
 277 -15 277 -15 227 -15 c 0,27,28
 103 -15 103 -15 2 11 c 1,0,-1
EndSplineSet
EndChar

StartChar: fl
Encoding: 64258 64258 115
Width: 626
Flags: HMW
HStem: -11 21G<497.5 555> 0 21G<31 221 31 31> 370 130<72 96 49 119 309 343> 655 20G<273 348.5>
LayerCount: 2
Fore
SplineSet
316 542 m 1,0,-1
 309 500 l 1,1,-1
 366 500 l 1,2,-1
 343 370 l 1,3,-1
 286 370 l 1,4,-1
 221 0 l 1,5,-1
 31 0 l 1,6,-1
 96 370 l 1,7,-1
 49 370 l 1,8,-1
 72 500 l 1,9,-1
 119 500 l 1,10,-1
 136 560 l 2,11,12
 169 675 169 675 324 675 c 0,13,14
 396 675 396 675 472 650 c 1,15,-1
 636 665 l 1,16,-1
 544 143 l 1,17,18
 571 137 571 137 588 136 c 1,19,-1
 555 -11 l 1,20,21
 423 -11 423 -11 384 8.5 c 0,22,23
 367 17 367 17 355 33.5 c 128,-1,24
 343 50 343 50 343 64 c 128,-1,25
 343 78 343 78 345 94 c 2,26,-1
 422 533 l 1,27,-1
 316 542 l 1,0,-1
EndSplineSet
EndChar

StartChar: florin
Encoding: 402 402 116
Width: 479
Flags: HMW
HStem: -165 21G<-62 75 -62 -62> 262 107<65 118 46 142 332 411> 477 164<305 423 305 468>
LayerCount: 2
Fore
SplineSet
345 428 m 2,0,-1
 332 369 l 1,1,-1
 439 369 l 1,2,-1
 411 262 l 1,3,-1
 309 262 l 1,4,-1
 252 0 l 1,5,6
 215 -165 215 -165 75 -165 c 2,7,-1
 -62 -165 l 1,8,-1
 -40 -35 l 1,9,-1
 12 -25 l 2,10,11
 35 -21 35 -21 47.5 -12.5 c 128,-1,12
 60 -4 60 -4 64 15 c 2,13,-1
 118 262 l 1,14,-1
 46 262 l 1,15,-1
 65 369 l 1,16,-1
 142 369 l 1,17,-1
 158 443 l 2,18,19
 179 543 179 543 228.5 592 c 128,-1,20
 278 641 278 641 362.5 641 c 0,21,22
 447 641 447 641 521 622 c 1,23,-1
 468 477 l 1,24,-1
 423 477 l 2,25,26
 390 477 390 477 371 468 c 128,-1,27
 352 459 352 459 345 428 c 2,0,-1
EndSplineSet
EndChar

StartChar: four
Encoding: 52 52 117
Width: 600
Flags: HMW
HStem: 0 21G<269 269 269 459> 100 172<222 286 222 476 506 538> 605 20G<232 569 569 569>
LayerCount: 2
Fore
SplineSet
269 0 m 1,0,-1
 286 100 l 1,1,-1
 -7 100 l 1,2,-1
 15 225 l 1,3,-1
 232 625 l 1,4,-1
 569 625 l 1,5,-1
 506 272 l 1,6,-1
 568 272 l 1,7,-1
 538 100 l 1,8,-1
 476 100 l 1,9,-1
 459 0 l 1,10,-1
 269 0 l 1,0,-1
342 475 m 1,11,-1
 222 272 l 1,12,-1
 316 272 l 1,13,-1
 352 475 l 1,14,-1
 342 475 l 1,11,-1
EndSplineSet
EndChar

StartChar: fraction
Encoding: 8260 8260 118
Width: 503
Flags: HMW
HStem: -40 21G<70 121 70 70> 645 20G<382 433 433 433>
LayerCount: 2
Fore
SplineSet
433 665 m 1,0,-1
 164 -15 l 2,1,2
 154 -40 154 -40 121 -40 c 2,3,-1
 70 -40 l 1,4,-1
 339 640 l 2,5,6
 349 665 349 665 382 665 c 2,7,-1
 433 665 l 1,0,-1
EndSplineSet
EndChar

StartChar: germandbls
Encoding: 223 223 119
Width: 635
Flags: HMW
HStem: -15 145<364.5 387 364.5 455.5> 0 21G<31 221 31 31> 480 20G<72 119 119 119> 519 156<341 361>
VStem: 386 196<455.5 604> 386 219
LayerCount: 2
Fore
SplineSet
49 370 m 1,0,-1
 72 500 l 1,1,-1
 119 500 l 1,2,-1
 136 560 l 2,3,4
 157.958427816 635.856386999 157.958427816 635.856386999 231 657 c 0,5,6
 293.181818182 675 293.181818182 675 397 675 c 0,7,8
 582 675 582 675 582 550 c 0,9,10
 582 449 582 449 466 314 c 1,11,12
 605 314 605 314 605 198 c 0,13,14
 605 101 605 101 547 43 c 128,-1,15
 489 -15 489 -15 387.5 -15 c 128,-1,16
 286 -15 286 -15 255 -1 c 1,17,-1
 299 141 l 1,18,19
 338 130 338 130 376.5 130 c 128,-1,20
 415 130 415 130 415 134 c 2,21,-1
 421 166 l 1,22,23
 363 166 363 166 334 184 c 128,-1,24
 305 202 305 202 305 245 c 128,-1,25
 305 288 305 288 345.5 373 c 128,-1,26
 386 458 386 458 386 487 c 0,27,28
 386 519 386 519 346 519 c 0,29,30
 331 519 331 519 311 515 c 1,31,-1
 221 0 l 1,32,-1
 31 0 l 1,33,-1
 96 370 l 1,34,-1
 49 370 l 1,0,-1
EndSplineSet
EndChar

StartChar: grave
Encoding: 96 96 120
Width: 429
Flags: HMW
HStem: 539 21G<288 288> 719 20G<125.5 131>
LayerCount: 2
Fore
SplineSet
288 539 m 1,0,-1
 114 574 l 2,1,2
 98 577 98 577 88 586 c 2,3,-1
 43 625 l 1,4,5
 39 631 39 631 39 637.25 c 0,6,7
 39 643.5 39 643.5 48 654 c 2,8,-1
 111 728 l 2,9,10
 120 739 120 739 127 739 c 0,11,12
 134 739 134 739 140 735 c 2,13,-1
 329 596 l 1,14,-1
 288 539 l 1,0,-1
EndSplineSet
EndChar

StartChar: greater
Encoding: 62 62 121
Width: 600
Flags: HMW
HStem: 67 21G<110 110> 537 20G<207 207>
LayerCount: 2
Fore
SplineSet
110 67 m 1,0,-1
 70 201 l 1,1,-1
 357 309 l 1,2,-1
 358 316 l 1,3,-1
 119 423 l 1,4,-1
 207 557 l 1,5,-1
 511 403 l 1,6,-1
 479 221 l 1,7,-1
 110 67 l 1,0,-1
EndSplineSet
EndChar

StartChar: guillemotleft
Encoding: 171 171 122
Width: 575
Flags: HMW
HStem: 25 21G<172 172 410 410> 455 20G<251 251 489 489>
LayerCount: 2
Fore
SplineSet
36 300 m 1,0,-1
 251 475 l 1,1,-1
 319 424 l 1,2,-1
 194 250 l 1,3,-1
 258 76 l 1,4,-1
 172 25 l 1,5,-1
 19 200 l 1,6,-1
 36 300 l 1,0,-1
273 300 m 1,7,-1
 489 475 l 1,8,-1
 556 424 l 1,9,-1
 431 250 l 1,10,-1
 495 76 l 1,11,-1
 410 25 l 1,12,-1
 251 200 l 1,13,-1
 273 300 l 1,7,-1
EndSplineSet
EndChar

StartChar: guillemotright
Encoding: 187 187 123
Width: 575
Flags: HMW
HStem: 25 21G<64 64 301 301> 455 20G<143 143 380 380>
LayerCount: 2
Fore
SplineSet
380 475 m 1,0,-1
 533 300 l 1,1,-1
 516 200 l 1,2,-1
 301 25 l 1,3,-1
 233 76 l 1,4,-1
 359 250 l 1,5,-1
 294 424 l 1,6,-1
 380 475 l 1,0,-1
143 475 m 1,7,-1
 296 300 l 1,8,-1
 279 200 l 1,9,-1
 64 25 l 1,10,-1
 -4 76 l 1,11,-1
 122 250 l 1,12,-1
 57 424 l 1,13,-1
 143 475 l 1,7,-1
EndSplineSet
EndChar

StartChar: guilsinglleft
Encoding: 8249 8249 124
Width: 325
Flags: HMW
HStem: 25 21G<165 165> 455 20G<244 244>
LayerCount: 2
Fore
SplineSet
29 300 m 1,0,-1
 244 475 l 1,1,-1
 312 424 l 1,2,-1
 187 250 l 1,3,-1
 251 76 l 1,4,-1
 165 25 l 1,5,-1
 12 200 l 1,6,-1
 29 300 l 1,0,-1
EndSplineSet
EndChar

StartChar: guilsinglright
Encoding: 8250 8250 125
Width: 325
Flags: HMW
HStem: 25 21G<59 59> 455 20G<138 138>
LayerCount: 2
Fore
SplineSet
138 475 m 1,0,-1
 291 300 l 1,1,-1
 274 200 l 1,2,-1
 59 25 l 1,3,-1
 -9 76 l 1,4,-1
 117 250 l 1,5,-1
 52 424 l 1,6,-1
 138 475 l 1,0,-1
EndSplineSet
EndChar

StartChar: h
Encoding: 104 104 126
Width: 595
Flags: HMW
HStem: 0 21G<19 209 19 19 304 304 304 494> 495 20G<415 481.5> 645 20G<326 326>
LayerCount: 2
Fore
SplineSet
263 308 m 2,0,-1
 209 0 l 1,1,-1
 19 0 l 1,2,-1
 133 650 l 1,3,-1
 326 665 l 1,4,-1
 293 482 l 1,5,6
 361 515 361 515 431 515 c 0,7,8
 566 515 566 515 566 423 c 0,9,10
 566 416 566 416 564 400 c 2,11,-1
 494 0 l 1,12,-1
 304 0 l 1,13,-1
 365 350 l 1,14,-1
 336 350 l 2,15,16
 302 350 302 350 285 342.5 c 128,-1,17
 268 335 268 335 263 308 c 2,0,-1
EndSplineSet
EndChar

StartChar: hungarumlaut
Encoding: 733 733 127
Width: 599
Flags: HMW
HStem: 530 21G<88 88 351 351> 721 20G<204 206.5 467 469.5>
LayerCount: 2
Fore
SplineSet
88 530 m 1,0,-1
 48 589 l 1,1,-1
 188 729 l 1,2,3
 197 740 197 740 203.5 740.5 c 0,4,5
 210 741 210 741 222 729 c 1,6,-1
 285 655 l 2,7,8
 292 647 292 647 292 638 c 0,9,10
 292 629 292 629 283 620 c 2,11,-1
 242 582 l 2,12,13
 233 573 233 573 209 566 c 2,14,-1
 88 530 l 1,0,-1
351 530 m 1,15,-1
 311 589 l 1,16,-1
 451 729 l 1,17,18
 460 740 460 740 466.5 740.5 c 0,19,20
 473 741 473 741 485 729 c 1,21,-1
 548 655 l 2,22,23
 555 647 555 647 555 638 c 0,24,25
 555 629 555 629 546 620 c 2,26,-1
 505 582 l 2,27,28
 496 573 496 573 472 566 c 2,29,-1
 351 530 l 1,15,-1
EndSplineSet
EndChar

StartChar: hyphen
Encoding: 45 45 128
Width: 350
Flags: HMW
HStem: 200 150<20 331 111 239>
LayerCount: 2
Fore
SplineSet
20 200 m 1,0,-1
 39 308 l 2,1,2
 44 335 44 335 60.5 342.5 c 128,-1,3
 77 350 77 350 111 350 c 2,4,-1
 331 350 l 1,5,-1
 312 242 l 2,6,7
 307 215 307 215 290 207.5 c 128,-1,8
 273 200 273 200 239 200 c 2,9,-1
 20 200 l 1,0,-1
EndSplineSet
EndChar

StartChar: i
Encoding: 105 105 129
Width: 300
Flags: HMW
HStem: 0 21G<11 11 11 201> 515 160<185 244>
VStem: 102 218<582 607>
LayerCount: 2
Fore
SplineSet
11 0 m 1,0,-1
 94 475 l 1,1,-1
 289 500 l 1,2,-1
 201 0 l 1,3,-1
 11 0 l 1,0,-1
102 567 m 0,4,5
 102 625 102 625 132.5 650 c 128,-1,6
 163 675 163 675 221 675 c 0,7,8
 279 675 279 675 299.5 662.5 c 128,-1,9
 320 650 320 650 320 621 c 0,10,11
 320 562 320 562 293.5 538.5 c 128,-1,12
 267 515 267 515 205.5 515 c 0,13,14
 144 515 144 515 123 526.5 c 128,-1,15
 102 538 102 538 102 567 c 0,4,5
EndSplineSet
EndChar

StartChar: iacute
Encoding: 237 237 130
Width: 300
Flags: HMW
HStem: 0 21G<11 11 11 201> 719 20G<261 266.5>
LayerCount: 2
Fore
SplineSet
11 0 m 1,0,-1
 94 475 l 1,1,-1
 289 500 l 1,2,-1
 201 0 l 1,3,-1
 11 0 l 1,0,-1
278 574 m 2,4,-1
 104 539 l 1,5,-1
 63 596 l 1,6,-1
 252 735 l 2,7,8
 258 739 258 739 265 739 c 0,9,10
 272 739 272 739 281 728 c 2,11,-1
 344 654 l 2,12,13
 353 643.5 353 643.5 353 637.25 c 0,14,15
 353 631 353 631 350.5 627.5 c 0,16,17
 348 624 348 624 304 586 c 0,18,19
 294 577 294 577 278 574 c 2,4,-1
EndSplineSet
EndChar

StartChar: icircumflex
Encoding: 238 238 131
Width: 300
Flags: HMW
HStem: 0 21G<11 11 11 201> 720 20G<213 258 258 261.5>
LayerCount: 2
Fore
SplineSet
11 0 m 1,0,-1
 94 475 l 1,1,-1
 289 500 l 1,2,-1
 201 0 l 1,3,-1
 11 0 l 1,0,-1
213 740 m 2,4,-1
 258 740 l 2,5,6
 266 740 266 740 271 731 c 2,7,-1
 354 586 l 1,8,-1
 288 537 l 1,9,-1
 210 600 l 1,10,-1
 111 537 l 1,11,-1
 63 586 l 1,12,-1
 195 731 l 2,13,14
 202.5 740 202.5 740 213 740 c 2,4,-1
EndSplineSet
EndChar

StartChar: idieresis
Encoding: 239 239 132
Width: 300
Flags: HMW
HStem: 0 21G<11 11 11 201> 552 156<96 134.5 304 343>
VStem: 38 155<620.5 639.5> 246 155<620.5 639.5>
LayerCount: 2
Fore
SplineSet
11 0 m 1,0,-1
 94 475 l 1,1,-1
 289 500 l 1,2,-1
 201 0 l 1,3,-1
 11 0 l 1,0,-1
266.5 683.5 m 128,-1,5
 287 708 287 708 329.5 708 c 128,-1,6
 372 708 372 708 386.5 697 c 128,-1,7
 401 686 401 686 401 660 c 0,8,9
 401 601 401 601 380.5 576.5 c 128,-1,10
 360 552 360 552 317.5 552 c 128,-1,11
 275 552 275 552 260.5 563 c 128,-1,12
 246 574 246 574 246 600 c 0,13,4
 246 659 246 659 266.5 683.5 c 128,-1,5
58.5 683.5 m 128,-1,15
 79 708 79 708 121.5 708 c 128,-1,16
 164 708 164 708 178.5 697 c 128,-1,17
 193 686 193 686 193 660 c 0,18,19
 193 601 193 601 172 576.5 c 128,-1,20
 151 552 151 552 109 552 c 128,-1,21
 67 552 67 552 52.5 563 c 128,-1,22
 38 574 38 574 38 600 c 0,23,14
 38 659 38 659 58.5 683.5 c 128,-1,15
EndSplineSet
EndChar

StartChar: igrave
Encoding: 236 236 133
Width: 300
Flags: HMW
HStem: 0 21G<11 11 11 201> 719 20G<149.5 155>
LayerCount: 2
Fore
SplineSet
11 0 m 1,0,-1
 94 475 l 1,1,-1
 289 500 l 1,2,-1
 201 0 l 1,3,-1
 11 0 l 1,0,-1
312 539 m 1,4,-1
 138 574 l 2,5,6
 122 577 122 577 112 586 c 2,7,-1
 67 625 l 1,8,9
 63 631 63 631 63 637.25 c 0,10,11
 63 643.5 63 643.5 72 654 c 2,12,-1
 135 728 l 2,13,14
 144 739 144 739 151 739 c 0,15,16
 158 739 158 739 164 735 c 2,17,-1
 353 596 l 1,18,-1
 312 539 l 1,4,-1
EndSplineSet
EndChar

StartChar: j
Encoding: 106 106 134
Width: 300
Flags: HMW
HStem: -165 21G<-113 -113 -113 24> 515 160<185 244>
VStem: 102 218<582 607>
LayerCount: 2
Fore
SplineSet
-113 -165 m 1,0,-1
 -90 -35 l 1,1,-1
 -38 -25 l 2,2,3
 -16 -21 -16 -21 -3 -12.5 c 128,-1,4
 10 -4 10 -4 13 15 c 2,5,-1
 94 475 l 1,6,-1
 289 500 l 1,7,-1
 201 0 l 2,8,9
 187 -80 187 -80 141 -122.5 c 128,-1,10
 95 -165 95 -165 24 -165 c 2,11,-1
 -113 -165 l 1,0,-1
102 567 m 0,12,13
 102 625 102 625 132.5 650 c 128,-1,14
 163 675 163 675 221 675 c 0,15,16
 279 675 279 675 299.5 662.5 c 128,-1,17
 320 650 320 650 320 621 c 0,18,19
 320 562 320 562 293.5 538.5 c 128,-1,20
 267 515 267 515 205.5 515 c 0,21,22
 144 515 144 515 123 526.5 c 128,-1,23
 102 538 102 538 102 567 c 0,12,13
EndSplineSet
EndChar

StartChar: k
Encoding: 107 107 135
Width: 550
Flags: HMW
HStem: 0 21G<19 209 19 19 289 494 289 289> 480 20G<373 578 578 578> 645 20G<326 326>
LayerCount: 2
Fore
SplineSet
289 0 m 1,0,-1
 250 198 l 1,1,-1
 243 198 l 1,2,-1
 209 0 l 1,3,-1
 19 0 l 1,4,-1
 133 650 l 1,5,-1
 326 665 l 1,6,-1
 268 335 l 1,7,-1
 275 335 l 1,8,-1
 373 500 l 1,9,-1
 578 500 l 1,10,-1
 426 262 l 1,11,-1
 494 0 l 1,12,-1
 289 0 l 1,0,-1
EndSplineSet
EndChar

StartChar: l
Encoding: 108 108 136
Width: 309
Flags: HMW
HStem: -11 21G<181 238> 645 20G<319 319>
LayerCount: 2
Fore
SplineSet
319 665 m 1,0,-1
 227 143 l 1,1,2
 256 137 256 137 272 136 c 1,3,-1
 238 -11 l 1,4,5
 106 -11 106 -11 67 8.5 c 0,6,7
 50 17 50 17 38 33.5 c 128,-1,8
 26 50 26 50 26 64 c 128,-1,9
 26 78 26 78 28 94 c 2,10,-1
 126 650 l 1,11,-1
 319 665 l 1,0,-1
EndSplineSet
EndChar

StartChar: less
Encoding: 60 60 137
Width: 600
Flags: HMW
HStem: 67 21G<400 400> 537 20G<497 497>
LayerCount: 2
Fore
SplineSet
497 557 m 1,0,-1
 537 423 l 1,1,-1
 250 315 l 1,2,-1
 249 308 l 1,3,-1
 488 201 l 1,4,-1
 400 67 l 1,5,-1
 96 221 l 1,6,-1
 128 403 l 1,7,-1
 497 557 l 1,0,-1
EndSplineSet
EndChar

StartChar: logicalnot
Encoding: 172 172 138
Width: 600
Flags: HMW
HStem: 100 21G<352 480 352 352> 240 144<72 530 97 377>
LayerCount: 2
Fore
SplineSet
72 240 m 1,0,-1
 97 384 l 1,1,-1
 530 384 l 1,2,-1
 480 100 l 1,3,-1
 352 100 l 1,4,-1
 377 240 l 1,5,-1
 72 240 l 1,0,-1
EndSplineSet
EndChar

StartChar: lslash
Encoding: 322 322 139
Width: 309
Flags: HMW
HStem: -11 21G<181 238> 645 20G<319 319>
LayerCount: 2
Fore
SplineSet
319 665 m 1,0,-1
 281 451 l 1,1,-1
 327 466 l 1,2,3
 359 365 359 365 359 354 c 0,4,5
 359 334 359 334 309 318 c 2,6,-1
 254 300 l 1,7,-1
 227 143 l 1,8,9
 256 137 256 137 272 136 c 1,10,-1
 238 -11 l 1,11,12
 106 -11 106 -11 67 8.5 c 0,13,14
 50 17 50 17 38 33.5 c 128,-1,15
 26 50 26 50 26 64 c 128,-1,16
 26 78 26 78 28 94 c 2,17,-1
 53 234 l 1,18,-1
 8 220 l 1,19,20
 -25 321 -25 321 -25 328 c 0,21,22
 -25 351 -25 351 25 367 c 2,23,-1
 79 385 l 1,24,-1
 126 650 l 1,25,-1
 319 665 l 1,0,-1
EndSplineSet
EndChar

StartChar: m
Encoding: 109 109 140
Width: 862
Flags: HMW
HStem: 0 21G<19 209 19 19 295 295 295 485 571 571 571 761> 350 165<325.5 443.5 343 443.5 380.5 619> 480 20G<107 202 202 202>
LayerCount: 2
Fore
SplineSet
356 350 m 1,0,-1
 343 350 l 2,1,2
 321 350 321 350 307.5 348 c 128,-1,3
 294 346 294 346 280 335.5 c 128,-1,4
 266 325 266 325 262 304 c 2,5,-1
 209 0 l 1,6,-1
 19 0 l 1,7,-1
 107 500 l 1,8,-1
 202 500 l 1,9,-1
 237 454 l 1,10,11
 268 482 268 482 316 498.5 c 128,-1,12
 364 515 364 515 414 515 c 0,13,14
 503 515 503 515 538 474 c 1,15,16
 602 515 602 515 680.5 515 c 0,17,18
 833 515 833 515 833 421 c 0,19,20
 833 414 833 414 831 400 c 2,21,-1
 761 0 l 1,22,-1
 571 0 l 1,23,-1
 632 350 l 1,24,-1
 619 350 l 2,25,26
 546 350 546 350 539 310 c 2,27,-1
 485 0 l 1,28,-1
 295 0 l 1,29,-1
 356 350 l 1,0,-1
EndSplineSet
EndChar

StartChar: macron
Encoding: 175 175 141
Width: 399
Flags: HMW
HStem: 568 127<80.5 97 97 303 303 319.5 68 331>
LayerCount: 2
Fore
SplineSet
331 568 m 1,0,-1
 97 568 l 2,1,2
 72 568 72 568 62.5 575 c 128,-1,3
 53 582 53 582 53 597.5 c 0,4,5
 53 613 53 613 57 632 c 2,6,-1
 68 695 l 1,7,-1
 303 695 l 2,8,9
 328 695 328 695 337 689 c 128,-1,10
 346 683 346 683 346 671.5 c 0,11,12
 346 660 346 660 342 632 c 2,13,-1
 331 568 l 1,0,-1
EndSplineSet
EndChar

StartChar: minus
Encoding: 8722 8722 142
Width: 600
Flags: HMW
HStem: 240 144<71 529 96 504>
LayerCount: 2
Fore
SplineSet
71 240 m 1,0,-1
 96 384 l 1,1,-1
 529 384 l 1,2,-1
 504 240 l 1,3,-1
 71 240 l 1,0,-1
EndSplineSet
EndChar

StartChar: mu
Encoding: 181 181 143
Width: 590
Flags: HMW
HStem: -165 21G<-20 103 -20 -20> 0 21G<164 232 164 164 390 485 390 390> 480 20G<98 288 288 288 383 383> 495 20G<575 575>
LayerCount: 2
Fore
SplineSet
288 500 m 1,0,-1
 223 131 l 1,1,-1
 252 131 l 2,2,3
 286 131 286 131 303 138.5 c 128,-1,4
 320 146 320 146 325 173 c 2,5,-1
 383 500 l 1,6,-1
 575 515 l 1,7,-1
 485 0 l 1,8,-1
 390 0 l 1,9,-1
 356 43 l 1,10,11
 313 0 313 0 232 0 c 2,12,-1
 164 0 l 1,13,-1
 103 -165 l 1,14,-1
 -20 -165 l 1,15,-1
 98 500 l 1,16,-1
 288 500 l 1,0,-1
EndSplineSet
EndChar

StartChar: multiply
Encoding: 215 215 144
Width: 600
Flags: HMW
HStem: 75 21G<129 129 385 385> 529 20G<212 212 468 468>
LayerCount: 2
Fore
SplineSet
129 75 m 1,0,-1
 50 177 l 1,1,-1
 202 312 l 1,2,-1
 97 447 l 1,3,-1
 212 549 l 1,4,-1
 316 414 l 1,5,-1
 468 549 l 1,6,-1
 547 447 l 1,7,-1
 396 312 l 1,8,-1
 500 177 l 1,9,-1
 385 75 l 1,10,-1
 281 210 l 1,11,-1
 129 75 l 1,0,-1
EndSplineSet
EndChar

StartChar: n
Encoding: 110 110 145
Width: 595
Flags: HMW
HStem: 0 21G<19 209 19 19 304 494 304 304> 480 20G<107 202 202 202> 495 20G<402.5 481.5>
LayerCount: 2
Fore
SplineSet
202 500 m 1,0,-1
 241 450 l 1,1,2
 339 515 339 515 442 515 c 0,3,4
 501 515 501 515 533.5 491 c 128,-1,5
 566 467 566 467 566 423 c 0,6,7
 566 416 566 416 564 400 c 2,8,-1
 494 0 l 1,9,-1
 304 0 l 1,10,-1
 365 350 l 1,11,-1
 336 350 l 2,12,13
 304 350 304 350 286 342.5 c 128,-1,14
 268 335 268 335 264 312 c 2,15,-1
 209 0 l 1,16,-1
 19 0 l 1,17,-1
 107 500 l 1,18,-1
 202 500 l 1,0,-1
EndSplineSet
EndChar

StartChar: nine
Encoding: 57 57 146
Width: 600
Flags: HMW
HStem: -15 168<207.5 246 207.5 343> 228 148<265 286 286 303 303 322 265 334> 489 151<322 341 341 380>
LayerCount: 2
Fore
SplineSet
277 447 m 2,0,-1
 265 376 l 1,1,-1
 303 376 l 2,2,3
 335 376 335 376 348.5 383.5 c 128,-1,4
 362 391 362 391 367 418 c 2,5,-1
 380 489 l 1,6,-1
 341 489 l 2,7,8
 309 489 309 489 295 481.5 c 128,-1,9
 281 474 281 474 277 447 c 2,0,-1
334 228 m 1,10,-1
 286 228 l 2,11,12
 147.827586207 228 147.827586207 228 105 262.5 c 128,-1,13
 62 297.138888889 62 297.138888889 62 367 c 0,14,15
 62 503 62 503 138.5 571.5 c 128,-1,16
 215 640 215 640 358 640 c 0,17,18
 470 640 470 640 518.5 592.5 c 128,-1,19
 567 545 567 545 567 446 c 0,20,21
 567 391 567 391 553 313 c 0,22,23
 522 141 522 141 454.5 63 c 128,-1,24
 387 -15 387 -15 250.5 -15 c 128,-1,25
 114 -15 114 -15 13 11 c 1,26,-1
 70 176 l 1,27,28
 156 153 156 153 216 153 c 128,-1,29
 276 153 276 153 322 159 c 1,30,-1
 334 228 l 1,10,-1
EndSplineSet
EndChar

StartChar: ntilde
Encoding: 241 241 147
Width: 595
Flags: HMW
HStem: 0 21G<19 209 19 19 304 494 304 304> 480 20G<107 202 202 202> 495 20G<402.5 481.5> 701 20G<345 377>
LayerCount: 2
Fore
SplineSet
202 500 m 1,0,-1
 241 450 l 1,1,2
 339 515 339 515 442 515 c 0,3,4
 501 515 501 515 533.5 491 c 128,-1,5
 566 467 566 467 566 423 c 0,6,7
 566 416 566 416 564 400 c 2,8,-1
 494 0 l 1,9,-1
 304 0 l 1,10,-1
 365 350 l 1,11,-1
 336 350 l 2,12,13
 304 350 304 350 286 342.5 c 128,-1,14
 268 335 268 335 264 312 c 2,15,-1
 209 0 l 1,16,-1
 19 0 l 1,17,-1
 107 500 l 1,18,-1
 202 500 l 1,0,-1
436 676 m 1,19,-1
 522 716 l 1,20,-1
 555 635 l 1,21,22
 425.715959653 554.197474783 425.715959653 554.197474783 411.273558858 548.641380179 c 128,-1,23
 396.831158063 543.085285575 396.831158063 543.085285575 384.415579031 543.042642788 c 128,-1,24
 372 543 372 543 364 545 c 128,-1,25
 356 547 356 547 348 552.5 c 128,-1,26
 340 558 340 558 335 561.5 c 0,27,28
 326.666666667 567.333333333 326.666666667 567.333333333 306 588 c 1,29,-1
 221 548 l 1,30,-1
 187 629 l 1,31,32
 316.284040347 709.802525217 316.284040347 709.802525217 330.726441142 715.358619821 c 128,-1,33
 345.168841937 720.914714425 345.168841937 720.914714425 357.584420969 720.957357212 c 128,-1,34
 370 721 370 721 378 719 c 128,-1,35
 386 717 386 717 394 711.5 c 128,-1,36
 402 706 402 706 407 702.5 c 0,37,38
 415.333333333 696.666666667 415.333333333 696.666666667 436 676 c 1,19,-1
EndSplineSet
EndChar

StartChar: numbersign
Encoding: 35 35 148
Width: 746
Flags: HMW
HStem: -40 21G<62 113 62 62 326 377 326 326> 645 20G<374 425 425 425 638 689 689 689>
LayerCount: 2
Fore
SplineSet
425 665 m 1,0,-1
 349 474 l 1,1,-1
 529 474 l 1,2,-1
 595 640 l 2,3,4
 600 650 600 650 604 654 c 0,5,6
 615 665 615 665 638 665 c 2,7,-1
 689 665 l 1,8,-1
 613 474 l 1,9,-1
 746 474 l 1,10,-1
 728 426 l 2,11,12
 717.957264957 401.897435897 717.957264957 401.897435897 705.5 398.5 c 0,13,14
 700 397 700 397 689 395 c 1,15,-1
 582 395 l 1,16,-1
 516 228 l 1,17,-1
 649 228 l 1,18,-1
 631 181 l 1,19,20
 623 163 623 163 615 157.5 c 128,-1,21
 607 152 607 152 592 150 c 1,22,-1
 485 150 l 1,23,-1
 420 -15 l 2,24,25
 415 -25 415 -25 411 -29 c 0,26,27
 400 -40 400 -40 377 -40 c 2,28,-1
 326 -40 l 1,29,-1
 401 150 l 1,30,-1
 221 150 l 1,31,-1
 156 -15 l 2,32,33
 151 -25 151 -25 147 -29 c 0,34,35
 136 -40 136 -40 113 -40 c 2,36,-1
 62 -40 l 1,37,-1
 137 150 l 1,38,-1
 0 150 l 1,39,-1
 19 197 l 2,40,41
 26 215 26 215 34.5 220.5 c 128,-1,42
 43 226 43 226 58 228 c 1,43,-1
 168 228 l 1,44,-1
 234 395 l 1,45,-1
 97 395 l 1,46,-1
 116 443 l 2,47,48
 126.042735043 467.102564103 126.042735043 467.102564103 138.5 470.5 c 0,49,50
 144 472 144 472 155 474 c 1,51,-1
 265 474 l 1,52,-1
 331 640 l 2,53,54
 336 650 336 650 340 654 c 0,55,56
 351 665 351 665 374 665 c 2,57,-1
 425 665 l 1,0,-1
318 395 m 1,58,-1
 252 228 l 1,59,-1
 432 228 l 1,60,-1
 498 395 l 1,61,-1
 318 395 l 1,58,-1
EndSplineSet
EndChar

StartChar: o
Encoding: 111 111 149
Width: 590
Flags: HMW
HStem: -15 21G<173.5 356> 495 20G<232.5 416>
LayerCount: 2
Fore
SplineSet
35 167 m 0,0,1
 35 317 35 317 111.5 416 c 128,-1,2
 188 515 188 515 341 515 c 0,3,4
 452 515 452 515 503.5 469.5 c 128,-1,5
 555 424 555 424 555 330 c 0,6,7
 555 236 555 236 524.5 160 c 128,-1,8
 494 84 494 84 423 34.5 c 128,-1,9
 352 -15 352 -15 245 -15 c 0,10,11
 35 -15 35 -15 35 167 c 0,0,1
261 327 m 2,13,-1
 227 131 l 1,14,-1
 256 131 l 2,15,16
 290 131 290 131 307 138.5 c 128,-1,17
 324 146 324 146 329 173 c 2,18,-1
 364 369 l 1,19,-1
 334 369 l 2,20,21
 300 369 300 369 283 361.5 c 128,-1,22
 266 354 266 354 261 327 c 2,13,-1
EndSplineSet
EndChar

StartChar: oacute
Encoding: 243 243 150
Width: 590
Flags: HMW
HStem: -15 21G<173.5 356> 495 20G<232.5 416> 719 20G<417 422.5>
LayerCount: 2
Fore
SplineSet
35 167 m 0,0,1
 35 317 35 317 111.5 416 c 128,-1,2
 188 515 188 515 341 515 c 0,3,4
 452 515 452 515 503.5 469.5 c 128,-1,5
 555 424 555 424 555 330 c 0,6,7
 555 236 555 236 524.5 160 c 128,-1,8
 494 84 494 84 423 34.5 c 128,-1,9
 352 -15 352 -15 245 -15 c 0,10,11
 35 -15 35 -15 35 167 c 0,0,1
261 327 m 2,13,-1
 227 131 l 1,14,-1
 256 131 l 2,15,16
 290 131 290 131 307 138.5 c 128,-1,17
 324 146 324 146 329 173 c 2,18,-1
 364 369 l 1,19,-1
 334 369 l 2,20,21
 300 369 300 369 283 361.5 c 128,-1,22
 266 354 266 354 261 327 c 2,13,-1
434 574 m 2,23,-1
 260 539 l 1,24,-1
 219 596 l 1,25,-1
 408 735 l 2,26,27
 414 739 414 739 421 739 c 0,28,29
 428 739 428 739 437 728 c 2,30,-1
 500 654 l 2,31,32
 509 643.5 509 643.5 509 637.25 c 0,33,34
 509 631 509 631 506.5 627.5 c 0,35,36
 504 624 504 624 460 586 c 0,37,38
 450 577 450 577 434 574 c 2,23,-1
EndSplineSet
EndChar

StartChar: ocircumflex
Encoding: 244 244 151
Width: 590
Flags: HMW
HStem: -15 21G<173.5 356> 495 20G<232.5 416> 720 20G<369 414 414 417.5>
LayerCount: 2
Fore
SplineSet
35 167 m 0,0,1
 35 317 35 317 111.5 416 c 128,-1,2
 188 515 188 515 341 515 c 0,3,4
 452 515 452 515 503.5 469.5 c 128,-1,5
 555 424 555 424 555 330 c 0,6,7
 555 236 555 236 524.5 160 c 128,-1,8
 494 84 494 84 423 34.5 c 128,-1,9
 352 -15 352 -15 245 -15 c 0,10,11
 35 -15 35 -15 35 167 c 0,0,1
261 327 m 2,13,-1
 227 131 l 1,14,-1
 256 131 l 2,15,16
 290 131 290 131 307 138.5 c 128,-1,17
 324 146 324 146 329 173 c 2,18,-1
 364 369 l 1,19,-1
 334 369 l 2,20,21
 300 369 300 369 283 361.5 c 128,-1,22
 266 354 266 354 261 327 c 2,13,-1
369 740 m 2,23,-1
 414 740 l 2,24,25
 422 740 422 740 427 731 c 2,26,-1
 510 586 l 1,27,-1
 444 537 l 1,28,-1
 366 600 l 1,29,-1
 267 537 l 1,30,-1
 219 586 l 1,31,-1
 351 731 l 2,32,33
 358.5 740 358.5 740 369 740 c 2,23,-1
EndSplineSet
EndChar

StartChar: odieresis
Encoding: 246 246 152
Width: 590
Flags: HMW
HStem: -15 21G<173.5 356> 495 20G<232.5 416> 552 156<239 277.5 447 486>
VStem: 181 155<620.5 639.5> 389 166
LayerCount: 2
Fore
SplineSet
35 167 m 0,0,1
 35 317 35 317 111.5 416 c 128,-1,2
 188 515 188 515 341 515 c 0,3,4
 452 515 452 515 503.5 469.5 c 128,-1,5
 555 424 555 424 555 330 c 128,-1,6
 555 236 555 236 524.5 160 c 128,-1,7
 494 84 494 84 423 34.5 c 128,-1,8
 352 -15 352 -15 245 -15 c 0,9,10
 35 -15 35 -15 35 167 c 0,0,1
261 327 m 2,11,-1
 227 131 l 1,12,-1
 256 131 l 2,13,14
 290 131 290 131 307 138.5 c 128,-1,15
 324 146 324 146 329 173 c 2,16,-1
 364 369 l 1,17,-1
 334 369 l 2,18,19
 300 369 300 369 283 361.5 c 128,-1,20
 266 354 266 354 261 327 c 2,11,-1
409.5 683.5 m 128,-1,22
 430 708 430 708 472.5 708 c 128,-1,23
 515 708 515 708 529.5 697 c 128,-1,24
 544 686 544 686 544 660 c 0,25,26
 544 601 544 601 523.5 576.5 c 128,-1,27
 503 552 503 552 460.5 552 c 128,-1,28
 418 552 418 552 403.5 563 c 128,-1,29
 389 574 389 574 389 600 c 0,30,21
 389 659 389 659 409.5 683.5 c 128,-1,22
201.5 683.5 m 128,-1,32
 222 708 222 708 264.5 708 c 128,-1,33
 307 708 307 708 321.5 697 c 128,-1,34
 336 686 336 686 336 660 c 0,35,36
 336 601 336 601 315 576.5 c 128,-1,37
 294 552 294 552 252 552 c 128,-1,38
 210 552 210 552 195.5 563 c 128,-1,39
 181 574 181 574 181 600 c 0,40,31
 181 659 181 659 201.5 683.5 c 128,-1,32
EndSplineSet
EndChar

StartChar: oe
Encoding: 339 339 153
Width: 869
Flags: HMW
HStem: -15 147<577.5 587.5> 170 116<536 596> 369 146<315 334 334 364 618 637 637 676>
LayerCount: 2
Fore
SplineSet
536 170 m 1,0,-1
 530 135 l 1,1,2
 558.5 132 558.5 132 587 132 c 0,3,4
 679 132 679 132 770 162 c 1,5,-1
 767 15 l 1,6,7
 656 -15 656 -15 555.5 -15 c 128,-1,8
 455 -15 455 -15 402 21 c 1,9,10
 336 -15 336 -15 237 -15 c 0,11,12
 35 -15 35 -15 35 167 c 0,13,14
 35 317 35 317 111.5 416 c 128,-1,15
 188 515 188 515 341 515 c 0,16,17
 434 515 434 515 487 481 c 1,18,19
 547 515 547 515 628 515 c 0,20,21
 753 515 753 515 802 488.5 c 128,-1,22
 851 462 851 462 851 399 c 128,-1,23
 851 336 851 336 835.5 296 c 128,-1,24
 820 256 820 256 795 232 c 128,-1,25
 770 208 770 208 727.5 194.5 c 0,26,27
 656.386138614 171.910891089 656.386138614 171.910891089 536 170 c 1,0,-1
261 327 m 2,28,-1
 227 131 l 1,29,-1
 256 131 l 2,30,31
 290 131 290 131 307 138.5 c 128,-1,32
 324 146 324 146 329 173 c 2,33,-1
 364 369 l 1,34,-1
 334 369 l 2,35,36
 300 369 300 369 283 361.5 c 128,-1,37
 266 354 266 354 261 327 c 2,28,-1
564 327 m 2,38,-1
 557 286 l 1,39,-1
 596 286 l 2,40,41
 629 286 629 286 646 293.5 c 128,-1,42
 663 301 663 301 668 328 c 2,43,-1
 676 369 l 1,44,-1
 637 369 l 2,45,46
 603 369 603 369 586 361.5 c 128,-1,47
 569 354 569 354 564 327 c 2,38,-1
EndSplineSet
EndChar

StartChar: ogonek
Encoding: 731 731 154
Width: 500
Flags: HMW
HStem: -165 21G<201.5 247.5> 1 20G<235 311 311 311>
LayerCount: 2
Fore
SplineSet
311 21 m 1,0,-1
 326 0 l 1,1,-1
 270 -26 l 1,2,3
 268 -40 268 -40 268 -46 c 0,4,5
 268 -58 268 -58 295 -58 c 2,6,-1
 342 -58 l 1,7,-1
 337 -146 l 1,8,9
 288 -165 288 -165 238 -165 c 128,-1,10
 188 -165 188 -165 164.5 -145.5 c 128,-1,11
 141 -126 141 -126 141 -93.5 c 128,-1,12
 141 -61 141 -61 166 -30 c 128,-1,13
 191 1 191 1 235 21 c 1,14,-1
 311 21 l 1,0,-1
EndSplineSet
EndChar

StartChar: ograve
Encoding: 242 242 155
Width: 590
Flags: HMW
HStem: -15 21G<173.5 356> 495 20G<232.5 416> 719 20G<305.5 311>
LayerCount: 2
Fore
SplineSet
35 167 m 0,0,1
 35 317 35 317 111.5 416 c 128,-1,2
 188 515 188 515 341 515 c 0,3,4
 452 515 452 515 503.5 469.5 c 128,-1,5
 555 424 555 424 555 330 c 0,6,7
 555 236 555 236 524.5 160 c 128,-1,8
 494 84 494 84 423 34.5 c 128,-1,9
 352 -15 352 -15 245 -15 c 0,10,11
 35 -15 35 -15 35 167 c 0,0,1
261 327 m 2,13,-1
 227 131 l 1,14,-1
 256 131 l 2,15,16
 290 131 290 131 307 138.5 c 128,-1,17
 324 146 324 146 329 173 c 2,18,-1
 364 369 l 1,19,-1
 334 369 l 2,20,21
 300 369 300 369 283 361.5 c 128,-1,22
 266 354 266 354 261 327 c 2,13,-1
468 539 m 1,23,-1
 294 574 l 2,24,25
 278 577 278 577 268 586 c 2,26,-1
 223 625 l 1,27,28
 219 631 219 631 219 637.25 c 0,29,30
 219 643.5 219 643.5 228 654 c 2,31,-1
 291 728 l 2,32,33
 300 739 300 739 307 739 c 0,34,35
 314 739 314 739 320 735 c 2,36,-1
 509 596 l 1,37,-1
 468 539 l 1,23,-1
EndSplineSet
EndChar

StartChar: one
Encoding: 49 49 156
Width: 600
Flags: HMW
HStem: 0 160<54 223 422 501 26 223> 605 20G<354 504 504 504>
LayerCount: 2
Fore
SplineSet
501 0 m 1,0,-1
 26 0 l 1,1,-1
 54 160 l 1,2,-1
 223 160 l 1,3,-1
 269 425 l 1,4,-1
 98 413 l 1,5,-1
 127 573 l 1,6,-1
 354 625 l 1,7,-1
 504 625 l 1,8,-1
 422 160 l 1,9,-1
 529 160 l 1,10,-1
 501 0 l 1,0,-1
EndSplineSet
EndChar

StartChar: onehalf
Encoding: 189 189 157
Width: 971
Flags: HMW
HStem: -40 21G<296 347 296 296> 0 105<733 875> 227 105<61 142 275 322 43 142> 645 20G<608 659 659 659>
LayerCount: 2
Fore
SplineSet
659 665 m 1,0,-1
 390 -15 l 2,1,2
 385 -25 385 -25 381 -29 c 0,3,4
 370 -40 370 -40 347 -40 c 2,5,-1
 296 -40 l 1,6,-1
 565 640 l 2,7,8
 570 650 570 650 574 654 c 0,9,10
 585 665 585 665 608 665 c 2,11,-1
 659 665 l 1,0,-1
641 273 m 1,12,-1
 642 381 l 1,13,14
 710 398 710 398 775.5 398 c 128,-1,15
 841 398 841 398 867 393 c 128,-1,16
 893 388 893 388 912.5 367.5 c 128,-1,17
 932 347 932 347 932 309 c 0,18,19
 932 300 932 300 928 270 c 1,20,21
 918 211 918 211 884 187 c 128,-1,22
 850 163 850 163 737 125 c 1,23,-1
 733 105 l 1,24,-1
 893 105 l 1,25,-1
 875 0 l 1,26,-1
 569 0 l 1,27,-1
 583 82 l 1,28,29
 592.285714286 128.428571429 592.285714286 128.428571429 605.642857143 144.214285714 c 128,-1,30
 619 160 619 160 625 168 c 128,-1,31
 631 176 631 176 650.5 186.5 c 128,-1,32
 670 197 670 197 677 201 c 128,-1,33
 684 205 684 205 712 217 c 128,-1,34
 740 229 740 229 749 233 c 2,35,-1
 789 251 l 1,36,-1
 795 286 l 1,37,38
 774 288 774 288 741 288 c 128,-1,39
 708 288 708 288 641 273 c 1,12,-1
322 227 m 1,40,-1
 43 227 l 1,41,-1
 61 332 l 1,42,-1
 142 332 l 1,43,-1
 168 480 l 1,44,-1
 76 475 l 1,45,-1
 96 584 l 1,46,-1
 226 616 l 1,47,-1
 325 616 l 1,48,-1
 275 332 l 1,49,-1
 340 332 l 1,50,-1
 322 227 l 1,40,-1
EndSplineSet
EndChar

StartChar: onequarter
Encoding: 188 188 158
Width: 971
Flags: HMW
HStem: -40 21G<326 377 326 326> 0 160<728 728 728 756 696 855> 60 100<696 738 883 902> 227 105<81 162 295 342 63 162> 645 20G<638 689 689 689>
LayerCount: 2
Fore
SplineSet
689 665 m 1,0,-1
 420 -15 l 2,1,2
 415 -25 415 -25 411 -29 c 0,3,4
 400 -40 400 -40 377 -40 c 2,5,-1
 326 -40 l 1,6,-1
 595 640 l 2,7,8
 600 650 600 650 604 654 c 0,9,10
 615 665 615 665 638 665 c 2,11,-1
 689 665 l 1,0,-1
728 0 m 1,12,-1
 738 60 l 1,13,-1
 563 60 l 1,14,-1
 578 144 l 1,15,-1
 710 389 l 1,16,-1
 923 389 l 1,17,-1
 883 160 l 1,18,-1
 920 160 l 1,19,-1
 902 60 l 1,20,-1
 865 60 l 1,21,-1
 855 0 l 1,22,-1
 728 0 l 1,12,-1
756 160 m 1,23,-1
 780 295 l 1,24,-1
 763 295 l 1,25,-1
 696 160 l 1,26,-1
 756 160 l 1,23,-1
342 227 m 1,27,-1
 63 227 l 1,28,-1
 81 332 l 1,29,-1
 162 332 l 1,30,-1
 188 480 l 1,31,-1
 96 475 l 1,32,-1
 116 584 l 1,33,-1
 246 616 l 1,34,-1
 345 616 l 1,35,-1
 295 332 l 1,36,-1
 360 332 l 1,37,-1
 342 227 l 1,27,-1
EndSplineSet
EndChar

StartChar: onesuperior
Encoding: 185 185 159
Width: 400
Flags: HMW
HStem: 343 105<55 136 269 316 37 136> 712 20G<220 319 319 319>
LayerCount: 2
Fore
SplineSet
316 343 m 1,0,-1
 37 343 l 1,1,-1
 55 448 l 1,2,-1
 136 448 l 1,3,-1
 162 596 l 1,4,-1
 70 591 l 1,5,-1
 90 700 l 1,6,-1
 220 732 l 1,7,-1
 319 732 l 1,8,-1
 269 448 l 1,9,-1
 334 448 l 1,10,-1
 316 343 l 1,0,-1
EndSplineSet
EndChar

StartChar: ordfeminine
Encoding: 170 170 160
Width: 458
Flags: HMW
HStem: 191 109<29 417 94 352> 750 20G<208 323>
LayerCount: 2
Fore
SplineSet
29 191 m 1,0,-1
 43 271 l 2,1,2
 46 291 46 291 57 295.5 c 128,-1,3
 68 300 68 300 94 300 c 2,4,-1
 417 300 l 1,5,-1
 404 222 l 2,6,7
 401 202 401 202 389 196.5 c 128,-1,8
 377 191 377 191 352 191 c 2,9,-1
 29 191 l 1,0,-1
485 738 m 1,10,-1
 419 356 l 1,11,-1
 342 356 l 1,12,-1
 306 402 l 1,13,14
 254 344 254 344 187 344 c 0,15,16
 53 344 53 344 53 489 c 0,17,18
 53 604 53 604 114.5 687 c 128,-1,19
 176 770 176 770 285 770 c 0,20,21
 378 770 378 770 485 738 c 1,10,-1
235 619 m 2,22,-1
 208 461 l 1,23,-1
 231 461 l 2,24,25
 263.615384615 461 263.615384615 461 275.307692308 469 c 128,-1,26
 287 477 287 477 289 490 c 2,27,-1
 318 653 l 1,28,-1
 294 653 l 2,29,30
 267 653 267 653 253 646.5 c 128,-1,31
 239 640 239 640 235 619 c 2,22,-1
EndSplineSet
EndChar

StartChar: ordmasculine
Encoding: 186 186 161
Width: 458
Flags: HMW
HStem: 191 109<29 417 94 352> 750 20G<221 368.5>
LayerCount: 2
Fore
SplineSet
62 490 m 0,0,1
 62 611 62 611 123.5 690.5 c 128,-1,2
 185 770 185 770 308 770 c 0,3,4
 397 770 397 770 438.5 733.5 c 128,-1,5
 480 697 480 697 480 623 c 0,6,7
 480 503 480 503 418 423.5 c 128,-1,8
 356 344 356 344 233 344 c 0,9,10
 144 344 144 344 103 380.5 c 128,-1,11
 62 417 62 417 62 490 c 0,0,1
244 619 m 2,12,-1
 216 461 l 1,13,-1
 240 461 l 2,14,15
 267 461 267 461 281 467.5 c 128,-1,16
 295 474 295 474 298 495 c 2,17,-1
 326 653 l 1,18,-1
 302 653 l 2,19,20
 275 653 275 653 261 646.5 c 128,-1,21
 247 640 247 640 244 619 c 2,12,-1
29 191 m 1,22,-1
 43 271 l 2,23,24
 46 291 46 291 57 295.5 c 128,-1,25
 68 300 68 300 94 300 c 2,26,-1
 417 300 l 1,27,-1
 404 222 l 2,28,29
 401 202 401 202 389 196.5 c 128,-1,30
 377 191 377 191 352 191 c 2,31,-1
 29 191 l 1,22,-1
EndSplineSet
EndChar

StartChar: oslash
Encoding: 248 248 162
Width: 590
Flags: HMW
HStem: -104 21G<43 114 43 43> -15 21G<238.5 356> 495 20G<232.5 350.5> 581 20G<475 546 546 546>
LayerCount: 2
Fore
SplineSet
35 167 m 0,0,1
 35 317 35 317 111.5 416 c 128,-1,2
 188 515 188 515 341 515 c 0,3,4
 371 515 371 515 395 512 c 1,5,-1
 432 576 l 2,6,7
 437 586 437 586 441 590 c 0,8,9
 452 601 452 601 475 601 c 2,10,-1
 546 601 l 1,11,-1
 480 486 l 1,12,13
 555 442 555 442 555 339 c 128,-1,14
 555 236 555 236 524.5 160 c 128,-1,15
 494 84 494 84 423 34.5 c 128,-1,16
 352 -15 352 -15 248 -15 c 0,17,18
 219 -15 219 -15 195 -12 c 1,19,-1
 157 -79 l 2,20,21
 152 -89 152 -89 148 -93 c 0,22,23
 137 -104 137 -104 114 -104 c 2,24,-1
 43 -104 l 1,25,-1
 110 13 l 1,26,27
 35 55 35 55 35 167 c 0,0,1
261 327 m 2,28,-1
 236 181 l 1,29,-1
 343 369 l 1,30,-1
 334 369 l 2,31,32
 300 369 300 369 283 361.5 c 128,-1,33
 266 354 266 354 261 327 c 2,28,-1
248 131 m 1,34,-1
 256 131 l 2,35,36
 290 131 290 131 307 138.5 c 128,-1,37
 324 146 324 146 329 173 c 2,38,-1
 355 317 l 1,39,-1
 248 131 l 1,34,-1
EndSplineSet
EndChar

StartChar: otilde
Encoding: 245 245 163
Width: 590
Flags: HMW
HStem: -15 21G<173.5 356> 495 20G<232.5 416> 701 20G<337 369>
LayerCount: 2
Fore
SplineSet
35 167 m 0,0,1
 35 317 35 317 111.5 416 c 128,-1,2
 188 515 188 515 341 515 c 0,3,4
 452 515 452 515 503.5 469.5 c 128,-1,5
 555 424 555 424 555 330 c 128,-1,6
 555 236 555 236 524.5 160 c 128,-1,7
 494 84 494 84 423 34.5 c 128,-1,8
 352 -15 352 -15 245 -15 c 0,9,10
 35 -15 35 -15 35 167 c 0,0,1
261 327 m 2,11,-1
 227 131 l 1,12,-1
 256 131 l 2,13,14
 290 131 290 131 307 138.5 c 128,-1,15
 324 146 324 146 329 173 c 2,16,-1
 364 369 l 1,17,-1
 334 369 l 2,18,19
 300 369 300 369 283 361.5 c 128,-1,20
 266 354 266 354 261 327 c 2,11,-1
428 676 m 1,21,-1
 514 716 l 1,22,-1
 547 635 l 1,23,24
 417.715959653 554.197474783 417.715959653 554.197474783 403.273558858 548.641380179 c 128,-1,25
 388.831158063 543.085285575 388.831158063 543.085285575 376.415579031 543.042642788 c 128,-1,26
 364 543 364 543 356 545 c 128,-1,27
 348 547 348 547 340 552.5 c 128,-1,28
 332 558 332 558 327 561.5 c 0,29,30
 318.666666667 567.333333333 318.666666667 567.333333333 298 588 c 1,31,-1
 213 548 l 1,32,-1
 179 629 l 1,33,34
 308.284040347 709.802525217 308.284040347 709.802525217 322.726441142 715.358619821 c 128,-1,35
 337.168841937 720.914714425 337.168841937 720.914714425 349.584420969 720.957357212 c 128,-1,36
 362 721 362 721 370 719 c 128,-1,37
 378 717 378 717 386 711.5 c 128,-1,38
 394 706 394 706 399 702.5 c 0,39,40
 407.333333333 696.666666667 407.333333333 696.666666667 428 676 c 1,21,-1
EndSplineSet
EndChar

StartChar: p
Encoding: 112 112 164
Width: 595
Flags: HMW
HStem: -165 21G<-10 -10> 0 21G<210 320 210 210> 480 20G<108 203 203 203> 495 20G<355.5 459>
LayerCount: 2
Fore
SplineSet
108 500 m 1,0,-1
 203 500 l 1,1,-1
 230 450 l 1,2,3
 281 515 281 515 395 515 c 0,4,5
 561 515 561 515 561 331 c 0,6,7
 561 258.741935484 561 258.741935484 541 194.870967742 c 128,-1,8
 521 131 521 131 496 93 c 128,-1,9
 471 55 471 55 425 27.5 c 128,-1,10
 379 0 379 0 320 0 c 2,11,-1
 210 0 l 1,12,-1
 183 -150 l 1,13,-1
 -10 -165 l 1,14,-1
 108 500 l 1,0,-1
268 332 m 1,15,-1
 233 131 l 1,16,-1
 263 131 l 2,17,18
 297 131 297 131 313.5 138.5 c 128,-1,19
 330 146 330 146 335 173 c 2,20,-1
 370 369 l 1,21,-1
 341 369 l 2,22,23
 300.411764706 369 300.411764706 369 286.205882353 358.5 c 128,-1,24
 272 348 272 348 268 332 c 1,15,-1
EndSplineSet
EndChar

StartChar: paragraph
Encoding: 182 182 165
Width: 604
Flags: HMW
HStem: -165 21G<-5 275 -5 -5> 605 20G<302 605 605 605>
LayerCount: 2
Fore
SplineSet
234 0 m 1,0,-1
 131 -25 l 1,1,-1
 173 218 l 1,2,3
 54 236 54 236 54 359 c 0,4,5
 54 468.25 54 468.25 108 542.5 c 0,6,7
 136 581 136 581 185.5 603 c 128,-1,8
 235 625 235 625 302 625 c 2,9,-1
 605 625 l 1,10,-1
 576 465 l 1,11,-1
 528 465 l 1,12,-1
 446 0 l 2,13,14
 417 -165 417 -165 275 -165 c 2,15,-1
 -5 -165 l 1,16,-1
 4 -114 l 1,17,-1
 206 -55 l 1,18,19
 253.326203209 -42.3796791444 253.326203209 -42.3796791444 258 -12 c 2,20,-1
 343 465 l 1,21,-1
 315 465 l 1,22,-1
 234 0 l 1,0,-1
EndSplineSet
EndChar

StartChar: parenleft
Encoding: 40 40 166
Width: 314
Flags: HMW
HStem: -66 21G<187 187> 670 20G<320 320>
VStem: 0 170<149 207 149 209.5>
LayerCount: 2
Fore
SplineSet
320 690 m 1,0,-1
 304 543 l 1,1,2
 286 536 286 536 273.5 526.5 c 128,-1,3
 261 517 261 517 243 494 c 0,4,5
 207.464516129 448.593548387 207.464516129 448.593548387 183 312 c 0,6,7
 170 238 170 238 170 195 c 128,-1,8
 170 152 170 152 179.5 127 c 128,-1,9
 189 102 189 102 197.5 95.5 c 128,-1,10
 206 89 206 89 222 81 c 1,11,-1
 187 -66 l 1,12,13
 0 -40 0 -40 0 186 c 0,14,15
 0 242 0 242 12 312 c 0,16,17
 75 658 75 658 320 690 c 1,0,-1
EndSplineSet
EndChar

StartChar: parenright
Encoding: 41 41 167
Width: 331
Flags: HMW
HStem: -76 21G<-15 -15> 660 20G<118 118>
VStem: 134 171<405.5 462>
LayerCount: 2
Fore
SplineSet
82 533 m 1,0,-1
 118 680 l 1,1,2
 305 654 305 654 305 429 c 0,3,4
 305 378 305 378 292 302 c 0,5,6
 232 -43 232 -43 -15 -76 c 1,7,-1
 1 71 l 1,8,9
 16 77 16 77 24.5 82 c 128,-1,10
 33 87 33 87 48.5 102.5 c 128,-1,11
 64 118 64 118 75 140.5 c 0,12,13
 102.035805627 195.800511509 102.035805627 195.800511509 118.017902813 284.900255754 c 128,-1,14
 134 374 134 374 134 416.5 c 128,-1,15
 134 459 134 459 125 484 c 128,-1,16
 116 509 116 509 106.5 517.5 c 128,-1,17
 97 526 97 526 82 533 c 1,0,-1
EndSplineSet
EndChar

StartChar: percent
Encoding: 37 37 168
Width: 971
Flags: HMW
HStem: -40 21G<307 358 307 307> -9 21G<648.5 771.5> 605 20G<201 323> 645 20G<619 670 670 670>
LayerCount: 2
Fore
SplineSet
670 665 m 1,0,-1
 401 -15 l 2,1,2
 396 -25 396 -25 392 -29 c 0,3,4
 381 -40 381 -40 358 -40 c 2,5,-1
 307 -40 l 1,6,-1
 576 640 l 2,7,8
 581 650 581 650 585 654 c 0,9,10
 596 665 596 665 619 665 c 2,11,-1
 670 665 l 1,0,-1
563 105 m 0,12,13
 563 137 563 137 573 193 c 128,-1,14
 583 249 583 249 595 283.5 c 128,-1,15
 607 318 607 318 629 346 c 0,16,17
 669.857142857 398 669.857142857 398 773 398 c 0,18,19
 849 398 849 398 879.5 370.5 c 128,-1,20
 910 343 910 343 910 285 c 0,21,22
 910 252 910 252 900 195.5 c 128,-1,23
 890 139 890 139 878 105 c 128,-1,24
 866 71 866 71 844.5 43 c 0,25,26
 804.571428571 -9 804.571428571 -9 701 -9 c 0,27,28
 625 -9 625 -9 594 18.5 c 128,-1,29
 563 46 563 46 563 105 c 0,12,13
718 274 m 2,30,-1
 686 92 l 1,31,-1
 704 92 l 2,32,33
 751 92 751 92 755 116 c 2,34,-1
 787 297 l 1,35,-1
 767 297 l 2,36,37
 722 297 722 297 718 274 c 2,30,-1
61 332 m 0,38,39
 61 364 61 364 71 420 c 128,-1,40
 81 476 81 476 93 510.5 c 128,-1,41
 105 545 105 545 127 573 c 0,42,43
 167.857142857 625 167.857142857 625 271 625 c 0,44,45
 347 625 347 625 377.5 597.5 c 128,-1,46
 408 570 408 570 408 512 c 0,47,48
 408 479 408 479 398 422.5 c 128,-1,49
 388 366 388 366 376 332 c 128,-1,50
 364 298 364 298 342.5 270 c 0,51,52
 302.571428571 218 302.571428571 218 199 218 c 0,53,54
 123 218 123 218 92 245.5 c 128,-1,55
 61 273 61 273 61 332 c 0,38,39
216 501 m 2,56,-1
 184 319 l 1,57,-1
 202 319 l 2,58,59
 249 319 249 319 253 343 c 2,60,-1
 285 524 l 1,61,-1
 265 524 l 2,62,63
 220 524 220 524 216 501 c 2,56,-1
EndSplineSet
EndChar

StartChar: period
Encoding: 46 46 169
Width: 267
Flags: HMW
HStem: -6 21G<86.5 162> 186 20G<115.5 191>
LayerCount: 2
Fore
SplineSet
35 99 m 0,0,1
 45 158 45 158 70.5 182 c 128,-1,2
 96 206 96 206 151.5 206 c 0,3,4
 207 206 207 206 226.5 191 c 128,-1,5
 246 176 246 176 246 148 c 0,6,7
 246 120 246 120 242 99 c 0,8,9
 232 40 232 40 206.5 17 c 128,-1,10
 181 -6 181 -6 125.5 -6 c 0,11,12
 70 -6 70 -6 50.5 8.5 c 128,-1,13
 31 23 31 23 31 50.5 c 0,14,15
 31 78 31 78 35 99 c 0,0,1
EndSplineSet
EndChar

StartChar: periodcentered
Encoding: 183 183 170
Width: 277
Flags: HMW
HStem: 144 21G<86.5 162> 336 20G<115.5 191>
LayerCount: 2
Fore
SplineSet
35 249 m 0,0,1
 45 308 45 308 70.5 332 c 128,-1,2
 96 356 96 356 151.5 356 c 0,3,4
 207 356 207 356 226.5 341 c 128,-1,5
 246 326 246 326 246 298 c 0,6,7
 246 270 246 270 242 249 c 0,8,9
 232 190 232 190 206.5 167 c 128,-1,10
 181 144 181 144 125.5 144 c 0,11,12
 70 144 70 144 50.5 158.5 c 128,-1,13
 31 173 31 173 31 200.5 c 0,14,15
 31 228 31 228 35 249 c 0,0,1
EndSplineSet
EndChar

StartChar: perthousand
Encoding: 8240 8240 171
Width: 1137
Flags: HMW
HStem: -40 21G<307 358 307 307> -9 101<686 704 704 717 686 720.5 872 890 890 903> 297 101<754.5 767 767 787 940.5 953 953 973> 605 20G<201 323> 645 20G<619 670 670 670>
LayerCount: 2
Fore
SplineSet
670 665 m 1,0,-1
 401 -15 l 2,1,2
 391 -40 391 -40 358 -40 c 2,3,-1
 307 -40 l 1,4,-1
 576 640 l 2,5,6
 586 665 586 665 619 665 c 2,7,-1
 670 665 l 1,0,-1
718 274 m 2,8,-1
 686 92 l 1,9,-1
 704 92 l 2,10,11
 751 92 751 92 755 116 c 2,12,-1
 787 297 l 1,13,-1
 767 297 l 2,14,15
 722 297 722 297 718 274 c 2,8,-1
61 332 m 0,16,17
 61 364 61 364 71 420 c 128,-1,18
 81 476 81 476 93 510.5 c 128,-1,19
 105 545 105 545 127 573 c 0,20,21
 167.857142857 625 167.857142857 625 271 625 c 0,22,23
 347 625 347 625 377.5 597.5 c 128,-1,24
 408 570 408 570 408 512 c 0,25,26
 408 479 408 479 398 422.5 c 128,-1,27
 388 366 388 366 376 332 c 128,-1,28
 364 298 364 298 342.5 270 c 0,29,30
 302.571428571 218 302.571428571 218 199 218 c 0,31,32
 123 218 123 218 92 245.5 c 128,-1,33
 61 273 61 273 61 332 c 0,16,17
216 501 m 2,34,-1
 184 319 l 1,35,-1
 202 319 l 2,36,37
 249 319 249 319 253 343 c 2,38,-1
 285 524 l 1,39,-1
 265 524 l 2,40,41
 220 524 220 524 216 501 c 2,34,-1
904 274 m 2,42,-1
 872 92 l 1,43,-1
 890 92 l 2,44,45
 937 92 937 92 941 116 c 2,46,-1
 973 297 l 1,47,-1
 953 297 l 2,48,49
 908 297 908 297 904 274 c 2,42,-1
563 105 m 0,50,51
 563 137 563 137 573 193 c 128,-1,52
 583 249 583 249 595 283.5 c 128,-1,53
 607 318 607 318 629 346 c 0,54,55
 669.857142857 398 669.857142857 398 773 398 c 0,56,57
 831 398 831 398 863 381 c 1,58,59
 902 398 902 398 968.5 398 c 128,-1,60
 1035 398 1035 398 1065.5 370.5 c 128,-1,61
 1096 343 1096 343 1096 285 c 0,62,63
 1096 252 1096 252 1086 195.5 c 128,-1,64
 1076 139 1076 139 1064 105 c 128,-1,65
 1052 71 1052 71 1030.5 43 c 0,66,67
 990.571428571 -9 990.571428571 -9 887 -9 c 0,68,69
 827 -9 827 -9 796 7 c 1,70,71
 760 -9 760 -9 692.5 -9 c 128,-1,72
 625 -9 625 -9 594 18.5 c 128,-1,73
 563 46 563 46 563 105 c 0,50,51
EndSplineSet
EndChar

StartChar: plus
Encoding: 43 43 172
Width: 600
Flags: HMW
HStem: 84 21G<191 327 191 191> 240 144<71 244 96 219 96 355 380 504> 519 20G<272 408 408 408>
LayerCount: 2
Fore
SplineSet
71 240 m 1,0,-1
 96 384 l 1,1,-1
 244 384 l 1,2,-1
 272 539 l 1,3,-1
 408 539 l 1,4,-1
 380 384 l 1,5,-1
 529 384 l 1,6,-1
 504 240 l 1,7,-1
 355 240 l 1,8,-1
 327 84 l 1,9,-1
 191 84 l 1,10,-1
 219 240 l 1,11,-1
 71 240 l 1,0,-1
EndSplineSet
EndChar

StartChar: plusminus
Encoding: 177 177 173
Width: 600
Flags: HMW
HStem: 0 144<31 489 56 464> 341 144<91 264 116 239 116 375 400 524> 620 20G<292 428 428 428>
LayerCount: 2
Fore
SplineSet
91 341 m 1,0,-1
 116 485 l 1,1,-1
 264 485 l 1,2,-1
 292 640 l 1,3,-1
 428 640 l 1,4,-1
 400 485 l 1,5,-1
 549 485 l 1,6,-1
 524 341 l 1,7,-1
 375 341 l 1,8,-1
 347 185 l 1,9,-1
 211 185 l 1,10,-1
 239 341 l 1,11,-1
 91 341 l 1,0,-1
31 0 m 1,12,-1
 56 144 l 1,13,-1
 489 144 l 1,14,-1
 464 0 l 1,15,-1
 31 0 l 1,12,-1
EndSplineSet
EndChar

StartChar: q
Encoding: 113 113 174
Width: 589
Flags: HMW
HStem: -165 21G<263 263> -15 21G<131 214.5> 480 20G<476 571 571 571> 495 20G<205.5 335>
LayerCount: 2
Fore
SplineSet
476 500 m 1,0,-1
 571 500 l 1,1,-1
 456 -151 l 1,2,-1
 263 -165 l 1,3,-1
 293 0 l 1,4,5
 253 -15 253 -15 195 -15 c 0,6,7
 106 -15 106 -15 67.5 36.5 c 128,-1,8
 29 88 29 88 29 160 c 0,9,10
 29 232 29 232 44.5 290.5 c 128,-1,11
 60 349 60 349 91.5 401 c 128,-1,12
 123 453 123 453 178.5 484 c 128,-1,13
 234 515 234 515 311.5 515 c 0,14,15
 389 515 389 515 444 472 c 1,16,-1
 476 500 l 1,0,-1
255 327 m 2,17,-1
 221 131 l 1,18,-1
 250 131 l 2,19,20
 284 131 284 131 301 138.5 c 128,-1,21
 318 146 318 146 323 173 c 2,22,-1
 358 369 l 1,23,-1
 328 369 l 2,24,25
 294 369 294 369 277 361.5 c 128,-1,26
 260 354 260 354 255 327 c 2,17,-1
EndSplineSet
EndChar

StartChar: question
Encoding: 63 63 175
Width: 454
Flags: HMW
HStem: -7 156<123 182> 489 151<246 255.5>
VStem: 40 218<59 82.5>
LayerCount: 2
Fore
SplineSet
286 302 m 1,0,-1
 247 175 l 1,1,-1
 85 175 l 1,2,-1
 105 363 l 2,3,4
 107 381 107 381 120 391 c 128,-1,5
 133 401 133 401 176 416 c 2,6,-1
 284 453 l 1,7,-1
 290 487 l 1,8,9
 266 489 266 489 234 489 c 128,-1,10
 202 489 202 489 148.5 482.5 c 128,-1,11
 95 476 95 476 74 469 c 1,12,-1
 76 612 l 1,13,14
 185 640 185 640 279 640 c 0,15,16
 370.826086957 640 370.826086957 640 411.913043478 625 c 128,-1,17
 453 610 453 610 468.5 585.5 c 128,-1,18
 484 561 484 561 484 523 c 0,19,20
 484 438 484 438 438.5 386.5 c 128,-1,21
 393 335 393 335 286 302 c 1,0,-1
40 44 m 0,22,23
 40 100 40 100 70.5 124.5 c 128,-1,24
 101 149 101 149 158.5 149 c 128,-1,25
 216 149 216 149 237 136.5 c 128,-1,26
 258 124 258 124 258 96 c 0,27,28
 258 40 258 40 231 16.5 c 128,-1,29
 204 -7 204 -7 143 -7 c 128,-1,30
 82 -7 82 -7 61 4.5 c 128,-1,31
 40 16 40 16 40 44 c 0,22,23
EndSplineSet
EndChar

StartChar: questiondown
Encoding: 191 191 176
Width: 434
Flags: HMW
HStem: -132 151<188.5 198> 359 156<262 321>
VStem: 186 218<425.5 449>
LayerCount: 2
Fore
SplineSet
158 206 m 1,0,-1
 197 333 l 1,1,-1
 359 333 l 1,2,-1
 339 145 l 2,3,4
 337 127 337 127 324 117 c 128,-1,5
 311 107 311 107 268 92 c 2,6,-1
 160 55 l 1,7,-1
 154 21 l 1,8,9
 178 19 178 19 210 19 c 128,-1,10
 242 19 242 19 295.5 25.5 c 128,-1,11
 349 32 349 32 370 39 c 1,12,-1
 368 -104 l 1,13,14
 259 -132 259 -132 165 -132 c 0,15,16
 73.1739130435 -132 73.1739130435 -132 32.0869565217 -117 c 128,-1,17
 -9 -102 -9 -102 -24.5 -77.5 c 128,-1,18
 -40 -53 -40 -53 -40 -15 c 0,19,20
 -40 70 -40 70 5.5 121.5 c 128,-1,21
 51 173 51 173 158 206 c 1,0,-1
404 464 m 0,22,23
 404 408 404 408 373.5 383.5 c 128,-1,24
 343 359 343 359 285.5 359 c 128,-1,25
 228 359 228 359 207 371.5 c 128,-1,26
 186 384 186 384 186 412 c 0,27,28
 186 468 186 468 213 491.5 c 128,-1,29
 240 515 240 515 301 515 c 128,-1,30
 362 515 362 515 383 503.5 c 128,-1,31
 404 492 404 492 404 464 c 0,22,23
EndSplineSet
EndChar

StartChar: quotedbl
Encoding: 34 34 177
Width: 500
Flags: HMW
HStem: 300 21G<76 171 76 76 314 314 314 409> 630 20G<126 246 246 257.5 364 484 484 495.5>
LayerCount: 2
Fore
SplineSet
277 629 m 1,0,-1
 266 565 l 2,1,2
 265 561 265 561 171 300 c 1,3,-1
 76 300 l 1,4,-1
 76 531 l 2,5,6
 76 567 76 567 86 623 c 0,7,8
 90 650 90 650 126 650 c 2,9,-1
 246 650 l 2,10,11
 277 650 277 650 277 629 c 1,0,-1
515 629 m 1,12,-1
 504 565 l 2,13,14
 503 561 503 561 409 300 c 1,15,-1
 314 300 l 1,16,-1
 314 531 l 2,17,18
 314 567 314 567 324 623 c 0,19,20
 328 650 328 650 364 650 c 2,21,-1
 484 650 l 2,22,23
 515 650 515 650 515 629 c 1,12,-1
EndSplineSet
EndChar

StartChar: quotedblbase
Encoding: 8222 8222 178
Width: 515
Flags: HMW
HStem: -149 21G<103 103 341 341> 188 20G<115.5 192.5 352.5 430>
LayerCount: 2
Fore
SplineSet
35 76 m 0,0,1
 35 208 35 208 160 208 c 0,2,3
 208 208 208 208 228 193 c 128,-1,4
 248 178 248 178 248 144 c 0,5,6
 248 129 248 129 243 101 c 2,7,-1
 241 89 l 1,8,9
 234.130434783 54.652173913 234.130434783 54.652173913 222.565217391 34.8260869565 c 128,-1,10
 211 15 211 15 202.5 3 c 128,-1,11
 194 -9 194 -9 192 -13 c 2,12,-1
 103 -149 l 1,13,-1
 24 -120 l 1,14,-1
 81 25 l 1,15,16
 35 33 35 33 35 76 c 0,0,1
273 75 m 0,17,18
 273 208 273 208 397 208 c 0,19,20
 446 208 446 208 466 193 c 128,-1,21
 486 178 486 178 486 144 c 0,22,23
 486 128 486 128 481 101 c 2,24,-1
 479 89 l 1,25,26
 472.130434783 54.652173913 472.130434783 54.652173913 460.565217391 34.8260869565 c 128,-1,27
 449 15 449 15 440.5 3 c 128,-1,28
 432 -9 432 -9 430 -13 c 2,29,-1
 341 -149 l 1,30,-1
 261 -120 l 1,31,-1
 319 25 l 1,32,33
 294 29 294 29 283.5 41 c 128,-1,34
 273 53 273 53 273 75 c 0,17,18
EndSplineSet
EndChar

StartChar: quotedblleft
Encoding: 8220 8220 179
Width: 497
Flags: HMW
HStem: 313 21G<91 168.5 328.5 405.5> 650 20G<180 180 418 418>
LayerCount: 2
Fore
SplineSet
486 445 m 0,0,1
 486 313 486 313 361 313 c 0,2,3
 313 313 313 313 293 328 c 128,-1,4
 273 343 273 343 273 371 c 0,5,6
 273 399 273 399 278 420 c 2,7,-1
 281 432 l 2,8,9
 293 478 293 478 329 534 c 2,10,-1
 418 670 l 1,11,-1
 497 641 l 1,12,-1
 440 496 l 1,13,14
 486 488 486 488 486 445 c 0,0,1
248 446 m 0,15,16
 248 313 248 313 124 313 c 0,17,18
 75 313 75 313 55 328 c 128,-1,19
 35 343 35 343 35 371.5 c 0,20,21
 35 400 35 400 40 420 c 2,22,-1
 43 432 l 2,23,24
 55 478 55 478 91 534 c 2,25,-1
 180 670 l 1,26,-1
 260 641 l 1,27,-1
 202 496 l 1,28,29
 227 492 227 492 237.5 480 c 128,-1,30
 248 468 248 468 248 446 c 0,15,16
EndSplineSet
EndChar

StartChar: quotedblright
Encoding: 8221 8221 180
Width: 532
Flags: HMW
HStem: 301 21G<124 124 362 362> 638 20G<136.5 213.5 373.5 451>
LayerCount: 2
Fore
SplineSet
56 526 m 0,0,1
 56 658 56 658 181 658 c 0,2,3
 229 658 229 658 249 643 c 128,-1,4
 269 628 269 628 269 594 c 0,5,6
 269 579 269 579 264 551 c 2,7,-1
 262 539 l 1,8,9
 255.130434783 504.652173913 255.130434783 504.652173913 243.565217391 484.826086957 c 128,-1,10
 232 465 232 465 223.5 453 c 128,-1,11
 215 441 215 441 213 437 c 2,12,-1
 124 301 l 1,13,-1
 45 330 l 1,14,-1
 102 475 l 1,15,16
 56 483 56 483 56 526 c 0,0,1
294 525 m 0,17,18
 294 658 294 658 418 658 c 0,19,20
 467 658 467 658 487 643 c 128,-1,21
 507 628 507 628 507 594 c 0,22,23
 507 578 507 578 502 551 c 2,24,-1
 500 539 l 1,25,26
 493.130434783 504.652173913 493.130434783 504.652173913 481.565217391 484.826086957 c 128,-1,27
 470 465 470 465 461.5 453 c 128,-1,28
 453 441 453 441 451 437 c 2,29,-1
 362 301 l 1,30,-1
 282 330 l 1,31,-1
 340 475 l 1,32,33
 315 479 315 479 304.5 491 c 128,-1,34
 294 503 294 503 294 525 c 0,17,18
EndSplineSet
EndChar

StartChar: quoteleft
Encoding: 8216 8216 181
Width: 260
Flags: HMW
HStem: 313 21G<91 168.5> 650 20G<180 180>
LayerCount: 2
Fore
SplineSet
248 446 m 0,0,1
 248 313 248 313 124 313 c 0,2,3
 75 313 75 313 55 328 c 128,-1,4
 35 343 35 343 35 377 c 0,5,6
 35 393 35 393 40 420 c 2,7,-1
 42 432 l 1,8,9
 48.8695652174 466.347826087 48.8695652174 466.347826087 60.4347826087 486.173913043 c 128,-1,10
 72 506 72 506 80.5 518 c 128,-1,11
 89 530 89 530 91 534 c 2,12,-1
 180 670 l 1,13,-1
 260 641 l 1,14,-1
 202 496 l 1,15,16
 227 492 227 492 237.5 480 c 128,-1,17
 248 468 248 468 248 446 c 0,0,1
EndSplineSet
EndChar

StartChar: quoteright
Encoding: 8217 8217 182
Width: 295
Flags: HMW
HStem: 301 21G<125 125> 638 20G<136.5 214>
LayerCount: 2
Fore
SplineSet
57 525 m 0,0,1
 57 658 57 658 181 658 c 0,2,3
 230 658 230 658 250 643 c 128,-1,4
 270 628 270 628 270 594 c 0,5,6
 270 578 270 578 265 551 c 2,7,-1
 263 539 l 1,8,9
 256.130434783 504.652173913 256.130434783 504.652173913 244.565217391 484.826086957 c 128,-1,10
 233 465 233 465 224.5 453 c 128,-1,11
 216 441 216 441 214 437 c 2,12,-1
 125 301 l 1,13,-1
 45 330 l 1,14,-1
 103 475 l 1,15,16
 78 479 78 479 67.5 491 c 128,-1,17
 57 503 57 503 57 525 c 0,0,1
EndSplineSet
EndChar

StartChar: quotesinglbase
Encoding: 8218 8218 183
Width: 277
Flags: HMW
HStem: -151 21G<104 104> 186 20G<117.5 193>
LayerCount: 2
Fore
SplineSet
37 99 m 0,0,1
 47 158 47 158 72.5 182 c 128,-1,2
 98 206 98 206 153.5 206 c 0,3,4
 209 206 209 206 228.5 191 c 128,-1,5
 248 176 248 176 248 141 c 0,6,7
 248 72 248 72 192 -15 c 2,8,-1
 104 -151 l 1,9,-1
 24 -122 l 1,10,-1
 80 22 l 1,11,12
 34 30 34 30 34 72 c 0,13,14
 34 84 34 84 37 99 c 0,0,1
EndSplineSet
EndChar

StartChar: quotesingle
Encoding: 39 39 184
Width: 262
Flags: HMW
HStem: 300 21G<76 171 76 76> 630 20G<126 246 246 257.5>
LayerCount: 2
Fore
SplineSet
277 629 m 1,0,-1
 266 565 l 2,1,2
 265 561 265 561 171 300 c 1,3,-1
 76 300 l 1,4,-1
 76 531 l 2,5,6
 76 567 76 567 86 623 c 0,7,8
 90 650 90 650 126 650 c 2,9,-1
 246 650 l 2,10,11
 277 650 277 650 277 629 c 1,0,-1
EndSplineSet
EndChar

StartChar: r
Encoding: 114 114 185
Width: 375
Flags: HMW
HStem: 0 21G<11 201 11 11> 480 20G<99 194 194 194> 495 20G<389 389>
LayerCount: 2
Fore
SplineSet
99 500 m 1,0,-1
 194 500 l 1,1,-1
 237 444 l 1,2,3
 302 498 302 498 389 515 c 1,4,-1
 368 326 l 1,5,6
 345 325 345 325 306 314 c 128,-1,7
 267 303 267 303 251 286 c 1,8,-1
 201 0 l 1,9,-1
 11 0 l 1,10,-1
 99 500 l 1,0,-1
EndSplineSet
EndChar

StartChar: registered
Encoding: 174 174 186
Width: 563
Flags: HMW
HStem: 179 21G<159.5 338.5> 616 20G<227 367.5> 662 20G<213 390.5>
LayerCount: 2
Fore
SplineSet
27 353 m 0,0,1
 27 491.582089552 27 491.582089552 92.5 582.5 c 0,2,3
 126 629 126 629 184 655.5 c 128,-1,4
 242 682 242 682 320 682 c 0,5,6
 424 682 424 682 472.5 639.5 c 128,-1,7
 521 597 521 597 521 519.5 c 128,-1,8
 521 442 521 442 505.5 384.5 c 128,-1,9
 490 327 490 327 457 280 c 128,-1,10
 424 233 424 233 366.5 206 c 128,-1,11
 309 179 309 179 231 179 c 0,12,13
 125 179 125 179 76 222 c 128,-1,14
 27 265 27 265 27 353 c 0,0,1
312 636 m 0,15,16
 188 636 188 636 131.5 565.5 c 128,-1,17
 75 495 75 495 75 356 c 0,18,19
 75 284 75 284 113.5 254.5 c 128,-1,20
 152 225 152 225 239 225 c 0,21,22
 363 225 363 225 418.5 296 c 128,-1,23
 474 367 474 367 474 507 c 0,24,25
 474 578 474 578 435.5 607 c 128,-1,26
 397 636 397 636 312 636 c 0,15,16
385 281 m 1,27,-1
 278 281 l 1,28,-1
 256 368 l 1,29,-1
 245 368 l 1,30,-1
 230 281 l 1,31,-1
 133 281 l 1,32,-1
 186 581 l 1,33,-1
 329 581 l 2,34,35
 413 581 413 581 413 507 c 0,36,37
 413 471 413 471 399 434 c 128,-1,38
 385 397 385 397 353 380 c 1,39,-1
 385 281 l 1,27,-1
268 498 m 1,40,-1
 259 448 l 1,41,-1
 275 448 l 2,42,43
 291 448 291 448 297 450.5 c 128,-1,44
 303 453 303 453 306 468.5 c 128,-1,45
 309 484 309 484 309 488.5 c 0,46,47
 309 498 309 498 284 498 c 2,48,-1
 268 498 l 1,40,-1
EndSplineSet
EndChar

StartChar: ring
Encoding: 730 730 187
Width: 265
Flags: HMW
HStem: 527 21G<81 156.5> 738 20G<112.5 188>
VStem: 21 227<628 657>
LayerCount: 2
Fore
SplineSet
98 664 m 2,0,-1
 86 596 l 1,1,-1
 126 596 l 2,2,3
 152.833333333 596 152.833333333 596 160.416666667 603 c 128,-1,4
 168 610 168 610 170 622 c 2,5,-1
 182 689 l 1,6,-1
 145 689 l 2,7,8
 116.333333333 689 116.333333333 689 108.166666667 682 c 128,-1,9
 100 675 100 675 98 664 c 2,0,-1
155 758 m 0,10,11
 248 758 248 758 248 678 c 0,12,13
 248 604 248 604 213 565.5 c 128,-1,14
 178 527 178 527 114 527 c 0,15,16
 21 527 21 527 21 607 c 0,17,18
 21 681 21 681 56 719.5 c 128,-1,19
 91 758 91 758 155 758 c 0,10,11
EndSplineSet
EndChar

StartChar: s
Encoding: 115 115 188
Width: 526
Flags: HMW
HStem: -15 145<183 225 182.5 297> 166 168<249 297> 370 145<310 336.5 220 345>
CounterMasks: 1 e0
LayerCount: 2
Fore
SplineSet
56 295 m 0,0,1
 56 402 56 402 118.5 458.5 c 128,-1,2
 181 515 181 515 303.5 515 c 0,3,4
 426 515 426 515 511 484 c 1,5,-1
 465 348 l 1,6,7
 396 370 396 370 321 370 c 0,8,9
 297 370 297 370 255 366 c 1,10,-1
 249 334 l 1,11,12
 378 334 378 334 431 300.5 c 128,-1,13
 484 267 484 267 484 204 c 0,14,15
 484 -15 484 -15 233 -15 c 0,16,17
 84 -15 84 -15 -4 14 c 1,18,-1
 44 156 l 1,19,20
 121 130 121 130 212 130 c 0,21,22
 256 130 256 130 291 134 c 1,23,-1
 297 166 l 1,24,25
 165 166 165 166 110.5 197.5 c 128,-1,26
 56 229 56 229 56 295 c 0,0,1
EndSplineSet
EndChar

StartChar: scaron
Encoding: 353 353 189
Width: 526
Flags: HMW
HStem: -15 145<183 225 182.5 297> 166 168<249 297> 370 145<310 336.5 220 345> 720 20G<270 270 447 447>
LayerCount: 2
Fore
SplineSet
56 295 m 0,0,1
 56 402 56 402 118.5 458.5 c 128,-1,2
 181 515 181 515 303.5 515 c 0,3,4
 426 515 426 515 511 484 c 1,5,-1
 465 348 l 1,6,7
 396 370 396 370 321 370 c 0,8,9
 297 370 297 370 255 366 c 1,10,-1
 249 334 l 1,11,12
 378 334 378 334 431 300.5 c 128,-1,13
 484 267 484 267 484 204 c 0,14,15
 484 -15 484 -15 233 -15 c 0,16,17
 84 -15 84 -15 -4 14 c 1,18,-1
 44 156 l 1,19,20
 121 130 121 130 212 130 c 0,21,22
 256 130 256 130 291 134 c 1,23,-1
 297 166 l 1,24,25
 165 166 165 166 110.5 197.5 c 128,-1,26
 56 229 56 229 56 295 c 0,0,1
345 537 m 2,27,-1
 300 537 l 2,28,29
 293 537 293 537 286 546 c 1,30,-1
 204 691 l 1,31,-1
 270 740 l 1,32,-1
 347 677 l 1,33,-1
 447 740 l 1,34,-1
 495 691 l 1,35,-1
 362 546 l 2,36,37
 353 537 353 537 345 537 c 2,27,-1
EndSplineSet
EndChar

StartChar: section
Encoding: 167 167 190
Width: 588
Flags: HMW
HStem: -121 152<169 269> 65 138<255 296> 290 142<290 331 222 380.5> 466 152<296 389.5 289.5 511 296 296>
LayerCount: 2
Fore
SplineSet
364 203 m 1,0,1
 372 253 372 253 372 264.5 c 0,2,3
 372 290 372 290 331 290 c 2,4,-1
 222 290 l 1,5,6
 214 240 214 240 214 228.5 c 0,7,8
 214 203 214 203 255 203 c 2,9,-1
 364 203 l 1,0,1
-8 -91 m 1,10,-1
 35 31 l 1,11,-1
 290 31 l 1,12,-1
 296 65 l 1,13,14
 163 65 163 65 108.5 95 c 128,-1,15
 54 125 54 125 54 190 c 0,16,17
 54 231 54 231 68 273.5 c 128,-1,18
 82 316 82 316 100 342 c 1,19,20
 90 361 90 361 90 404.5 c 128,-1,21
 90 448 90 448 105.5 490 c 128,-1,22
 121 532 121 532 144.5 556.5 c 128,-1,23
 168 581 168 581 205 595 c 0,24,25
 265.785714286 618 265.785714286 618 366.892857143 618 c 128,-1,26
 468 618 468 618 554 593 c 1,27,-1
 511 466 l 1,28,-1
 296 466 l 1,29,-1
 290 432 l 1,30,31
 419 432 419 432 471 400 c 128,-1,32
 523 368 523 368 523 306 c 0,33,34
 523 264 523 264 509 222.5 c 128,-1,35
 495 181 495 181 476 155 c 1,36,37
 487 132 487 132 487 87 c 128,-1,38
 487 42 487 42 469.5 0 c 128,-1,39
 452 -42 452 -42 425.5 -64.5 c 128,-1,40
 399 -87 399 -87 359 -100.5 c 0,41,42
 298.259259259 -121 298.259259259 -121 192.12962963 -121 c 128,-1,43
 86 -121 86 -121 -8 -91 c 1,10,-1
EndSplineSet
EndChar

StartChar: semicolon
Encoding: 59 59 191
Width: 303
Flags: HMW
HStem: -151 21G<103 103> 206 88<139.5 192> 486 20G<168.5 244>
LayerCount: 2
Fore
SplineSet
36 99 m 0,0,1
 46 158 46 158 71.5 182 c 128,-1,2
 97 206 97 206 152.5 206 c 0,3,4
 208 206 208 206 227.5 191 c 128,-1,5
 247 176 247 176 247 141 c 0,6,7
 247 72 247 72 191 -15 c 2,8,-1
 103 -151 l 1,9,-1
 23 -122 l 1,10,-1
 79 22 l 1,11,12
 33 30 33 30 33 72 c 0,13,14
 33 84 33 84 36 99 c 0,0,1
88 399 m 0,15,16
 98 458 98 458 123.5 482 c 128,-1,17
 149 506 149 506 204.5 506 c 0,18,19
 260 506 260 506 279.5 491 c 128,-1,20
 299 476 299 476 299 448 c 0,21,22
 299 420 299 420 295 399 c 0,23,24
 285 340 285 340 259.5 317 c 128,-1,25
 234 294 234 294 178.5 294 c 0,26,27
 123 294 123 294 103.5 308.5 c 128,-1,28
 84 323 84 323 84 350.5 c 0,29,30
 84 378 84 378 88 399 c 0,15,16
EndSplineSet
EndChar

StartChar: seven
Encoding: 55 55 192
Width: 600
Flags: HMW
HStem: 0 21G<91 306 91 91> 605 20G<129 599 599 599>
LayerCount: 2
Fore
SplineSet
577 500 m 1,0,-1
 306 0 l 1,1,-1
 91 0 l 1,2,-1
 340 448 l 1,3,-1
 111 448 l 1,4,-1
 129 625 l 1,5,-1
 599 625 l 1,6,-1
 577 500 l 1,0,-1
EndSplineSet
EndChar

StartChar: six
Encoding: 54 54 193
Width: 600
Flags: HMW
HStem: -15 151<221 260 260 279 221 338> 257 148<281 300 300 317 317 338> 475 165<371.5 405.5>
LayerCount: 2
Fore
SplineSet
324 178 m 2,0,-1
 338 257 l 1,1,-1
 300 257 l 2,2,3
 268 257 268 257 254 249.5 c 128,-1,4
 240 242 240 242 235 215 c 2,5,-1
 221 136 l 1,6,-1
 260 136 l 2,7,8
 292 136 292 136 305.5 143.5 c 128,-1,9
 319 151 319 151 324 178 c 2,0,-1
538 259 m 0,10,11
 538 122 538 122 462.5 53.5 c 128,-1,12
 387 -15 387 -15 243 -15 c 0,13,14
 131 -15 131 -15 83 32 c 128,-1,15
 35 79 35 79 35 177 c 0,16,17
 35 233 35 233 49.5 316 c 128,-1,18
 64 399 64 399 86 456 c 128,-1,19
 108 513 108 513 148 556.5 c 0,20,21
 224.781609195 640 224.781609195 640 405 640 c 0,22,23
 441 640 441 640 499 631.5 c 128,-1,24
 557 623 557 623 584 614 c 1,25,-1
 528 461 l 1,26,27
 453 475 453 475 384.5 475 c 128,-1,28
 316 475 316 475 280 466 c 1,29,-1
 269 405 l 1,30,-1
 317 405 l 2,31,32
 415.428571429 405 415.428571429 405 472 381 c 0,33,34
 538 353 538 353 538 259 c 0,10,11
EndSplineSet
EndChar

StartChar: slash
Encoding: 47 47 194
Width: 503
Flags: HMW
HStem: -40 21G<0 71 0 0> 645 20G<432 503 503 503>
LayerCount: 2
Fore
SplineSet
503 665 m 1,0,-1
 114 -15 l 2,1,2
 109 -25 109 -25 105 -29 c 0,3,4
 94 -40 94 -40 71 -40 c 2,5,-1
 0 -40 l 1,6,-1
 389 640 l 2,7,8
 394 650 394 650 398 654 c 0,9,10
 409 665 409 665 432 665 c 2,11,-1
 503 665 l 1,0,-1
EndSplineSet
EndChar

StartChar: sterling
Encoding: 163 163 196
Width: 586
Flags: HMW
HStem: 0 160<270 477 270 477> 262 107<61 103 42 133 325 441> 477 164<401 419 419 432.5 332.5 512>
LayerCount: 2
Fore
SplineSet
441 262 m 1,0,-1
 297 262 l 1,1,-1
 270 160 l 1,2,-1
 477 160 l 1,3,-1
 477 0 l 1,4,-1
 -4 0 l 1,5,-1
 13 100 l 1,6,-1
 66 135 l 1,7,-1
 103 262 l 1,8,-1
 42 262 l 1,9,-1
 61 369 l 1,10,-1
 133 369 l 1,11,-1
 154 443 l 2,12,13
 210 641 210 641 392 641 c 0,14,15
 488 641 488 641 566 622 c 1,16,-1
 512 477 l 1,17,-1
 419 477 l 2,18,19
 387 477 387 477 368 468 c 128,-1,20
 349 459 349 459 341 428 c 2,21,-1
 325 369 l 1,22,-1
 469 369 l 1,23,-1
 441 262 l 1,0,-1
EndSplineSet
EndChar

StartChar: t
Encoding: 116 116 197
Width: 364
Flags: HMW
HStem: -11 21G<206.5 268> 371 129<50 120 73 97 310 353> 610 20G<333 333>
LayerCount: 2
Fore
SplineSet
50 371 m 1,0,-1
 73 500 l 1,1,-1
 120 500 l 1,2,-1
 134 580 l 1,3,-1
 333 630 l 1,4,-1
 310 500 l 1,5,-1
 376 500 l 1,6,-1
 353 371 l 1,7,-1
 287 371 l 1,8,-1
 247 143 l 1,9,10
 272 138 272 138 302 136 c 1,11,-1
 268 -11 l 1,12,13
 127.647058824 -11 127.647058824 -11 87.5 8.5 c 0,14,15
 46 28.6571428571 46 28.6571428571 46 73 c 0,16,17
 46 78 46 78 48 94 c 2,18,-1
 97 371 l 1,19,-1
 50 371 l 1,0,-1
EndSplineSet
EndChar

StartChar: thorn
Encoding: 254 254 198
Width: 595
Flags: HMW
HStem: -165 21G<-10 -10> -15 21G<206 270 206 206> 495 20G<374.5 458> 645 20G<326 326>
LayerCount: 2
Fore
SplineSet
133 650 m 1,0,-1
 326 665 l 1,1,-1
 296 499 l 1,2,3
 335 515 335 515 394 515 c 0,4,5
 560 515 560 515 560 331 c 0,6,7
 560 186.805970149 560 186.805970149 494.5 91 c 0,8,9
 461 42 461 42 403.5 13.5 c 128,-1,10
 346 -15 346 -15 270 -15 c 2,11,-1
 206 -15 l 1,12,-1
 182 -150 l 1,13,-1
 -10 -165 l 1,14,-1
 133 650 l 1,0,-1
267 332 m 2,15,-1
 232 131 l 1,16,-1
 262 131 l 2,17,18
 296 131 296 131 312.5 138.5 c 128,-1,19
 329 146 329 146 334 173 c 2,20,-1
 369 369 l 1,21,-1
 340 369 l 2,22,23
 298.411764706 369 298.411764706 369 284.205882353 358.5 c 128,-1,24
 270 348 270 348 267 332 c 2,15,-1
EndSplineSet
EndChar

StartChar: three
Encoding: 51 51 199
Width: 600
Flags: HMW
HStem: -15 168<199 245 199 306> 475 165<258.5 414.5>
LayerCount: 2
Fore
SplineSet
364 405 m 1,0,-1
 375 470 l 1,1,2
 348 475 348 475 284.5 475 c 128,-1,3
 221 475 221 475 122 454 c 1,4,-1
 123 602 l 1,5,6
 245 640 245 640 353 640 c 0,7,8
 451.391304348 640 451.391304348 640 506.5 620.5 c 0,9,10
 570 598.030769231 570 598.030769231 570 522 c 0,11,12
 570 392 570 392 462 337 c 1,13,-1
 461 332 l 1,14,15
 532 297 532 297 532 219 c 0,16,17
 532 -15 532 -15 222 -15 c 0,18,19
 108 -15 108 -15 7 11 c 1,20,-1
 63 176 l 1,21,22
 149 153 149 153 211.5 153 c 128,-1,23
 274 153 274 153 321 159 c 1,24,-1
 332 223 l 1,25,-1
 171 240 l 1,26,-1
 196 385 l 1,27,-1
 364 405 l 1,0,-1
EndSplineSet
EndChar

StartChar: threequarters
Encoding: 190 190 200
Width: 971
Flags: HMW
HStem: -40 21G<307 358 307 307> 0 160<728 728 728 756 696 855> 60 100<696 738 883 902> 515 110<188 286> 645 20G<619 670 670 670>
LayerCount: 2
Fore
SplineSet
670 665 m 1,0,-1
 401 -15 l 2,1,2
 396 -25 396 -25 392 -29 c 0,3,4
 381 -40 381 -40 358 -40 c 2,5,-1
 307 -40 l 1,6,-1
 576 640 l 2,7,8
 581 650 581 650 585 654 c 0,9,10
 596 665 596 665 619 665 c 2,11,-1
 670 665 l 1,0,-1
728 0 m 1,12,-1
 738 60 l 1,13,-1
 563 60 l 1,14,-1
 578 144 l 1,15,-1
 710 389 l 1,16,-1
 923 389 l 1,17,-1
 883 160 l 1,18,-1
 920 160 l 1,19,-1
 902 60 l 1,20,-1
 865 60 l 1,21,-1
 855 0 l 1,22,-1
 728 0 l 1,12,-1
756 160 m 1,23,-1
 780 295 l 1,24,-1
 763 295 l 1,25,-1
 696 160 l 1,26,-1
 756 160 l 1,23,-1
243 468 m 1,27,-1
 251 512 l 1,28,29
 229 515 229 515 190.5 515 c 128,-1,30
 152 515 152 515 100 500 c 1,31,-1
 101 608 l 1,32,33
 169 625 169 625 242 625 c 128,-1,34
 315 625 315 625 348.5 610 c 128,-1,35
 382 595 382 595 382 549 c 0,36,37
 382 472 382 472 324 434 c 1,38,39
 359 413 359 413 359 370 c 0,40,41
 359 362 359 362 355 336 c 128,-1,42
 351 310 351 310 337 286 c 128,-1,43
 323 262 323 262 306.5 249 c 128,-1,44
 290 236 290 236 264.5 229 c 0,45,46
 224.428571429 218 224.428571429 218 158.714285714 218 c 128,-1,47
 93 218 93 218 29 235 c 1,48,-1
 66 344 l 1,49,50
 128 328 128 328 165 328 c 128,-1,51
 202 328 202 328 219 330 c 1,52,-1
 227 376 l 1,53,-1
 131 387 l 1,54,-1
 143 456 l 1,55,-1
 243 468 l 1,27,-1
EndSplineSet
EndChar

StartChar: threesuperior
Encoding: 179 179 201
Width: 400
Flags: HMW
HStem: 334 21G<124.5 193> 631 110<172 270>
LayerCount: 2
Fore
SplineSet
227 584 m 1,0,-1
 235 628 l 1,1,2
 213 631 213 631 174.5 631 c 128,-1,3
 136 631 136 631 84 616 c 1,4,-1
 85 724 l 1,5,6
 153 741 153 741 226 741 c 128,-1,7
 299 741 299 741 332.5 726 c 128,-1,8
 366 711 366 711 366 665 c 0,9,10
 366 588 366 588 308 550 c 1,11,12
 343 529 343 529 343 486 c 0,13,14
 343 478 343 478 339 452 c 128,-1,15
 335 426 335 426 321 402 c 128,-1,16
 307 378 307 378 290.5 365 c 128,-1,17
 274 352 274 352 248.5 345 c 0,18,19
 208.428571429 334 208.428571429 334 142.714285714 334 c 128,-1,20
 77 334 77 334 13 351 c 1,21,-1
 50 460 l 1,22,23
 112 444 112 444 149 444 c 128,-1,24
 186 444 186 444 203 446 c 1,25,-1
 211 492 l 1,26,-1
 115 503 l 1,27,-1
 127 572 l 1,28,-1
 227 584 l 1,0,-1
EndSplineSet
EndChar

StartChar: tilde
Encoding: 732 732 202
Width: 458
Flags: HMW
HStem: 543 21G<223 255> 701 20G<203 235>
LayerCount: 2
Fore
SplineSet
294 676 m 1,0,-1
 380 716 l 1,1,-1
 413 635 l 1,2,3
 283.715959653 554.197474783 283.715959653 554.197474783 269.273558858 548.641380179 c 128,-1,4
 254.831158063 543.085285575 254.831158063 543.085285575 242.415579031 543.042642788 c 128,-1,5
 230 543 230 543 222 545 c 128,-1,6
 214 547 214 547 206 552.5 c 128,-1,7
 198 558 198 558 193 561.5 c 0,8,9
 184.666666667 567.333333333 184.666666667 567.333333333 164 588 c 1,10,-1
 79 548 l 1,11,-1
 45 629 l 1,12,13
 174.284040347 709.802525217 174.284040347 709.802525217 188.726441142 715.358619821 c 128,-1,14
 203.168841937 720.914714425 203.168841937 720.914714425 215.584420969 720.957357212 c 128,-1,15
 228 721 228 721 236 719 c 128,-1,16
 244 717 244 717 252 711.5 c 128,-1,17
 260 706 260 706 265 702.5 c 0,18,19
 273.333333333 696.666666667 273.333333333 696.666666667 294 676 c 1,0,-1
EndSplineSet
EndChar

StartChar: trademark
Encoding: 8482 8482 203
Width: 807
Flags: HMW
HStem: 343 21G<94 227 94 94 306 437 306 306 483 483 483 574 620 620 620 751> 617 115<82 142 61 378 275 357 275 275>
LayerCount: 2
Fore
SplineSet
437 343 m 1,0,-1
 306 343 l 1,1,-1
 399 732 l 1,2,-1
 567 732 l 1,3,-1
 567 584 l 1,4,-1
 574 584 l 1,5,-1
 630 732 l 1,6,-1
 797 732 l 1,7,-1
 751 343 l 1,8,-1
 620 343 l 1,9,-1
 639 491 l 1,10,-1
 633 491 l 1,11,-1
 574 343 l 1,12,-1
 483 343 l 1,13,-1
 475 491 l 1,14,-1
 470 491 l 1,15,-1
 437 343 l 1,0,-1
357 617 m 1,16,-1
 275 617 l 1,17,-1
 227 343 l 1,18,-1
 94 343 l 1,19,-1
 142 617 l 1,20,-1
 61 617 l 1,21,-1
 82 732 l 1,22,-1
 378 732 l 1,23,-1
 357 617 l 1,16,-1
EndSplineSet
EndChar

StartChar: two
Encoding: 50 50 204
Width: 600
Flags: HMW
HStem: 0 160<244 484> 475 165<263 420.5>
LayerCount: 2
Fore
SplineSet
113 453 m 1,0,-1
 116 602 l 1,1,2
 242 640 242 640 360 640 c 0,3,4
 493.5 640 493.5 640 535.5 604 c 0,5,6
 576 569.285714286 576 569.285714286 576 498.642857143 c 128,-1,7
 576 428 576 428 556.5 378.5 c 128,-1,8
 537 329 537 329 481.5 292 c 128,-1,9
 426 255 426 255 390 240 c 0,10,11
 330 215 330 215 249 188 c 1,12,-1
 244 160 l 1,13,-1
 512 160 l 1,14,-1
 484 0 l 1,15,-1
 -4 0 l 1,16,-1
 18 125 l 2,17,18
 28.3916211293 185.27140255 28.3916211293 185.27140255 46.6958105647 214.135701275 c 128,-1,19
 65 243 65 243 77.5 258.5 c 128,-1,20
 90 274 90 274 111 289.5 c 128,-1,21
 132 305 132 305 148.5 315.5 c 128,-1,22
 165 326 165 326 194.5 340.5 c 128,-1,23
 224 355 224 355 244 364 c 128,-1,24
 264 373 264 373 301 389 c 128,-1,25
 338 405 338 405 362 416 c 1,26,-1
 371 470 l 1,27,28
 329 475 329 475 293 475 c 0,29,30
 206 475 206 475 113 453 c 1,0,-1
EndSplineSet
EndChar

StartChar: twosuperior
Encoding: 178 178 205
Width: 400
Flags: HMW
HStem: 343 105<176 318> 611 20G<180 203> 721 20G<215 277.5>
LayerCount: 2
Fore
SplineSet
84 616 m 1,0,-1
 85 724 l 1,1,2
 153 741 153 741 218.5 741 c 128,-1,3
 284 741 284 741 310 736 c 128,-1,4
 336 731 336 731 355.5 710.5 c 128,-1,5
 375 690 375 690 375 652 c 0,6,7
 375 643 375 643 371 613 c 1,8,9
 361 554 361 554 327 530 c 128,-1,10
 293 506 293 506 180 468 c 1,11,-1
 176 448 l 1,12,-1
 336 448 l 1,13,-1
 318 343 l 1,14,-1
 12 343 l 1,15,-1
 26 425 l 1,16,17
 35.2857142857 471.428571429 35.2857142857 471.428571429 48.6428571429 487.214285714 c 128,-1,18
 62 503 62 503 68 511 c 128,-1,19
 74 519 74 519 93.5 529.5 c 128,-1,20
 113 540 113 540 120 544 c 128,-1,21
 127 548 127 548 155 560 c 128,-1,22
 183 572 183 572 192 576 c 2,23,-1
 232 594 l 1,24,-1
 238 629 l 1,25,26
 217 631 217 631 184 631 c 128,-1,27
 151 631 151 631 84 616 c 1,0,-1
EndSplineSet
EndChar

StartChar: u
Encoding: 117 117 206
Width: 590
Flags: HMW
HStem: -15 21G<121.5 202.5> 0 21G<389 484 389 389> 480 20G<97 287 287 287 382 572 572 572>
LayerCount: 2
Fore
SplineSet
287 500 m 1,0,-1
 222 131 l 1,1,-1
 251 131 l 2,2,3
 285 131 285 131 302 138.5 c 128,-1,4
 319 146 319 146 324 173 c 2,5,-1
 382 500 l 1,6,-1
 572 500 l 1,7,-1
 484 0 l 1,8,-1
 389 0 l 1,9,-1
 344 57 l 1,10,11
 274 -15 274 -15 168 -15 c 0,12,13
 97 -15 97 -15 63.5 11 c 128,-1,14
 30 37 30 37 30 97 c 0,15,16
 30 125 30 125 35 150 c 2,17,-1
 97 500 l 1,18,-1
 287 500 l 1,0,-1
EndSplineSet
EndChar

StartChar: uacute
Encoding: 250 250 207
Width: 590
Flags: HMW
HStem: -15 21G<121.5 202.5> 0 21G<389 484 389 389> 480 20G<97 287 287 287 382 572 572 572> 719 20G<413 418.5>
LayerCount: 2
Fore
SplineSet
287 500 m 1,0,-1
 222 131 l 1,1,-1
 251 131 l 2,2,3
 285 131 285 131 302 138.5 c 128,-1,4
 319 146 319 146 324 173 c 2,5,-1
 382 500 l 1,6,-1
 572 500 l 1,7,-1
 484 0 l 1,8,-1
 389 0 l 1,9,-1
 344 57 l 1,10,11
 274 -15 274 -15 168 -15 c 0,12,13
 97 -15 97 -15 63.5 11 c 128,-1,14
 30 37 30 37 30 97 c 0,15,16
 30 125 30 125 35 150 c 2,17,-1
 97 500 l 1,18,-1
 287 500 l 1,0,-1
430 574 m 2,19,-1
 256 539 l 1,20,-1
 215 596 l 1,21,-1
 404 735 l 2,22,23
 410 739 410 739 417 739 c 0,24,25
 424 739 424 739 433 728 c 2,26,-1
 496 654 l 2,27,28
 505 643.5 505 643.5 505 637.25 c 0,29,30
 505 631 505 631 502.5 627.5 c 0,31,32
 500 624 500 624 456 586 c 0,33,34
 446 577 446 577 430 574 c 2,19,-1
EndSplineSet
EndChar

StartChar: ucircumflex
Encoding: 251 251 208
Width: 590
Flags: HMW
HStem: -15 21G<121.5 202.5> 0 21G<389 484 389 389> 480 20G<97 287 287 287 382 572 572 572> 720 20G<364 409 409 412.5>
LayerCount: 2
Fore
SplineSet
287 500 m 1,0,-1
 222 131 l 1,1,-1
 251 131 l 2,2,3
 285 131 285 131 302 138.5 c 128,-1,4
 319 146 319 146 324 173 c 2,5,-1
 382 500 l 1,6,-1
 572 500 l 1,7,-1
 484 0 l 1,8,-1
 389 0 l 1,9,-1
 344 57 l 1,10,11
 274 -15 274 -15 168 -15 c 0,12,13
 97 -15 97 -15 63.5 11 c 128,-1,14
 30 37 30 37 30 97 c 0,15,16
 30 125 30 125 35 150 c 2,17,-1
 97 500 l 1,18,-1
 287 500 l 1,0,-1
364 740 m 2,19,-1
 409 740 l 2,20,21
 417 740 417 740 422 731 c 2,22,-1
 505 586 l 1,23,-1
 439 537 l 1,24,-1
 361 600 l 1,25,-1
 262 537 l 1,26,-1
 214 586 l 1,27,-1
 346 731 l 2,28,29
 353.5 740 353.5 740 364 740 c 2,19,-1
EndSplineSet
EndChar

StartChar: udieresis
Encoding: 252 252 209
Width: 590
Flags: HMW
HStem: -15 21G<121.5 202.5> 0 21G<389 484 389 389> 480 20G<97 287 287 287 382 572 572 572> 552 156<234 272.5 442 481>
VStem: 176 155<620.5 639.5> 384 155<620.5 639.5>
LayerCount: 2
Fore
SplineSet
287 500 m 1,0,-1
 222 131 l 1,1,-1
 251 131 l 2,2,3
 285 131 285 131 302 138.5 c 128,-1,4
 319 146 319 146 324 173 c 2,5,-1
 382 500 l 1,6,-1
 572 500 l 1,7,-1
 484 0 l 1,8,-1
 389 0 l 1,9,-1
 344 57 l 1,10,11
 274 -15 274 -15 168 -15 c 0,12,13
 97 -15 97 -15 63.5 11 c 128,-1,14
 30 37 30 37 30 97 c 0,15,16
 30 125 30 125 35 150 c 2,17,-1
 97 500 l 1,18,-1
 287 500 l 1,0,-1
404.5 683.5 m 128,-1,20
 425 708 425 708 467.5 708 c 128,-1,21
 510 708 510 708 524.5 697 c 128,-1,22
 539 686 539 686 539 660 c 0,23,24
 539 601 539 601 518.5 576.5 c 128,-1,25
 498 552 498 552 455.5 552 c 128,-1,26
 413 552 413 552 398.5 563 c 128,-1,27
 384 574 384 574 384 600 c 0,28,19
 384 659 384 659 404.5 683.5 c 128,-1,20
196.5 683.5 m 128,-1,30
 217 708 217 708 259.5 708 c 128,-1,31
 302 708 302 708 316.5 697 c 128,-1,32
 331 686 331 686 331 660 c 0,33,34
 331 601 331 601 310 576.5 c 128,-1,35
 289 552 289 552 247 552 c 128,-1,36
 205 552 205 552 190.5 563 c 128,-1,37
 176 574 176 574 176 600 c 0,38,29
 176 659 176 659 196.5 683.5 c 128,-1,30
EndSplineSet
EndChar

StartChar: ugrave
Encoding: 249 249 210
Width: 590
Flags: HMW
HStem: -15 21G<121.5 202.5> 0 21G<389 484 389 389> 480 20G<97 287 287 287 382 572 572 572> 719 20G<301.5 307>
LayerCount: 2
Fore
SplineSet
287 500 m 1,0,-1
 222 131 l 1,1,-1
 251 131 l 2,2,3
 285 131 285 131 302 138.5 c 128,-1,4
 319 146 319 146 324 173 c 2,5,-1
 382 500 l 1,6,-1
 572 500 l 1,7,-1
 484 0 l 1,8,-1
 389 0 l 1,9,-1
 344 57 l 1,10,11
 274 -15 274 -15 168 -15 c 0,12,13
 97 -15 97 -15 63.5 11 c 128,-1,14
 30 37 30 37 30 97 c 0,15,16
 30 125 30 125 35 150 c 2,17,-1
 97 500 l 1,18,-1
 287 500 l 1,0,-1
464 539 m 1,19,-1
 290 574 l 2,20,21
 274 577 274 577 264 586 c 2,22,-1
 219 625 l 1,23,24
 215 631 215 631 215 637.25 c 0,25,26
 215 643.5 215 643.5 224 654 c 2,27,-1
 287 728 l 2,28,29
 296 739 296 739 303 739 c 0,30,31
 310 739 310 739 316 735 c 2,32,-1
 505 596 l 1,33,-1
 464 539 l 1,19,-1
EndSplineSet
EndChar

StartChar: underscore
Encoding: 95 95 211
Width: 506
Flags: HMW
HStem: -135 150<-70 473 21 382>
LayerCount: 2
Fore
SplineSet
-70 -135 m 1,0,-1
 -51 -27 l 2,1,2
 -46 0 -46 0 -29.5 7.5 c 128,-1,3
 -13 15 -13 15 21 15 c 2,4,-1
 473 15 l 1,5,-1
 454 -93 l 2,6,7
 449 -120 449 -120 432.5 -127.5 c 128,-1,8
 416 -135 416 -135 382 -135 c 2,9,-1
 -70 -135 l 1,0,-1
EndSplineSet
EndChar

StartChar: v
Encoding: 118 118 212
Width: 520
Flags: HMW
HStem: 0 21G<88 88 88 344> 480 20G<57 241 241 241 361 551 551 551>
VStem: 72 169
LayerCount: 2
Fore
SplineSet
88 0 m 1,0,-1
 57 500 l 1,1,-1
 241 500 l 1,2,-1
 241 175 l 1,3,-1
 251 175 l 1,4,-1
 361 500 l 1,5,-1
 551 500 l 1,6,-1
 344 0 l 1,7,-1
 88 0 l 1,0,-1
EndSplineSet
EndChar

StartChar: w
Encoding: 119 119 213
Width: 800
Flags: HMW
HStem: 0 21G<79 79 79 310 396 396 396 630> 480 20G<79 265 265 265 375 517 517 517 626 813 813 813>
VStem: 79 179 396 121<203 215 215 215>
LayerCount: 2
Fore
SplineSet
79 0 m 1,0,-1
 79 500 l 1,1,-1
 265 500 l 1,2,-1
 251 203 l 1,3,-1
 262 203 l 1,4,-1
 375 500 l 1,5,-1
 517 500 l 1,6,-1
 517 203 l 1,7,-1
 528 203 l 1,8,-1
 626 500 l 1,9,-1
 813 500 l 1,10,-1
 630 0 l 1,11,-1
 396 0 l 1,12,-1
 396 215 l 1,13,-1
 388 215 l 1,14,-1
 310 0 l 1,15,-1
 79 0 l 1,0,-1
EndSplineSet
EndChar

StartChar: x
Encoding: 120 120 214
Width: 540
Flags: HMW
HStem: 0 21G<-30 168 -30 -30 285 483 285 285> 480 20G<63 260 260 260 369 566 566 566>
LayerCount: 2
Fore
SplineSet
260 500 m 1,0,-1
 292 376 l 1,1,-1
 297 376 l 1,2,-1
 369 500 l 1,3,-1
 566 500 l 1,4,-1
 402 244 l 1,5,-1
 483 0 l 1,6,-1
 285 0 l 1,7,-1
 249 135 l 1,8,-1
 245 135 l 1,9,-1
 168 0 l 1,10,-1
 -30 0 l 1,11,-1
 138 258 l 1,12,-1
 63 500 l 1,13,-1
 260 500 l 1,0,-1
EndSplineSet
EndChar

StartChar: y
Encoding: 121 121 215
Width: 520
Flags: HMW
HStem: -165 21G<-51 133 -51 -51> 480 20G<57 241 241 241 361 551 551 551>
VStem: 70 171
LayerCount: 2
Fore
SplineSet
84 52 m 1,0,-1
 57 500 l 1,1,-1
 241 500 l 1,2,-1
 241 175 l 1,3,-1
 251 175 l 1,4,-1
 361 500 l 1,5,-1
 551 500 l 1,6,-1
 344 0 l 2,7,8
 303 -99 303 -99 256.5 -132 c 128,-1,9
 210 -165 210 -165 133 -165 c 2,10,-1
 -51 -165 l 1,11,-1
 -29 -35 l 1,12,-1
 63 -17 l 2,13,14
 164 3 164 3 184 46 c 1,15,-1
 184 52 l 1,16,-1
 84 52 l 1,0,-1
EndSplineSet
EndChar

StartChar: yacute
Encoding: 253 253 216
Width: 520
Flags: HMW
HStem: -165 21G<-51 133 -51 -51> 480 20G<57 241 241 241 361 551 551 551> 719 20G<381 386.5>
VStem: 70 171
LayerCount: 2
Fore
SplineSet
84 52 m 1,0,-1
 57 500 l 1,1,-1
 241 500 l 1,2,-1
 241 175 l 1,3,-1
 251 175 l 1,4,-1
 361 500 l 1,5,-1
 551 500 l 1,6,-1
 344 0 l 2,7,8
 303 -99 303 -99 256.5 -132 c 128,-1,9
 210 -165 210 -165 133 -165 c 2,10,-1
 -51 -165 l 1,11,-1
 -29 -35 l 1,12,-1
 63 -17 l 2,13,14
 164 3 164 3 184 46 c 1,15,-1
 184 52 l 1,16,-1
 84 52 l 1,0,-1
398 574 m 2,17,-1
 224 539 l 1,18,-1
 183 596 l 1,19,-1
 372 735 l 2,20,21
 378 739 378 739 385 739 c 0,22,23
 392 739 392 739 401 728 c 2,24,-1
 464 654 l 2,25,26
 473 643.5 473 643.5 473 637.25 c 0,27,28
 473 631 473 631 470.5 627.5 c 0,29,30
 468 624 468 624 424 586 c 0,31,32
 414 577 414 577 398 574 c 2,17,-1
EndSplineSet
EndChar

StartChar: ydieresis
Encoding: 255 255 217
Width: 520
Flags: HMW
HStem: -165 21G<-51 133 -51 -51> 480 20G<57 241 241 241 361 551 551 551> 552 156<201 239.5 409 448>
VStem: 70 171 143 155<620.5 639.5> 351 155<620.5 639.5>
LayerCount: 2
Fore
SplineSet
84 52 m 1,0,-1
 57 500 l 1,1,-1
 241 500 l 1,2,-1
 241 175 l 1,3,-1
 251 175 l 1,4,-1
 361 500 l 1,5,-1
 551 500 l 1,6,-1
 344 0 l 2,7,8
 303 -99 303 -99 256.5 -132 c 128,-1,9
 210 -165 210 -165 133 -165 c 2,10,-1
 -51 -165 l 1,11,-1
 -29 -35 l 1,12,-1
 63 -17 l 2,13,14
 164 3 164 3 184 46 c 1,15,-1
 184 52 l 1,16,-1
 84 52 l 1,0,-1
371.5 683.5 m 128,-1,18
 392 708 392 708 434.5 708 c 128,-1,19
 477 708 477 708 491.5 697 c 128,-1,20
 506 686 506 686 506 660 c 0,21,22
 506 601 506 601 485.5 576.5 c 128,-1,23
 465 552 465 552 422.5 552 c 128,-1,24
 380 552 380 552 365.5 563 c 128,-1,25
 351 574 351 574 351 600 c 0,26,17
 351 659 351 659 371.5 683.5 c 128,-1,18
163.5 683.5 m 128,-1,28
 184 708 184 708 226.5 708 c 128,-1,29
 269 708 269 708 283.5 697 c 128,-1,30
 298 686 298 686 298 660 c 0,31,32
 298 601 298 601 277 576.5 c 128,-1,33
 256 552 256 552 214 552 c 128,-1,34
 172 552 172 552 157.5 563 c 128,-1,35
 143 574 143 574 143 600 c 0,36,27
 143 659 143 659 163.5 683.5 c 128,-1,28
EndSplineSet
EndChar

StartChar: yen
Encoding: 165 165 218
Width: 560
Flags: HMW
HStem: 0 21G<129 319 129 129> 105 107<33 147 14 151 370 470> 262 107<61 124 61 143 42 124 454 498> 605 20G<77 278 278 278 390 590 590 590>
LayerCount: 2
Fore
SplineSet
278 625 m 1,0,-1
 289 391 l 1,1,-1
 295 391 l 1,2,-1
 390 625 l 1,3,-1
 590 625 l 1,4,-1
 454 369 l 1,5,-1
 517 369 l 1,6,-1
 498 262 l 1,7,-1
 397 262 l 1,8,-1
 370 212 l 1,9,-1
 489 212 l 1,10,-1
 470 105 l 1,11,-1
 337 105 l 1,12,-1
 319 0 l 1,13,-1
 129 0 l 1,14,-1
 147 105 l 1,15,-1
 14 105 l 1,16,-1
 33 212 l 1,17,-1
 151 212 l 1,18,-1
 143 262 l 1,19,-1
 42 262 l 1,20,-1
 61 369 l 1,21,-1
 124 369 l 1,22,-1
 77 625 l 1,23,-1
 278 625 l 1,0,-1
EndSplineSet
EndChar

StartChar: z
Encoding: 122 122 219
Width: 516
Flags: HMW
HStem: 0 150<276 436> 350 150<87 224 74 518>
LayerCount: 2
Fore
SplineSet
-3 100 m 1,0,-1
 226 344 l 1,1,-1
 224 350 l 1,2,-1
 74 350 l 1,3,-1
 87 500 l 1,4,-1
 518 500 l 1,5,-1
 500 400 l 1,6,-1
 274 156 l 1,7,-1
 276 150 l 1,8,-1
 462 150 l 1,9,-1
 436 0 l 1,10,-1
 -20 0 l 1,11,-1
 -3 100 l 1,0,-1
EndSplineSet
EndChar

StartChar: zcaron
Encoding: 382 382 220
Width: 516
Flags: HMW
HStem: 0 150<276 436> 350 150<87 224 74 518> 720 20G<237 237 414 414>
LayerCount: 2
Fore
SplineSet
-3 100 m 1,0,-1
 226 344 l 1,1,-1
 224 350 l 1,2,-1
 74 350 l 1,3,-1
 87 500 l 1,4,-1
 518 500 l 1,5,-1
 500 400 l 1,6,-1
 274 156 l 1,7,-1
 276 150 l 1,8,-1
 462 150 l 1,9,-1
 436 0 l 1,10,-1
 -20 0 l 1,11,-1
 -3 100 l 1,0,-1
312 537 m 2,12,-1
 267 537 l 2,13,14
 260 537 260 537 253 546 c 1,15,-1
 171 691 l 1,16,-1
 237 740 l 1,17,-1
 314 677 l 1,18,-1
 414 740 l 1,19,-1
 462 691 l 1,20,-1
 329 546 l 2,21,22
 320 537 320 537 312 537 c 2,12,-1
EndSplineSet
EndChar

StartChar: zero
Encoding: 48 48 221
Width: 600
Flags: HMW
HStem: -15 161<212 252 252 277.5 212 348.5> 479 161<317 343 343 388>
LayerCount: 2
Fore
SplineSet
31 171 m 0,0,1
 31 232.5 31 232.5 46 315.75 c 128,-1,2
 61 399 61 399 81.5 456 c 128,-1,3
 102 513 102 513 137 556.5 c 0,4,5
 204.183908046 640 204.183908046 640 358 640 c 0,6,7
 474 640 474 640 522 594.5 c 128,-1,8
 570 549 570 549 570 453 c 0,9,10
 570 400 570 400 554.5 312.5 c 128,-1,11
 539 225 539 225 519 168.5 c 128,-1,12
 499 112 499 112 464 68.5 c 0,13,14
 396.816091954 -15 396.816091954 -15 243 -15 c 0,15,16
 127 -15 127 -15 79 30 c 128,-1,17
 31 75 31 75 31 171 c 0,0,1
262 426 m 2,18,-1
 212 146 l 1,19,-1
 252 146 l 2,20,21
 295 146 295 146 314 155.5 c 128,-1,22
 333 165 333 165 339 199 c 2,23,-1
 388 479 l 1,24,-1
 343 479 l 2,25,26
 301 479 301 479 284.5 470 c 128,-1,27
 268 461 268 461 262 426 c 2,18,-1
EndSplineSet
EndChar

StartChar: notequal
Encoding: 8800 8800 222
Width: 600
Flags: HMW
HStem: -40 21G<50 121 50 50> 121 144<75 142 50 224 324 483 75 242> 359 144<117 278 92 360 460 525 117 378> 645 20G<482 553 553 553>
LayerCount: 2
Fore
SplineSet
553 665 m 1,0,-1
 460 503 l 1,1,-1
 550 503 l 1,2,-1
 525 359 l 1,3,-1
 378 359 l 1,4,-1
 324 265 l 1,5,-1
 508 265 l 1,6,-1
 483 121 l 1,7,-1
 242 121 l 1,8,-1
 164 -15 l 2,9,10
 159 -25 159 -25 155 -29 c 0,11,12
 144 -40 144 -40 121 -40 c 2,13,-1
 50 -40 l 1,14,-1
 142 121 l 1,15,-1
 50 121 l 1,16,-1
 75 265 l 1,17,-1
 224 265 l 1,18,-1
 278 359 l 1,19,-1
 92 359 l 1,20,-1
 117 503 l 1,21,-1
 360 503 l 1,22,-1
 439 640 l 2,23,24
 444 650 444 650 448 654 c 0,25,26
 459 665 459 665 482 665 c 2,27,-1
 553 665 l 1,0,-1
EndSplineSet
EndChar

StartChar: lessequal
Encoding: 8804 8804 223
Width: 600
Flags: HMW
HStem: 0 144<31 489 56 464> 627 20G<496 496>
LayerCount: 2
Fore
SplineSet
31 0 m 1,0,-1
 56 144 l 1,1,-1
 489 144 l 1,2,-1
 464 0 l 1,3,-1
 31 0 l 1,0,-1
496 647 m 1,4,-1
 536 513 l 1,5,-1
 249 405 l 1,6,-1
 248 398 l 1,7,-1
 487 291 l 1,8,-1
 399 157 l 1,9,-1
 95 311 l 1,10,-1
 127 493 l 1,11,-1
 496 647 l 1,4,-1
EndSplineSet
EndChar

StartChar: greaterequal
Encoding: 8805 8805 224
Width: 600
Flags: HMW
HStem: 0 144<31 489 56 464> 627 20G<236 236>
LayerCount: 2
Fore
SplineSet
31 0 m 1,0,-1
 56 144 l 1,1,-1
 489 144 l 1,2,-1
 464 0 l 1,3,-1
 31 0 l 1,0,-1
139 157 m 1,4,-1
 99 291 l 1,5,-1
 386 399 l 1,6,-1
 387 406 l 1,7,-1
 148 513 l 1,8,-1
 236 647 l 1,9,-1
 540 493 l 1,10,-1
 508 311 l 1,11,-1
 139 157 l 1,4,-1
EndSplineSet
EndChar

StartChar: approxequal
Encoding: 8776 8776 225
Width: 600
Flags: HMW
HStem: 83 144<145.5 176.5> 158 144<381.5 412.5> 321 144<186.5 218.5> 396 144<423.5 454.5>
LayerCount: 2
Fore
SplineSet
50 121 m 1,0,-1
 75 265 l 1,1,2
 110 227 110 227 156 227 c 0,3,4
 202 227 202 227 292 264.5 c 128,-1,5
 382 302 382 302 427 302 c 0,6,7
 472 302 472 302 508 265 c 1,8,-1
 483 121 l 1,9,10
 447 158 447 158 401.5 158 c 0,11,12
 356 158 356 158 266 120.5 c 128,-1,13
 176 83 176 83 130.5 83 c 0,14,15
 85 83 85 83 50 121 c 1,0,-1
92 359 m 1,16,-1
 117 503 l 1,17,18
 152 465 152 465 198 465 c 0,19,20
 244 465 244 465 334 502.5 c 128,-1,21
 424 540 424 540 469 540 c 0,22,23
 514 540 514 540 550 503 c 1,24,-1
 525 359 l 1,25,26
 489 396 489 396 443.5 396 c 0,27,28
 398 396 398 396 308 358.5 c 128,-1,29
 218 321 218 321 172.5 321 c 0,30,31
 127 321 127 321 92 359 c 1,16,-1
EndSplineSet
EndChar

StartChar: lozenge
Encoding: 9674 9674 226
Width: 700
Flags: HMW
HStem: -150 21G<174 366 174 174> 605 20G<311 503 503 503>
LayerCount: 2
Fore
SplineSet
366 -150 m 1,0,-1
 174 -150 l 1,1,-1
 53 237 l 1,2,-1
 311 625 l 1,3,-1
 503 625 l 1,4,-1
 622 237 l 1,5,-1
 366 -150 l 1,0,-1
235 238 m 1,6,-1
 297 40 l 1,7,-1
 311 40 l 1,8,-1
 439 236 l 1,9,-1
 379 431 l 1,10,-1
 365 431 l 1,11,-1
 235 238 l 1,6,-1
EndSplineSet
EndChar

StartChar: infinity
Encoding: 8734 8734 227
Width: 905
Flags: HMW
HStem: -15 166<226 245 226 289 505.5 558 558 577> 349 166<307 326 326 374.5 234.5 396 640 659>
LayerCount: 2
Fore
SplineSet
539 -15 m 0,0,1
 495 -15 495 -15 466 -4.5 c 128,-1,2
 437 6 437 6 427 17 c 1,3,-1
 449 79 l 1,4,-1
 437 84 l 1,5,6
 391 30 391 30 349 7.5 c 128,-1,7
 307 -15 307 -15 253 -15 c 0,8,9
 149 -15 149 -15 100 29.5 c 128,-1,10
 51 74 51 74 51 164 c 0,11,12
 51 303.545454545 51 303.545454545 116 404 c 0,13,14
 149 455 149 455 206.5 485 c 128,-1,15
 264 515 264 515 325 515 c 128,-1,16
 386 515 386 515 416 504.5 c 128,-1,17
 446 494 446 494 456 483 c 1,18,-1
 433 421 l 1,19,-1
 446 416 l 1,20,21
 494 470 494 470 538 492.5 c 128,-1,22
 582 515 582 515 638 515 c 0,23,24
 739 515 739 515 786 470.5 c 128,-1,25
 833 426 833 426 833 346.5 c 128,-1,26
 833 267 833 267 816.5 206.5 c 128,-1,27
 800 146 800 146 766.5 95 c 128,-1,28
 733 44 733 44 674.5 14.5 c 128,-1,29
 616 -15 616 -15 539 -15 c 0,0,1
632 193 m 2,30,-1
 659 349 l 1,31,32
 626 349 626 349 604.5 340.5 c 128,-1,33
 583 332 583 332 570 307 c 2,34,-1
 489 151 l 1,35,-1
 558 151 l 2,36,37
 592 151 592 151 609.5 158.5 c 128,-1,38
 627 166 627 166 632 193 c 2,30,-1
254 307 m 2,39,-1
 226 151 l 1,40,41
 260 151 260 151 281.5 159 c 128,-1,42
 303 167 303 167 316 193 c 2,43,-1
 396 349 l 1,44,-1
 326 349 l 2,45,46
 292 349 292 349 275.5 341.5 c 128,-1,47
 259 334 259 334 254 307 c 2,39,-1
EndSplineSet
EndChar

StartChar: integral
Encoding: 8747 8747 228
Width: 373
Flags: HMW
HStem: -158 21G<-90 -48> 612 20G<382 426>
LayerCount: 2
Fore
SplineSet
297 429 m 2,0,-1
 189 -41 l 2,1,2
 181 -78 181 -78 148.5 -103 c 128,-1,3
 116 -128 116 -128 70.5 -139 c 0,4,5
 -8.09090909091 -158 -8.09090909091 -158 -90 -158 c 1,6,-1
 -76 -41 l 1,7,8
 -6 -26 -6 -26 13.5 -9.5 c 128,-1,9
 33 7 33 7 42 45 c 2,10,-1
 149 515 l 2,11,12
 157 552 157 552 188.5 577 c 128,-1,13
 220 602 220 602 265 613 c 0,14,15
 342.727272727 632 342.727272727 632 426 632 c 1,16,-1
 411 515 l 1,17,18
 343 500 343 500 324 483.5 c 128,-1,19
 305 467 305 467 297 429 c 2,0,-1
EndSplineSet
EndChar

StartChar: summation
Encoding: 8721 8721 229
Width: 654
Flags: HMW
HStem: -150 150<240 481> 605 20G<157 639 639 639>
LayerCount: 2
Fore
SplineSet
529 0 m 1,0,-1
 481 -150 l 1,1,-1
 -7 -150 l 1,2,-1
 -16 -98 l 1,3,-1
 239 211 l 1,4,-1
 130 573 l 1,5,-1
 157 625 l 1,6,-1
 639 625 l 1,7,-1
 600 500 l 1,8,-1
 420 475 l 2,9,10
 372 468 372 468 372 442 c 0,11,12
 372 434 372 434 375 425 c 2,13,-1
 434 247 l 1,14,-1
 235 14 l 1,15,-1
 240 0 l 1,16,-1
 529 0 l 1,0,-1
EndSplineSet
EndChar

StartChar: pi
Encoding: 960 960 230
Width: 657
Flags: HMW
HStem: -11 21G<465 522> 0 21G<41 185 41 41> 350 150<351 357 351 351 102 582.5> 516 20G<515 515>
LayerCount: 2
Fore
SplineSet
102 500 m 1,0,-1
 503 500 l 1,1,2
 509 515 509 515 515 536 c 1,3,-1
 653 529 l 1,4,5
 634.258555133 419.674904943 634.258555133 419.674904943 610 384.5 c 0,6,7
 586.206896552 350 586.206896552 350 547 350 c 1,8,-1
 511 143 l 1,9,10
 540 137 540 137 556 136 c 1,11,-1
 522 -11 l 1,12,13
 390 -11 390 -11 351 8.5 c 0,14,15
 334 17 334 17 322 33.5 c 128,-1,16
 310 50 310 50 310 64 c 128,-1,17
 310 78 310 78 312 94 c 2,18,-1
 357 350 l 1,19,-1
 351 350 l 1,20,21
 305 348 305 348 293 312 c 2,22,-1
 185 0 l 1,23,-1
 41 0 l 1,24,-1
 129 366 l 1,25,-1
 80 378 l 1,26,-1
 102 500 l 1,0,-1
EndSplineSet
EndChar

StartChar: partialdiff
Encoding: 8706 8706 231
Width: 590
Flags: HMW
HStem: -15 21G<181 364.5> 605 20G<211 364 364 364>
LayerCount: 2
Fore
SplineSet
333 455 m 1,0,-1
 367 454 l 1,1,-1
 370 481 l 1,2,-1
 211 522 l 1,3,-1
 211 625 l 1,4,-1
 364 625 l 1,5,6
 448 589 448 589 500.5 506 c 128,-1,7
 553 423 553 423 553 319 c 0,8,9
 553 176.132352941 553 176.132352941 486 84.5 c 0,10,11
 452 38 452 38 393.5 11.5 c 128,-1,12
 335 -15 335 -15 258 -15 c 0,13,14
 144 -15 144 -15 91 33.5 c 128,-1,15
 38 82 38 82 38 179 c 0,16,17
 38 455 38 455 333 455 c 1,0,-1
252 279 m 2,18,-1
 232 131 l 1,19,-1
 261 131 l 2,20,21
 283 131 283 131 295.5 133 c 128,-1,22
 308 135 308 135 319.5 145 c 128,-1,23
 331 155 331 155 333 173 c 2,24,-1
 353 321 l 1,25,-1
 323 321 l 2,26,27
 289 321 289 321 272 313.5 c 128,-1,28
 255 306 255 306 252 279 c 2,18,-1
EndSplineSet
EndChar

StartChar: product
Encoding: 8719 8719 232
Width: 800
Flags: HMW
HStem: -150 21G<56 224 56 56 389 579 389 389> 475 150<420.5 438 438 499 126 724.5> 641 20G<657 657>
LayerCount: 2
Fore
SplineSet
126 625 m 1,0,-1
 645 625 l 1,1,2
 651 640 651 640 657 661 c 1,3,-1
 795 654 l 1,4,5
 776.258555133 544.674904943 776.258555133 544.674904943 752 509.5 c 0,6,7
 728.206896552 475 728.206896552 475 689 475 c 1,8,-1
 579 -150 l 1,9,-1
 389 -150 l 1,10,-1
 499 475 l 1,11,-1
 438 475 l 2,12,13
 410 475 410 475 394.5 464.5 c 128,-1,14
 379 454 379 454 372 425 c 2,15,-1
 224 -150 l 1,16,-1
 56 -150 l 1,17,-1
 184 484 l 1,18,-1
 104 503 l 1,19,-1
 126 625 l 1,0,-1
EndSplineSet
EndChar

StartChar: Omega
Encoding: 8486 8486 233
Width: 703
Flags: HMW
HStem: 0 147 480 160<313 334 334 496>
LayerCount: 2
Fore
SplineSet
294 250 m 1,0,-1
 236 0 l 1,1,-1
 -24 0 l 1,2,-1
 1 143 l 1,3,-1
 145 152 l 1,4,-1
 153 166 l 1,5,6
 50 207 50 207 50 313 c 0,7,8
 50 471 50 471 141.5 555.5 c 128,-1,9
 233 640 233 640 409 640 c 0,10,11
 556 640 556 640 617 589 c 128,-1,12
 678 538 678 538 678 447 c 0,13,14
 678 227 678 227 495 164 c 1,15,-1
 499 152 l 1,16,-1
 641 143 l 1,17,-1
 616 0 l 1,18,-1
 356 0 l 1,19,-1
 386 250 l 1,20,21
 410 250 410 250 423 252 c 128,-1,22
 436 254 436 254 448 264 c 128,-1,23
 460 274 460 274 463 293 c 2,24,-1
 496 480 l 1,25,-1
 334 480 l 2,26,27
 297 480 297 480 278.5 471 c 128,-1,28
 260 462 260 462 255 430 c 2,29,-1
 232 300 l 2,30,31
 231 295 231 295 231 286 c 0,32,33
 231 263 231 263 246 256.5 c 128,-1,34
 261 250 261 250 294 250 c 1,0,-1
EndSplineSet
EndChar

StartChar: Delta
Encoding: 8710 8710 234
Width: 703
Flags: HMW
HStem: 0 150<199 356 356 366.5 199 586> 605 20G<312 505 505 505>
LayerCount: 2
Fore
SplineSet
312 625 m 1,0,-1
 505 625 l 1,1,-1
 613 52 l 1,2,-1
 586 0 l 1,3,-1
 12 0 l 1,4,-1
 2 52 l 1,5,-1
 312 625 l 1,0,-1
388 178 m 1,6,-1
 354 445 l 1,7,-1
 344 445 l 1,8,-1
 199 150 l 1,9,-1
 356 150 l 2,10,11
 388 150 388 150 388 178 c 1,6,-1
EndSplineSet
EndChar

StartChar: radical
Encoding: 8730 8730 235
Width: 544
Flags: HMW
HStem: 0 21G<113 315 113 113> 480 20G<47 244 244 244> 630 20G<462 650 650 650>
LayerCount: 2
Fore
SplineSet
544 552 m 1,0,-1
 315 0 l 1,1,-1
 113 0 l 1,2,-1
 47 500 l 1,3,-1
 244 500 l 1,4,-1
 273 180 l 1,5,-1
 283 180 l 1,6,-1
 462 650 l 1,7,-1
 650 650 l 1,8,-1
 620 552 l 1,9,-1
 544 552 l 1,0,-1
EndSplineSet
EndChar

StartChar: asciitilde
Encoding: 126 126 236
Width: 600
Flags: HMW
HStem: 202 21G<108 108> 203 151<359 405.5 359 419> 268 86 268 155<195 235.5>
LayerCount: 2
Fore
SplineSet
383 203 m 0,0,1
 348 203 348 203 315 219.5 c 128,-1,2
 282 236 282 236 256.5 252 c 128,-1,3
 231 268 231 268 212 268 c 0,4,5
 174 268 174 268 108 202 c 1,6,-1
 23 293 l 1,7,8
 106.948717949 389.863905325 106.948717949 389.863905325 163 412.5 c 0,9,10
 189 423 189 423 220 423 c 128,-1,11
 251 423 251 423 305.5 388.5 c 128,-1,12
 360 354 360 354 389 354 c 0,13,14
 435 354 435 354 492 420 c 1,15,-1
 578 330 l 1,16,17
 488 203 488 203 383 203 c 0,0,1
EndSplineSet
EndChar

StartChar: asciicircum
Encoding: 94 94 237
Width: 600
Flags: HMW
HStem: 218 21G<181 181 392 392> 567 20G<265 438 438 438>
LayerCount: 2
Fore
SplineSet
528 262 m 1,0,-1
 392 218 l 1,1,-1
 329 442 l 1,2,-1
 323 442 l 1,3,-1
 181 218 l 1,4,-1
 62 262 l 1,5,-1
 265 587 l 1,6,-1
 438 587 l 1,7,-1
 528 262 l 1,0,-1
EndSplineSet
EndChar

StartChar: a
Encoding: 97 97 238
Width: 587
Flags: HMW
HStem: -15 21G<129.5 231.5> 0 21G<387 482 387 387> 495 20G<220 363>
LayerCount: 2
Fore
SplineSet
565 475 m 1,0,-1
 482 0 l 1,1,-1
 387 0 l 1,2,-1
 342 57 l 1,3,4
 310 22 310 22 277.5 3.5 c 128,-1,5
 245 -15 245 -15 194 -15 c 0,6,7
 104 -15 104 -15 65.5 35 c 128,-1,8
 27 85 27 85 27 165 c 0,9,10
 27 308 27 308 103.5 411.5 c 128,-1,11
 180 515 180 515 316 515 c 0,12,13
 431 515 431 515 565 475 c 1,0,-1
254 327 m 2,14,-1
 220 131 l 1,15,-1
 249 131 l 2,16,17
 271 131 271 131 283 132.5 c 128,-1,18
 295 134 295 134 306.5 142.5 c 128,-1,19
 318 151 318 151 321 167 c 2,20,-1
 357 369 l 1,21,-1
 327 369 l 2,22,23
 293 369 293 369 276 361.5 c 128,-1,24
 259 354 259 354 254 327 c 2,14,-1
EndSplineSet
EndChar

StartChar: g
Encoding: 103 103 239
Width: 588
Flags: HMW
HStem: -165 135 495 20G<228 368.5>
LayerCount: 2
Fore
SplineSet
566 475 m 1,0,-1
 483 0 l 2,1,2
 469 -80 469 -80 423 -122.5 c 128,-1,3
 377 -165 377 -165 305 -165 c 2,4,-1
 38 -165 l 1,5,-1
 61 -35 l 1,6,-1
 242 -25 l 2,7,8
 288 -23 288 -23 295 15 c 1,9,-1
 297 30 l 1,10,11
 258 15 258 15 200 15 c 0,12,13
 108 15 108 15 69 63 c 128,-1,14
 30 111 30 111 30 185 c 0,15,16
 30 320 30 320 109 417.5 c 128,-1,17
 188 515 188 515 321.5 515 c 0,18,19
 455 515 455 515 566 475 c 1,0,-1
256 327 m 2,20,-1
 226 161 l 1,21,-1
 255 161 l 2,22,23
 277 161 277 161 289 162.5 c 128,-1,24
 301 164 301 164 312.5 172.5 c 128,-1,25
 324 181 324 181 327 197 c 2,26,-1
 359 369 l 1,27,-1
 329 369 l 2,28,29
 295 369 295 369 278 361.5 c 128,-1,30
 261 354 261 354 256 327 c 2,20,-1
EndSplineSet
EndChar

StartChar: A
Encoding: 65 65 240
Width: 609
Flags: HMW
HStem: 0 21G<-50 150 -50 -50 350 350 350 551> 99 159<251 331 251 346 189 331> 605 20G<213 507 507 507>
VStem: 331 198
LayerCount: 2
Fore
SplineSet
150 0 m 1,0,-1
 -50 0 l 1,1,-1
 213 625 l 1,2,-1
 507 625 l 1,3,-1
 551 0 l 1,4,-1
 350 0 l 1,5,-1
 346 99 l 1,6,-1
 189 99 l 1,7,-1
 150 0 l 1,0,-1
321 433 m 1,8,-1
 251 258 l 1,9,-1
 331 258 l 1,10,-1
 331 433 l 1,11,-1
 321 433 l 1,8,-1
EndSplineSet
EndChar

StartChar: ae
Encoding: 230 230 241
Width: 845
Flags: HMW
HStem: -15 147<553.5 563.5> 170 116<512 572> 369 146<308 327 327 342.5 220 357 649 652>
LayerCount: 2
Fore
SplineSet
568 515 m 1,0,-1
 559 470 l 1,1,-1
 566 470 l 1,2,3
 596 515 596 515 676 515 c 0,4,5
 827 515 827 515 827 392 c 0,6,7
 827 285.76 827 285.76 771 232 c 0,8,9
 725.713340684 188.524807056 725.713340684 188.524807056 618 176 c 0,10,11
 575 171 575 171 512 170 c 1,12,-1
 506 135 l 1,13,14
 534.5 132 534.5 132 563 132 c 0,15,16
 655 132 655 132 746 162 c 1,17,-1
 743 15 l 1,18,19
 632 -15 632 -15 527 -15 c 0,20,21
 390 -15 390 -15 342 57 c 1,22,23
 310 22 310 22 277.5 3.5 c 128,-1,24
 245 -15 245 -15 194 -15 c 0,25,26
 104 -15 104 -15 65.5 35 c 128,-1,27
 27 85 27 85 27 165 c 0,28,29
 27 308 27 308 103.5 411.5 c 128,-1,30
 180 515 180 515 316 515 c 0,31,32
 388 515 388 515 444 472 c 1,33,-1
 479 515 l 1,34,-1
 568 515 l 1,0,-1
254 327 m 2,35,-1
 220 131 l 1,36,-1
 249 131 l 2,37,38
 271 131 271 131 283 132.5 c 128,-1,39
 295 134 295 134 306.5 142.5 c 128,-1,40
 318 151 318 151 321 167 c 2,41,-1
 357 369 l 1,42,-1
 327 369 l 2,43,44
 293 369 293 369 276 361.5 c 128,-1,45
 259 354 259 354 254 327 c 2,35,-1
613 369 m 2,46,47
 582 369 582 369 565 362.5 c 128,-1,48
 548 356 548 356 542 335 c 1,49,-1
 533 286 l 1,50,-1
 572 286 l 2,51,52
 605 286 605 286 622 293.5 c 128,-1,53
 639 301 639 301 644 328 c 2,54,-1
 652 369 l 1,55,-1
 613 369 l 2,46,47
EndSplineSet
EndChar

StartChar: ellipsis
Encoding: 8230 8230 242
Width: 801
Flags: HMW
HStem: -6 21G<86.5 169.5 353.5 436.5 620.5 703.5> 186 20G<108.5 191 375.5 458 642.5 725>
VStem: 31 215<34.5 164> 298 215<34.5 164> 565 215<34.5 164>
CounterMasks: 1 38
LayerCount: 2
Fore
SplineSet
31 57 m 0,0,1
 31 206 31 206 158 206 c 0,2,3
 207 206 207 206 226.5 191 c 128,-1,4
 246 176 246 176 246 141 c 0,5,6
 246 72 246 72 218 33 c 128,-1,7
 190 -6 190 -6 120 -6 c 0,8,9
 70 -6 70 -6 50.5 8.5 c 128,-1,10
 31 23 31 23 31 57 c 0,0,1
298 57 m 0,11,12
 298 206 298 206 425 206 c 0,13,14
 474 206 474 206 493.5 191 c 128,-1,15
 513 176 513 176 513 141 c 0,16,17
 513 72 513 72 485 33 c 128,-1,18
 457 -6 457 -6 387 -6 c 0,19,20
 337 -6 337 -6 317.5 8.5 c 128,-1,21
 298 23 298 23 298 57 c 0,11,12
565 57 m 0,22,23
 565 206 565 206 692 206 c 0,24,25
 741 206 741 206 760.5 191 c 128,-1,26
 780 176 780 176 780 141 c 0,27,28
 780 72 780 72 752 33 c 128,-1,29
 724 -6 724 -6 654 -6 c 0,30,31
 604 -6 604 -6 584.5 8.5 c 128,-1,32
 565 23 565 23 565 57 c 0,22,23
EndSplineSet
EndChar

StartChar: apple
Encoding: 65537 -1 243
Width: 923
Flags: HMW
HStem: -114 101<406 501> -89 92<357 395.5> -15 21G<426 432> -6 21G<456 467.5> 480 20G<456 466> 493 93<551.5 603.5> 509 99<421 422.5 405 434 498 503.5>
VStem: 100 115<148.5 211> 124 91 292 128<200 292 117 294> 505 127<200 292 292 292> 707 93<106 160.5> 707 105<145 250.5 236.5 345.5>
LayerCount: 2
Fore
SplineSet
589 -89 m 2,0,-1
 566 -88 l 2,1,2
 552.428571429 -88 552.428571429 -88 534.714285714 -100 c 128,-1,3
 517 -112 517 -112 508 -112 c 1,4,-1
 462 -102 l 1,5,6
 454 -102 454 -102 438.5 -108 c 128,-1,7
 423 -114 423 -114 414.5 -114 c 128,-1,8
 406 -114 406 -114 390 -101.5 c 128,-1,9
 374 -89 374 -89 361 -89 c 1,10,-1
 337 -91 l 1,11,12
 322 -91 322 -91 304.5 -73.5 c 2,13,-1
 286 -55 l 1,14,15
 274 -49 274 -49 261 -48 c 128,-1,16
 248 -47 248 -47 239 -41.5 c 128,-1,17
 230 -36 230 -36 223 -18.5 c 128,-1,18
 216 -1 216 -1 210.5 3.5 c 128,-1,19
 205 8 205 8 191 13.5 c 128,-1,20
 177 19 177 19 171 28 c 0,21,22
 166 37 166 37 164 51.5 c 128,-1,23
 162 66 162 66 158 72.5 c 128,-1,24
 154 79 154 79 144.5 86.5 c 0,25,26
 122 104.263157895 122 104.263157895 122 124 c 1,27,-1
 125 149 l 1,28,29
 125 158 125 158 112.5 175.5 c 128,-1,30
 100 193 100 193 100 202 c 128,-1,31
 100 211 100 211 106 225.5 c 128,-1,32
 112 240 112 240 112 248.5 c 128,-1,33
 112 257 112 257 106 270 c 128,-1,34
 100 283 100 283 100 292 c 128,-1,35
 100 301 100 301 112.5 321.5 c 128,-1,36
 125 342 125 342 125 351 c 2,37,-1
 124 376 l 2,38,39
 124 391 124 391 140.5 405.5 c 128,-1,40
 157 420 157 420 159.5 425 c 128,-1,41
 162 430 162 430 164 446 c 128,-1,42
 166 462 166 462 170 468 c 128,-1,43
 174 474 174 474 189.5 480 c 128,-1,44
 205 486 205 486 210 491 c 128,-1,45
 215 496 215 496 222 511.5 c 128,-1,46
 229 527 229 527 235.5 532.5 c 128,-1,47
 242 538 242 538 261 542 c 128,-1,48
 280 546 280 546 285.5 549 c 128,-1,49
 291 552 291 552 306 569 c 128,-1,50
 321 586 321 586 335 587 c 1,51,-1
 361 585 l 2,52,53
 374 585 374 585 389.5 596.5 c 128,-1,54
 405 608 405 608 416 608 c 1,55,-1
 460 596 l 1,56,-1
 505 608 l 1,57,58
 518 608 518 608 534 595.5 c 128,-1,59
 550 583 550 583 562 583 c 1,60,-1
 590 586 l 1,61,62
 606 586 606 586 619 569.5 c 128,-1,63
 632 553 632 553 638.5 549.5 c 128,-1,64
 645 546 645 546 660 543 c 128,-1,65
 675 540 675 540 682.5 535 c 128,-1,66
 690 530 690 530 695 516 c 128,-1,67
 700 502 700 502 705.5 497 c 128,-1,68
 711 492 711 492 731 481.5 c 128,-1,69
 751 471 751 471 755.5 463 c 128,-1,70
 760 455 760 455 760.5 439 c 128,-1,71
 761 423 761 423 763.5 418.5 c 128,-1,72
 766 414 766 414 783 399.5 c 128,-1,73
 800 385 800 385 800 369 c 2,74,-1
 799 344 l 2,75,76
 799 331 799 331 811 312.5 c 128,-1,77
 823 294 823 294 823 285 c 128,-1,78
 823 276 823 276 817.5 263 c 128,-1,79
 812 250 812 250 812 243 c 128,-1,80
 812 236 812 236 817.5 221.5 c 128,-1,81
 823 207 823 207 822.5 199 c 128,-1,82
 822 191 822 191 810 178.5 c 128,-1,83
 798 166 798 166 798 152 c 2,84,-1
 800 120 l 2,85,86
 800 104 800 104 784 91 c 128,-1,87
 768 78 768 78 765.5 73 c 128,-1,88
 763 68 763 68 758.5 49 c 128,-1,89
 754 30 754 30 748.5 23.5 c 128,-1,90
 743 17 743 17 730.5 11.5 c 128,-1,91
 718 6 718 6 713 1 c 128,-1,92
 708 -4 708 -4 699 -20.5 c 128,-1,93
 690 -37 690 -37 683 -42 c 128,-1,94
 676 -47 676 -47 658.5 -51.5 c 128,-1,95
 641 -56 641 -56 636 -59 c 128,-1,96
 631 -62 631 -62 617.5 -75.5 c 128,-1,97
 604 -89 604 -89 589 -89 c 2,0,-1
462 -6 m 1,98,-1
 495 -13 l 1,99,100
 501 -13 501 -13 512.5 -5.5 c 0,101,102
 527.066666667 4 527.066666667 4 539 4 c 2,103,-1
 554 3 l 2,104,105
 566 3 566 3 575 13 c 128,-1,106
 584 23 584 23 587.5 25 c 128,-1,107
 591 27 591 27 604 30.5 c 128,-1,108
 617 34 617 34 622.5 38 c 128,-1,109
 628 42 628 42 634.5 53.5 c 128,-1,110
 641 65 641 65 644.5 68.5 c 128,-1,111
 648 72 648 72 657 76 c 128,-1,112
 666 80 666 80 670 84.5 c 128,-1,113
 674 89 674 89 677 103 c 128,-1,114
 680 117 680 117 682.5 121 c 128,-1,115
 685 125 685 125 696 134 c 128,-1,116
 707 143 707 143 707 157 c 2,117,-1
 706 177 l 2,118,119
 706 188 706 188 714.5 197.5 c 128,-1,120
 723 207 723 207 724 213 c 1,121,-1
 716 245 l 1,122,-1
 724 273 l 1,123,124
 724 281 724 281 715 295 c 128,-1,125
 706 309 706 309 706 318 c 2,126,-1
 707 335 l 2,127,128
 707 347 707 347 695 357 c 128,-1,129
 683 367 683 367 681 371 c 128,-1,130
 679 375 679 375 678.5 386.5 c 128,-1,131
 678 398 678 398 675 403.5 c 128,-1,132
 672 409 672 409 657.5 416.5 c 128,-1,133
 643 424 643 424 639 428 c 128,-1,134
 635 432 635 432 631 442 c 128,-1,135
 627 452 627 452 622 456 c 128,-1,136
 617 460 617 460 606 462 c 128,-1,137
 595 464 595 464 590 466.5 c 128,-1,138
 585 469 585 469 576 481 c 128,-1,139
 567 493 567 493 555 493 c 1,140,-1
 535 491 l 2,141,142
 526 491 526 491 515 500 c 128,-1,143
 504 509 504 509 494 509 c 1,144,-1
 461 500 l 1,145,-1
 429 509 l 1,146,147
 421 509 421 509 409 500.5 c 128,-1,148
 397 492 397 492 387 492 c 2,149,-1
 370 493 l 2,150,151
 359 493 359 493 348.5 480.5 c 128,-1,152
 338 468 338 468 333.5 465.5 c 128,-1,153
 329 463 329 463 316 460.5 c 128,-1,154
 303 458 303 458 298 454 c 128,-1,155
 293 450 293 450 288 439 c 128,-1,156
 283 428 283 428 279 424 c 128,-1,157
 275 420 275 420 264.5 416 c 128,-1,158
 254 412 254 412 250 407 c 0,159,160
 248 403 248 403 246 391.5 c 128,-1,161
 244 380 244 380 242 376 c 128,-1,162
 240 372 240 372 228 361.5 c 128,-1,163
 216 351 216 351 216 340 c 2,164,-1
 217 324 l 2,165,166
 217 316 217 316 208.5 301 c 128,-1,167
 200 286 200 286 200 278 c 1,168,-1
 208 248 l 1,169,-1
 200 215 l 1,170,171
 200 207 200 207 208.5 194.5 c 128,-1,172
 217 182 217 182 217 174 c 2,173,-1
 215 158 l 1,174,175
 215 147 215 147 227.5 135.5 c 128,-1,176
 240 124 240 124 242 120 c 128,-1,177
 244 116 244 116 245.5 105.5 c 128,-1,178
 247 95 247 95 251 88.5 c 128,-1,179
 255 82 255 82 265 78 c 128,-1,180
 275 74 275 74 279 70.5 c 128,-1,181
 283 67 283 67 288.5 54 c 128,-1,182
 294 41 294 41 300 37 c 128,-1,183
 306 33 306 33 315.5 33 c 128,-1,184
 325 33 325 33 331 30 c 128,-1,185
 337 27 337 27 348.5 14.5 c 128,-1,186
 360 2 360 2 371 2 c 2,187,-1
 386 3 l 2,188,189
 396 3 396 3 408 -5.5 c 128,-1,190
 420 -14 420 -14 426 -15 c 1,191,-1
 462 -6 l 1,98,-1
462 417 m 128,-1,193
 532 417 532 417 582 367.5 c 128,-1,194
 632 318 632 318 632 247 c 128,-1,195
 632 176 632 176 582 126.5 c 128,-1,196
 532 77 532 77 462 77 c 128,-1,197
 392 77 392 77 342 126.5 c 128,-1,198
 292 176 292 176 292 247 c 128,-1,199
 292 318 292 318 342 367.5 c 128,-1,192
 392 417 392 417 462 417 c 128,-1,193
505 292 m 1,200,-1
 557 292 l 1,201,-1
 557 360 l 1,202,-1
 366 360 l 1,203,-1
 366 292 l 1,204,-1
 420 292 l 1,205,-1
 420 117 l 1,206,-1
 505 117 l 1,207,-1
 505 292 l 1,200,-1
EndSplineSet
EndChar
